<svg width="140" height="60" viewBox="0 0 140 60" fill="none" xmlns="http://www.w3.org/2000/svg">
<rect width="140" height="60" rx="30" fill="white"/>
<path d="M34.2641 39C33.2548 39 32.2111 38.9063 31.1329 38.7188C30.0777 38.5313 29.1142 38.2148 28.2425 37.7695C27.7838 37.5352 27.4511 37.2422 27.2447 36.8906C27.0612 36.5156 26.9809 36.1406 27.0038 35.7656C27.0268 35.3906 27.1415 35.0508 27.3479 34.7461C27.5773 34.4414 27.864 34.2422 28.2081 34.1484C28.5752 34.0313 28.9766 34.0664 29.4125 34.2539C30.353 34.6523 31.2132 34.9336 31.9931 35.0977C32.7731 35.2617 33.5415 35.3438 34.2985 35.3438C35.2849 35.3438 35.996 35.1914 36.4319 34.8867C36.8907 34.5586 37.1201 34.1367 37.1201 33.6211C37.1201 33.1523 36.971 32.8008 36.6728 32.5664C36.3745 32.332 35.9387 32.168 35.3652 32.0742L31.7523 31.4062C30.33 31.1484 29.2289 30.6211 28.449 29.8242C27.692 29.0039 27.3135 27.9609 27.3135 26.6953C27.3135 25.5234 27.6347 24.5156 28.277 23.6719C28.9193 22.8047 29.8024 22.1484 30.9265 21.7031C32.0734 21.2344 33.3695 21 34.8147 21C35.8469 21 36.7989 21.0937 37.6706 21.2813C38.5423 21.4688 39.3796 21.7734 40.1825 22.1953C40.5954 22.4063 40.8821 22.6875 41.0427 23.0391C41.2262 23.3906 41.2836 23.7539 41.2147 24.1289C41.1689 24.5039 41.0312 24.8438 40.8018 25.1484C40.5724 25.4531 40.2742 25.6523 39.9072 25.7461C39.5631 25.8398 39.1617 25.793 38.7029 25.6055C37.9688 25.2539 37.2921 25.0078 36.6728 24.8672C36.0534 24.7031 35.457 24.6211 34.8835 24.6211C33.8512 24.6211 33.1057 24.7969 32.6469 25.1484C32.1881 25.4766 31.9587 25.8984 31.9587 26.4141C31.9587 26.8125 32.0849 27.1523 32.3372 27.4336C32.6125 27.6914 33.0254 27.8672 33.5759 27.9609L37.1889 28.6289C38.6799 28.8867 39.8154 29.4023 40.5954 30.1758C41.3753 30.9258 41.7653 31.957 41.7653 33.2695C41.7653 35.0508 41.0771 36.457 39.7007 37.4883C38.3473 38.4961 36.5351 39 34.2641 39Z" fill="#081B33"/>
<path d="M49.5826 39C48.3439 39 47.2313 38.7539 46.2449 38.2617C45.2585 37.7695 44.4901 37.1016 43.9395 36.2578C43.389 35.4141 43.1137 34.4648 43.1137 33.4102C43.1137 32.1445 43.4348 31.1484 44.0771 30.4219C44.7194 29.6719 45.7632 29.1445 47.2084 28.8398C48.6535 28.5117 50.569 28.3477 52.9547 28.3477H54.7783V31.0898H52.9891C51.8192 31.0898 50.8672 31.1602 50.1331 31.3008C49.422 31.418 48.9059 31.6289 48.5847 31.9336C48.2865 32.2383 48.1374 32.6602 48.1374 33.1992C48.1374 33.8555 48.3553 34.3945 48.7912 34.8164C49.25 35.2383 49.9037 35.4492 50.7525 35.4492C51.4177 35.4492 52.0027 35.2969 52.5074 34.9922C53.035 34.6641 53.4479 34.2305 53.7461 33.6914C54.0443 33.1289 54.1934 32.4961 54.1934 31.793V27.75C54.1934 26.7188 53.964 25.9922 53.5052 25.5703C53.0464 25.125 52.2665 24.9023 51.1654 24.9023C50.546 24.9023 49.8693 24.9844 49.1353 25.1484C48.4241 25.2891 47.6327 25.5352 46.761 25.8867C46.2564 26.1211 45.8091 26.1797 45.4191 26.0625C45.0291 25.9219 44.7309 25.6875 44.5245 25.3594C44.318 25.0078 44.2148 24.6328 44.2148 24.2344C44.2148 23.8125 44.3295 23.4141 44.5589 23.0391C44.7883 22.6406 45.1668 22.3477 45.6944 22.1602C46.7725 21.7148 47.7818 21.4102 48.7224 21.2461C49.6858 21.082 50.569 21 51.3719 21C53.1382 21 54.5834 21.2695 55.7074 21.8086C56.8544 22.3242 57.7146 23.1328 58.2881 24.2344C58.8615 25.3125 59.1483 26.707 59.1483 28.418V36.2227C59.1483 37.0898 58.9418 37.7578 58.5289 38.2266C58.116 38.6953 57.5196 38.9297 56.7397 38.9297C55.9597 38.9297 55.3518 38.6953 54.916 38.2266C54.5031 37.7578 54.2966 37.0898 54.2966 36.2227V34.9219L54.5375 35.1328C54.3998 35.9297 54.1016 36.6211 53.6428 37.207C53.207 37.7695 52.645 38.2148 51.9568 38.543C51.2686 38.8477 50.4772 39 49.5826 39Z" fill="#081B33"/>
<path d="M69.153 38.9297C68.4877 38.9297 67.9028 38.7539 67.3981 38.4023C66.8935 38.0273 66.492 37.4766 66.1938 36.75L60.998 24.5156C60.7457 23.9063 60.654 23.3437 60.7228 22.8281C60.7916 22.2891 61.0325 21.8672 61.4454 21.5625C61.8812 21.2344 62.4776 21.0703 63.2346 21.0703C63.854 21.0703 64.3587 21.2227 64.7486 21.5273C65.1386 21.8086 65.4827 22.3594 65.7809 23.1797L69.8412 33.7266H68.7401L72.9724 23.1445C73.2935 22.3477 73.6491 21.8086 74.0391 21.5273C74.429 21.2227 74.9681 21.0703 75.6563 21.0703C76.2527 21.0703 76.723 21.2344 77.067 21.5625C77.4341 21.8672 77.652 22.2773 77.7208 22.793C77.8126 23.3086 77.7208 23.8711 77.4456 24.4805L72.1466 36.75C71.8483 37.5 71.4469 38.0508 70.9422 38.4023C70.4605 38.7539 69.8641 38.9297 69.153 38.9297Z" fill="#081B33"/>
<path d="M87.8873 39C85.8916 39 84.1712 38.6367 82.726 37.9102C81.3037 37.1602 80.2027 36.1172 79.4227 34.7813C78.6657 33.4219 78.2872 31.8281 78.2872 30C78.2872 28.2188 78.6543 26.6602 79.3883 25.3242C80.1224 23.9648 81.1432 22.9102 82.4507 22.1602C83.7812 21.3867 85.2837 21 86.9583 21C88.1741 21 89.2752 21.2109 90.2616 21.6328C91.248 22.0313 92.0967 22.6172 92.8078 23.3906C93.519 24.1406 94.058 25.0664 94.425 26.168C94.7921 27.2461 94.9756 28.4531 94.9756 29.7891C94.9756 30.2344 94.838 30.5742 94.5627 30.8086C94.2874 31.0195 93.886 31.125 93.3584 31.125H82.5539V28.3828H91.225L90.6745 28.875C90.6745 27.9141 90.5368 27.1172 90.2616 26.4844C89.9863 25.8281 89.5849 25.3359 89.0572 25.0078C88.5526 24.6797 87.9217 24.5156 87.1647 24.5156C86.316 24.5156 85.5934 24.7148 84.997 25.1133C84.4006 25.5117 83.9418 26.0859 83.6206 26.8359C83.2995 27.5859 83.1389 28.4883 83.1389 29.543V29.8242C83.1389 31.6055 83.5403 32.918 84.3432 33.7617C85.169 34.6055 86.3848 35.0273 87.9906 35.0273C88.5411 35.0273 89.1719 34.957 89.8831 34.8164C90.5942 34.6758 91.2594 34.4531 91.8788 34.1484C92.4064 33.8906 92.8766 33.8086 93.2896 33.9023C93.7025 33.9727 94.0236 34.1602 94.253 34.4648C94.4824 34.7695 94.6086 35.1211 94.6315 35.5195C94.6774 35.918 94.5971 36.3164 94.3906 36.7148C94.1842 37.0898 93.8401 37.4062 93.3584 37.6641C92.5784 38.1094 91.6953 38.4375 90.7089 38.6484C89.7454 38.8828 88.8049 39 87.8873 39Z" fill="#081B33"/>
<path d="M105.912 39C103.916 39 102.196 38.6367 100.75 37.9102C99.3282 37.1602 98.2271 36.1172 97.4471 34.7813C96.6901 33.4219 96.3116 31.8281 96.3116 30C96.3116 28.2188 96.6787 26.6602 97.4127 25.3242C98.1468 23.9648 99.1676 22.9102 100.475 22.1602C101.806 21.3867 103.308 21 104.983 21C106.198 21 107.3 21.2109 108.286 21.6328C109.272 22.0313 110.121 22.6172 110.832 23.3906C111.543 24.1406 112.082 25.0664 112.449 26.168C112.816 27.2461 113 28.4531 113 29.7891C113 30.2344 112.862 30.5742 112.587 30.8086C112.312 31.0195 111.91 31.125 111.383 31.125H100.578V28.3828H109.249L108.699 28.875C108.699 27.9141 108.561 27.1172 108.286 26.4844C108.011 25.8281 107.609 25.3359 107.082 25.0078C106.577 24.6797 105.946 24.5156 105.189 24.5156C104.34 24.5156 103.618 24.7148 103.021 25.1133C102.425 25.5117 101.966 26.0859 101.645 26.8359C101.324 27.5859 101.163 28.4883 101.163 29.543V29.8242C101.163 31.6055 101.565 32.918 102.368 33.7617C103.193 34.6055 104.409 35.0273 106.015 35.0273C106.566 35.0273 107.196 34.957 107.907 34.8164C108.619 34.6758 109.284 34.4531 109.903 34.1484C110.431 33.8906 110.901 33.8086 111.314 33.9023C111.727 33.9727 112.048 34.1602 112.277 34.4648C112.507 34.7695 112.633 35.1211 112.656 35.5195C112.702 35.918 112.622 36.3164 112.415 36.7148C112.209 37.0898 111.865 37.4062 111.383 37.6641C110.603 38.1094 109.72 38.4375 108.733 38.6484C107.77 38.8828 106.829 39 105.912 39Z" fill="#081B33"/>
</svg>
