<svg width="266" height="190" viewBox="0 0 266 190" fill="none" xmlns="http://www.w3.org/2000/svg">
<path d="M113.361 16.7122C113.361 16.625 113.361 16.4994 113.361 16.3696L113.463 16.293L113.363 16.2717C113.363 14.4417 113.207 9.00689 111.425 4.8659C109.841 1.18667 107.655 -0.513554 106.137 0.135471C104.619 0.784496 104.348 3.54019 105.924 7.21303C106.803 9.26012 108.188 11.237 109.523 12.867C106.835 10.3284 103.166 7.18112 99.8529 5.44896C95.3702 3.10822 91.8844 3.17844 90.9174 5.01273C89.9505 6.84702 91.878 9.75168 96.3564 12.0946C99.2701 13.6203 103.249 14.7502 106.63 15.5184C104.818 15.4563 103.004 15.6091 101.228 15.9738C97.3084 16.8505 95.2336 18.6827 95.5943 20.2872C95.9551 21.8916 98.6169 22.6641 102.536 21.7874C106.901 20.8106 111.363 17.8081 112.897 16.7037L113.169 16.7441C113.28 16.8484 113.346 16.9059 113.346 16.9059C113.346 16.9059 113.346 16.8569 113.346 16.7697H113.41L113.361 16.7122Z" fill="#3EC1F3"/>
<path d="M156.458 36.0617L156.392 35.9978V36.1299L156.458 36.0617Z" fill="#3EC1F3"/>
<path d="M151.342 41.2156L151.289 30.961L146.038 25.7794L146.142 46.4503L151.342 41.2156Z" fill="#3EC1F3"/>
<path d="M115.067 12.9968L115.242 47.4888L120.493 52.6703L120.265 7.76205L115.067 12.9968Z" fill="#3EC1F3"/>
<path d="M97.8544 30.3311L110.137 42.4519L110.013 18.0847L97.8544 30.3311Z" fill="#3EC1F3"/>
<path d="M141.091 51.5361L140.935 20.7447L135.682 15.561L135.891 56.773L141.091 51.5361Z" fill="#3EC1F3"/>
<path d="M130.581 10.5263L125.33 5.3447L125.594 57.7072L130.327 62.3759L130.841 61.8588L130.581 10.5263Z" fill="#3EC1F3"/>
<path d="M110.014 18.0847L110.138 42.4519L115.242 47.4888L115.067 12.9968L110.014 18.0847Z" fill="#4756DF"/>
<path d="M123.984 4.01685L120.263 7.76204L120.492 52.6703L125.593 57.7072L125.329 5.34468L123.984 4.01685Z" fill="#4756DF"/>
<path d="M135.892 56.773L135.682 15.561L130.581 10.5262L130.841 61.8588L135.892 56.773Z" fill="#4756DF"/>
<path d="M146.141 46.4503L146.037 25.7794L140.935 20.7447L141.091 51.5361L146.141 46.4503Z" fill="#4756DF"/>
<path d="M156.392 36.1297V35.9978L151.289 30.9609L151.342 41.2155L156.392 36.1297Z" fill="#4756DF"/>
<path fill-rule="evenodd" clip-rule="evenodd" d="M105.7 38.086L131.783 11.8207L132.389 12.4195L106.307 38.6848L105.7 38.086Z" fill="#081B33"/>
<path d="M125.335 2.65613L96.5007 31.6935L104.333 39.4228L133.168 10.3854L125.335 2.65613Z" fill="#4756DF"/>
<path d="M117.539 49.5678C117.539 49.5678 120.314 40.4176 118.606 38.928C116.544 37.1299 113.056 42.9711 110.245 49.9933C107.288 57.3709 98.7179 78.2951 98.291 79.7847C98.291 79.7847 83.6882 71.8261 77.1584 68.9321C71.395 66.3786 64.3743 65.4508 64.3743 65.4508L63.482 60.1075C63.482 60.1075 67.6509 61.5971 71.2242 59.5138C74.7975 57.4305 75.6919 53.5747 74.5008 47.6377C73.7943 44.1202 73.8199 39.7643 73.2201 35.8808C70.8421 36.2808 67.3585 35.4658 67.3585 35.4658C62.5919 40.8091 57.5393 41.9965 57.5393 41.9965C54.2627 38.4343 48.305 38.4343 47.4128 43.4861C46.4244 49.0719 53.3683 50.6105 53.3683 50.6105C53.3683 50.6105 54.7814 58.7179 51.793 66.8042C47.6412 78.0397 30.9038 81.021 24.0431 76.1671C11.6625 84.8917 22.6151 111.4 33.0085 123.833C41.5469 134.047 71.8582 128.728 71.8582 128.728C71.8582 128.728 75.2736 131.281 79.3293 132.132C86.5869 146.39 89.5754 142.346 89.5754 142.346C89.5754 142.346 92.1369 145.113 94.058 142.134C97.9003 142.346 97.6869 140.006 94.2715 131.919C98.1138 136.601 101.875 136.616 101.956 135.324C102.17 131.919 90.8561 120.003 83.812 117.024C78.5203 114.785 75.9139 114.045 75.9139 114.045L74.8466 96.8083C74.8466 96.8083 97.499 109.21 108.146 103.405C121.808 95.9571 127.358 59.3563 127.358 59.3563L117.539 49.5678Z" fill="#EAA58B"/>
<path d="M51.7925 66.8042C54.7809 58.7179 53.355 50.6062 53.355 50.6062C53.355 50.6062 46.4112 49.0677 47.3995 43.4818C48.2918 38.4343 54.2494 38.4343 57.526 41.9923C57.526 41.9923 62.5872 40.8049 67.3452 35.4616C67.3452 35.4616 70.8289 36.2766 73.2068 35.8765C72.7906 33.2017 72.0776 30.7439 70.6197 28.9288C67.0464 24.4771 57.2186 21.5065 49.4765 27.1477C41.7343 32.7889 42.3277 41.9923 42.6265 45.5544C42.6265 45.5544 29.2362 42.2859 22.113 52.3298C13.3612 64.672 24.0342 76.1629 24.0342 76.1629C30.9033 81.021 47.6407 78.0397 51.7925 66.8042Z" fill="#30242A"/>
<path d="M75.2191 102.845L74.8456 96.8083H74.8648L73.0781 67.4085C71.1069 66.8012 69.1047 66.299 67.0799 65.9041L66.0937 86.1685H49.4438L43.119 75.9224C40.8614 77.0329 38.4436 77.7846 35.9531 78.1504L45.4649 101.651L49.0169 110.427C49.0169 110.427 57.1284 110.853 64.386 111.917C71.6436 112.981 75.9129 114.045 75.9129 114.045L75.2191 102.845Z" fill="#FF7235"/>
<path fill-rule="evenodd" clip-rule="evenodd" d="M117.985 49.6895C118.209 49.7599 118.335 49.9988 118.264 50.223C118.113 50.7009 117.959 51.1684 117.806 51.612C117.832 51.6454 117.861 51.6829 117.893 51.7245C118.041 51.9201 118.247 52.2062 118.482 52.5742C118.952 53.3096 119.542 54.3752 120.021 55.7008C120.982 58.3552 121.505 62.0599 119.746 66.2245C119.655 66.4411 119.405 66.5428 119.187 66.4516C118.97 66.3604 118.868 66.1108 118.959 65.8942C120.616 61.9727 120.125 58.4955 119.218 55.9896C118.764 54.7351 118.206 53.7259 117.762 53.0316C117.54 52.6847 117.348 52.4172 117.212 52.2379C117.144 52.1483 117.09 52.0807 117.054 52.0363C117.036 52.0142 117.022 51.9978 117.013 51.9874C117.009 51.9821 117.006 51.9784 117.004 51.9762L117.002 51.974L117.002 51.974L117.002 51.9738L117.002 51.9737L116.84 51.7876L116.922 51.555C117.098 51.0556 117.275 50.5195 117.449 49.9679C117.52 49.7437 117.76 49.619 117.985 49.6895Z" fill="#BB7259"/>
<path fill-rule="evenodd" clip-rule="evenodd" d="M97.9463 79.1988C98.1659 79.2842 98.2745 79.531 98.1888 79.7499L95.9496 85.472C95.8639 85.691 95.6164 85.7992 95.3968 85.7138C95.1771 85.6284 95.0685 85.3816 95.1542 85.1626L97.3934 79.4406C97.4791 79.2216 97.7266 79.1133 97.9463 79.1988Z" fill="#BB7259"/>
<path fill-rule="evenodd" clip-rule="evenodd" d="M91.9089 126.369C92.1143 126.254 92.3747 126.326 92.4905 126.531C93.4875 128.293 94.6108 130.696 95.5148 132.739C95.61 132.954 95.5122 133.206 95.2965 133.3C95.0808 133.395 94.8287 133.298 94.7336 133.083C93.8317 131.045 92.7222 128.673 91.7468 126.949C91.631 126.744 91.7036 126.485 91.9089 126.369Z" fill="#BB7259"/>
<path fill-rule="evenodd" clip-rule="evenodd" d="M87.9017 128.492C88.1067 128.375 88.3673 128.447 88.4838 128.651C91.0629 133.179 93.0813 138.24 94.3445 141.787C94.4233 142.008 94.3072 142.252 94.085 142.33C93.8628 142.409 93.6187 142.293 93.5398 142.072C92.2842 138.546 90.2852 133.537 87.7413 129.072C87.6249 128.867 87.6967 128.608 87.9017 128.492Z" fill="#BB7259"/>
<path fill-rule="evenodd" clip-rule="evenodd" d="M83.9254 131.007C84.1324 130.895 84.3917 130.971 84.5045 131.177C86.4349 134.71 88.3109 138.82 89.7004 142.044C89.7935 142.26 89.6933 142.511 89.4767 142.603C89.2601 142.696 89.009 142.596 88.9159 142.38C87.5305 139.166 85.6666 135.083 83.7547 131.585C83.6419 131.378 83.7183 131.12 83.9254 131.007Z" fill="#BB7259"/>
<path fill-rule="evenodd" clip-rule="evenodd" d="M46.7761 105.21C46.7778 104.975 46.9704 104.786 47.2062 104.788L75.5964 105.001C75.8322 105.003 76.0219 105.195 76.0201 105.43C76.0183 105.665 75.8257 105.854 75.59 105.852L47.1998 105.639C46.964 105.637 46.7743 105.446 46.7761 105.21Z" fill="#724342"/>
<path d="M38.596 118.864C37.2107 118.396 35.7269 118.294 34.2901 118.568C32.8532 118.843 31.5125 119.484 30.3992 120.431C31.2637 121.65 32.1367 122.793 33.0077 123.835C35.3685 126.659 39.3922 128.304 43.9795 129.183C45.1429 124.846 42.8268 120.316 38.596 118.864Z" fill="#CA7358"/>
<path d="M108.145 103.405C110 102.394 111.704 100.851 113.268 98.9235C112.256 97.4053 110.77 96.2619 109.04 95.6698C104.611 94.1526 99.7586 96.5785 98.2025 101.088C97.797 102.263 97.6464 103.512 97.7606 104.75C101.635 105.205 105.315 104.948 108.145 103.405Z" fill="#CA7358"/>
<path d="M35.9521 78.1504C31.3541 78.8335 26.8629 78.1632 24.0431 76.1671C15.0458 82.5084 18.3715 98.2383 24.85 111.136L45.466 101.651L35.9521 78.1504Z" fill="#FFBE21"/>
<path d="M51.7921 66.8042C50.2509 70.9728 46.9764 74.0051 43.1192 75.9224L49.444 86.1685H66.0939L67.0801 65.9147C65.4407 65.5934 64.3734 65.4508 64.3734 65.4508L63.9593 62.9738H52.9063C52.6236 64.2746 52.2513 65.5544 51.7921 66.8042Z" fill="#FFBE21"/>
<path d="M77.1551 68.9321C75.8256 68.3519 74.4645 67.8468 73.078 67.4191L74.8647 96.8189C77.7004 98.3155 80.6155 99.6574 83.5973 100.839L92.3492 76.5927C87.5506 74.0392 80.9739 70.6345 77.1551 68.9321Z" fill="#FFBE21"/>
<path d="M21.0487 87.0312C26.7661 83.7406 29.0767 77.0598 26.2096 72.1093C23.3425 67.1588 16.3834 65.8132 10.666 69.1039C4.94859 72.3946 2.63797 79.0753 5.50507 84.0258C8.37217 88.9763 15.3313 90.3219 21.0487 87.0312Z" fill="#30242A"/>
<path fill-rule="evenodd" clip-rule="evenodd" d="M18.7429 66.0652C18.9755 66.0265 19.1954 66.1832 19.2342 66.415L18.8131 66.485C19.2342 66.415 19.2342 66.4149 19.2342 66.4148C19.2342 66.4148 19.2342 66.4148 19.2342 66.4148L19.2343 66.4154L19.2349 66.419L19.2379 66.4358C19.2406 66.4511 19.2449 66.4746 19.2509 66.5059C19.263 66.5685 19.2818 66.6621 19.3085 66.7831C19.3618 67.0251 19.4463 67.3763 19.5703 67.8073C19.8186 68.6702 20.2236 69.8488 20.85 71.1107C22.1059 73.6406 24.2283 76.4612 27.7174 77.7912C27.9377 77.8751 28.0479 78.1211 27.9637 78.3407C27.8795 78.5602 27.6327 78.6702 27.4125 78.5862C23.644 77.1498 21.3905 74.1185 20.0848 71.4882C19.4304 70.17 19.0083 68.9414 18.7496 68.042C18.6201 67.5919 18.5312 67.2232 18.4745 66.9657C18.4461 66.8369 18.4258 66.7358 18.4124 66.6661C18.4057 66.6313 18.4007 66.6043 18.3973 66.5856C18.3957 66.5763 18.3944 66.569 18.3935 66.5639L18.3925 66.5578L18.3922 66.5559L18.3921 66.5553C18.392 66.5551 18.392 66.5549 18.8131 66.485L18.392 66.5549C18.3532 66.3231 18.5103 66.1038 18.7429 66.0652Z" fill="#081B33"/>
<path fill-rule="evenodd" clip-rule="evenodd" d="M180.131 13.5027C180.365 13.4717 180.58 13.6354 180.611 13.8684L181.465 20.2522C181.496 20.4852 181.332 20.6992 181.098 20.7303C180.864 20.7614 180.65 20.5977 180.619 20.3647L179.765 13.9808C179.734 13.7479 179.898 13.5338 180.131 13.5027Z" fill="#F5EBDC"/>
<path d="M255.693 103.784C255.693 103.784 265.299 92.5056 254.626 82.9298C248.102 77.0779 240.266 78.708 240.266 78.708C240.563 75.1458 241.159 65.9403 233.416 60.3012C225.674 54.6621 215.844 57.6306 212.271 62.0823C208.698 66.534 209.592 74.85 208.401 80.787C207.21 86.7239 208.102 90.5755 211.675 92.6631C215.249 94.7506 219.42 93.2568 219.42 93.2568L218.525 98.6C218.525 98.6 211.507 99.5278 205.743 102.081C199.212 104.975 184.611 112.934 184.611 112.934C184.184 111.444 181.836 87.1857 180.769 79.3123C179.955 73.3136 177.14 65.9062 175.005 67.3958C172.935 68.8406 173.724 73.5668 173.724 73.5668L162.838 84.845C162.838 84.845 157.457 123.516 170.309 134.001C179.701 141.661 204.249 129.319 204.249 129.319L201.047 152.514H230.338C230.338 152.514 224.846 153.969 213.428 159.11C200.193 165.069 192.509 181.667 193.363 182.944C194.217 184.22 196.778 183.156 200.193 178.9C197.205 189.966 200.193 189.115 202.115 188.902C204.068 191.702 206.597 188.263 206.597 188.263C206.597 188.263 210.013 191.455 215.349 176.56C217.773 175.42 220.006 173.913 221.966 172.091C221.966 172.091 255.907 169.963 262.524 158.046C269.141 146.13 264.658 115.062 255.693 103.784Z" fill="#A15842"/>
<path fill-rule="evenodd" clip-rule="evenodd" d="M43.5743 109.877C43.5846 109.642 43.7838 109.46 44.0194 109.47L48.929 109.683C49.1645 109.693 49.3472 109.892 49.3369 110.126C49.3267 110.361 49.1274 110.543 48.8919 110.533L43.9823 110.32C43.7467 110.31 43.5641 110.111 43.5743 109.877Z" fill="#BB7259"/>
<path fill-rule="evenodd" clip-rule="evenodd" d="M59.2877 58.7714C59.3995 58.5645 59.6585 58.4872 59.866 58.5986C61.0461 59.2325 62.2762 59.769 63.5441 60.2029C63.7671 60.2792 63.8858 60.5213 63.8093 60.7436C63.7327 60.9659 63.4899 61.0843 63.2669 61.008C61.955 60.559 60.6821 60.0039 59.461 59.348C59.2534 59.2365 59.1758 58.9784 59.2877 58.7714Z" fill="#BB7259"/>
<path fill-rule="evenodd" clip-rule="evenodd" d="M42.2599 45.0735C42.4945 45.0502 42.7036 45.2209 42.727 45.4548C42.8891 47.0766 43.1084 49.0928 43.3209 50.6819C43.3521 50.9149 43.1879 51.1289 42.9542 51.16C42.7205 51.191 42.5057 51.0273 42.4746 50.7944C42.2602 49.1916 42.0398 47.1646 41.8774 45.5392C41.854 45.3053 42.0253 45.0968 42.2599 45.0735Z" fill="#081B33"/>
<path fill-rule="evenodd" clip-rule="evenodd" d="M59.8598 97.697C59.9953 97.6429 60.0873 97.6529 60.1657 97.6871ZM60.1657 97.6871C60.259 97.7277 60.377 97.8231 60.5089 98.0137ZM60.5089 98.0137C60.7764 98.4006 61.0104 99.0452 61.2066 99.8675ZM61.2066 99.8675C61.4697 100.97 61.6448 102.301 61.7717 103.545ZM61.7717 103.545C61.3866 102.929 60.9397 102.173 60.5447 101.4C60.0744 100.479 59.6955 99.5667 59.5662 98.8474C59.5015 98.4868 59.5073 98.2149 59.5641 98.0278C59.6145 97.8618 59.7036 97.7594 59.8598 97.697M62.0373 99.6706C62.4432 101.372 62.6436 103.563 62.7756 105.162C62.7914 105.353 62.6769 105.531 62.496 105.597C62.3151 105.662 62.1125 105.599 62.0015 105.442L62.3501 105.197C62.0015 105.442 62.0014 105.442 62.0013 105.442L61.9973 105.436L61.9862 105.421C61.9766 105.407 61.9624 105.387 61.9442 105.36C61.9077 105.308 61.8548 105.231 61.7885 105.134C61.656 104.938 61.4696 104.659 61.2533 104.321C60.8215 103.646 60.2671 102.733 59.7838 101.786C59.3048 100.848 58.8779 99.8444 58.7258 98.9975C58.6499 98.575 58.6345 98.1512 58.7468 97.7812C58.8656 97.3901 59.1244 97.0738 59.5423 96.9069C59.8705 96.7759 60.201 96.7736 60.5075 96.907C60.7992 97.0341 61.029 97.2663 61.2118 97.5306C61.5735 98.0535 61.8362 98.8275 62.0373 99.6706Z" fill="#724342"/>
<path fill-rule="evenodd" clip-rule="evenodd" d="M62.5058 105.32L62.1141 105.151C62.037 105.328 62.0896 105.535 62.242 105.655C62.3945 105.774 62.6085 105.776 62.7632 105.66C63.7298 104.931 65.0513 103.92 65.9767 102.993C66.4327 102.536 66.8319 102.063 67.0272 101.627C67.1257 101.408 67.1932 101.153 67.1468 100.894C67.0966 100.614 66.9253 100.397 66.6801 100.253C66.3686 100.07 66.0348 100.061 65.7259 100.159C65.4317 100.252 65.1587 100.441 64.9149 100.66C64.4266 101.1 63.9541 101.757 63.5492 102.41C63.14 103.069 62.7816 103.754 62.5264 104.272C62.3986 104.531 62.2959 104.75 62.2251 104.904C62.1897 104.981 62.1622 105.042 62.1434 105.085C62.134 105.106 62.1268 105.122 62.1219 105.133L62.1162 105.146L62.1141 105.151C62.114 105.151 62.1141 105.151 62.5058 105.32ZM64.2754 102.858C64.0676 103.193 63.8725 103.536 63.698 103.86C64.2986 103.378 64.894 102.871 65.3716 102.393C65.8163 101.947 66.1197 101.565 66.2478 101.28C66.311 101.139 66.3104 101.067 66.3063 101.044C66.3063 101.044 66.3063 101.044 66.3063 101.044C66.3062 101.04 66.3058 101.021 66.2468 100.986C66.1768 100.945 66.1006 100.933 65.9844 100.97C65.8534 101.011 65.6861 101.113 65.4874 101.292C65.0906 101.649 64.669 102.223 64.2754 102.858Z" fill="#724342"/>
<path fill-rule="evenodd" clip-rule="evenodd" d="M64.7905 65.18C65.023 65.1413 65.2431 65.2978 65.2819 65.5297L65.6618 67.7981C65.7007 68.0299 65.5436 68.2492 65.3111 68.2879C65.0785 68.3266 64.8585 68.1701 64.8197 67.9382L64.4397 65.6699C64.4009 65.438 64.5579 65.2187 64.7905 65.18Z" fill="#BB7259"/>
<path fill-rule="evenodd" clip-rule="evenodd" d="M51.2032 44.1539C51.3177 43.9484 51.5777 43.8745 51.7838 43.9886L54.4413 45.4612C54.6474 45.5754 54.7216 45.8345 54.6071 46.0399C54.4925 46.2454 54.2326 46.3194 54.0265 46.2052L51.3689 44.7326C51.1629 44.6184 51.0887 44.3593 51.2032 44.1539Z" fill="#BB7259"/>
<path fill-rule="evenodd" clip-rule="evenodd" d="M66.6541 50.4798C66.762 50.3941 66.9049 50.3656 67.0376 50.4034L70.771 51.4674C70.8845 51.4997 70.9796 51.5775 71.0335 51.6822C71.0874 51.787 71.0954 51.9093 71.0556 52.0201C70.6322 53.1979 69.5311 53.7467 68.4972 53.5441C67.445 53.3378 66.5783 52.389 66.4939 50.8356C66.4865 50.6982 66.5461 50.5656 66.6541 50.4798ZM67.4378 51.4027C67.6491 52.2191 68.1714 52.6127 68.662 52.7089C69.1579 52.8061 69.6993 52.6231 70.0395 52.1442L67.4378 51.4027Z" fill="#BB7259"/>
<path d="M65.2015 45.9077C65.6907 45.9077 66.0874 45.5123 66.0874 45.0246C66.0874 44.5369 65.6907 44.1415 65.2015 44.1415C64.7123 44.1415 64.3156 44.5369 64.3156 45.0246C64.3156 45.5123 64.7123 45.9077 65.2015 45.9077Z" fill="#724342"/>
<path d="M71.7883 44.3117C72.2776 44.3117 72.6742 43.9163 72.6742 43.4286C72.6742 42.9409 72.2776 42.5455 71.7883 42.5455C71.2991 42.5455 70.9025 42.9409 70.9025 43.4286C70.9025 43.9163 71.2991 44.3117 71.7883 44.3117Z" fill="#724342"/>
<path fill-rule="evenodd" clip-rule="evenodd" d="M69.3722 45.7053C69.5928 45.6223 69.8392 45.7333 69.9224 45.9532C70.0308 46.2396 70.14 46.5504 70.2142 46.8246C70.2513 46.9613 70.2821 47.098 70.2986 47.2233C70.3137 47.3372 70.324 47.4889 70.2847 47.6315L70.2821 47.6407L70.2791 47.6499C70.1586 48.0202 69.9153 48.3386 69.5892 48.5527C69.3923 48.6821 69.1276 48.6278 68.9978 48.4315C68.8681 48.2352 68.9226 47.9713 69.1194 47.842C69.2762 47.739 69.3949 47.5883 69.4582 47.4127C69.4582 47.4026 69.4579 47.378 69.4521 47.3344C69.4424 47.2607 69.4217 47.1639 69.3899 47.0464C69.3264 46.8119 69.2286 46.5312 69.1235 46.2537C69.0403 46.0338 69.1516 45.7882 69.3722 45.7053Z" fill="#BB7259"/>
<path d="M61.6906 22.4832L62.8198 23.7195L63.5669 24.5409C64.0429 26.2007 60.5784 28.8458 55.7628 30.4843C50.9471 32.1228 46.584 32.1377 45.9436 30.5332L46.0333 29.4267L46.1699 27.7605C47.9779 28.1861 51.1157 27.8435 54.4735 26.6965C57.8312 25.5496 60.5251 23.9302 61.6906 22.4832Z" fill="#FFB7D5"/>
<path d="M53.171 22.913C55.6898 22.0619 57.8372 20.9255 59.2461 19.802L61.6902 22.4832C60.5247 23.9302 57.8265 25.5602 54.4667 26.7029C51.1068 27.8456 47.9711 28.1925 46.1631 27.7669L46.4555 24.1494C48.2593 24.1813 50.6521 23.7685 53.171 22.913Z" fill="#FF7235"/>
<path d="M56.6288 16.9335L59.2459 19.802C57.837 20.9255 55.6896 22.0576 53.1708 22.913C50.6519 23.7685 48.2612 24.1898 46.4553 24.1515L46.767 20.285C50.2526 19.8652 53.6118 18.7237 56.6288 16.9335V16.9335Z" fill="#FFB7D5"/>
<path d="M50.5779 15.3333C51.7173 14.9491 52.828 14.4847 53.9015 13.9438L56.6295 16.9335C53.6125 18.7237 50.2533 19.8653 46.7676 20.2851L47.0964 16.259C48.2772 16.0319 49.4405 15.7226 50.5779 15.3333V15.3333Z" fill="#FF7235"/>
<path d="M47.0958 16.2589L47.8237 7.27899L53.903 13.9437C52.8295 14.4847 51.7189 14.9491 50.5794 15.3333C49.4414 15.7227 48.2773 16.032 47.0958 16.2589V16.2589Z" fill="#FFB7D5"/>
<path d="M47.3096 9.058C49.1251 9.058 50.5969 7.59082 50.5969 5.78096C50.5969 3.97109 49.1251 2.50391 47.3096 2.50391C45.4941 2.50391 44.0223 3.97109 44.0223 5.78096C44.0223 7.59082 45.4941 9.058 47.3096 9.058Z" fill="#FF7235"/>
<path d="M52.5399 54.2493C54.0135 54.2493 55.2081 53.0584 55.2081 51.5893C55.2081 50.1203 54.0135 48.9294 52.5399 48.9294C51.0663 48.9294 49.8716 50.1203 49.8716 51.5893C49.8716 53.0584 51.0663 54.2493 52.5399 54.2493Z" fill="#F4E6D8"/>
<path d="M224.341 162.909L224.89 164.132L228.177 171.476C238.295 170.229 257.692 166.748 262.523 158.046C269.14 146.13 264.657 115.062 255.692 103.784C248.221 111.974 236.668 109.742 232.036 102.933C231.183 103.144 230.313 103.286 229.436 103.358C228.069 103.484 226.691 103.43 225.338 103.196C223.717 102.927 222.181 102.282 220.855 101.313C219.167 100.047 218.55 98.6766 218.55 98.6766L218.264 98.6362C216.953 98.8298 210.855 99.8151 205.742 102.081C199.21 104.975 184.61 112.934 184.61 112.934C184.418 112.266 183.839 107.003 183.162 100.698L174.872 103.89L173.973 104.237L169.685 105.893L161.887 108.901C162.446 118.92 164.544 129.298 170.308 134.001C179.7 141.661 204.248 129.319 204.248 129.319L201.046 152.514H230.337C230.337 152.514 227.334 153.312 221.158 155.801L222.58 158.974L224.341 162.909Z" fill="#FFB7D5"/>
<path d="M183.969 124.638C181.365 124.638 178.867 125.669 177.026 127.505C175.185 129.34 174.15 131.83 174.15 134.426C174.15 134.935 174.189 135.443 174.267 135.946C179.864 137.435 187.557 135.686 193.752 133.605C193.546 131.16 192.425 128.881 190.614 127.221C188.802 125.56 186.43 124.638 183.969 124.638V124.638Z" fill="#FF7235"/>
<path d="M174.364 106.976C174.363 106.051 174.232 105.131 173.973 104.243L169.685 105.899L161.887 108.908C162.03 111.476 162.275 114.068 162.657 116.581C164.08 116.859 165.546 116.819 166.951 116.465C168.357 116.111 169.666 115.451 170.785 114.533C171.904 113.614 172.805 112.461 173.424 111.154C174.043 109.847 174.364 108.421 174.364 106.976V106.976Z" fill="#FF7235"/>
<path d="M202.754 113.785C204.39 113.784 206 113.376 207.438 112.597C208.876 111.818 210.095 110.694 210.986 109.326C211.877 107.958 212.41 106.389 212.538 104.763C212.667 103.137 212.385 101.505 211.72 100.015C209.678 100.553 207.68 101.244 205.743 102.081C202.737 103.413 198.022 105.818 193.806 108.027C194.584 109.743 195.842 111.199 197.429 112.22C199.016 113.242 200.865 113.785 202.754 113.785Z" fill="#FF7235"/>
<path d="M226.662 136.129C232.085 136.129 236.481 131.746 236.481 126.34C236.481 120.934 232.085 116.551 226.662 116.551C221.239 116.551 216.843 120.934 216.843 126.34C216.843 131.746 221.239 136.129 226.662 136.129Z" fill="#FF7235"/>
<path d="M207.451 141.874C205.642 141.874 203.868 142.374 202.328 143.319L201.047 152.514H217.229C217.255 152.233 217.27 151.95 217.27 151.663C217.27 149.067 216.235 146.577 214.394 144.741C212.553 142.905 210.055 141.874 207.451 141.874Z" fill="#FF7235"/>
<path d="M242.688 108.972C242.688 109.157 242.671 109.342 242.671 109.529C242.672 111.7 243.397 113.81 244.732 115.525C246.067 117.241 247.936 118.465 250.046 119.006C252.155 119.546 254.385 119.372 256.384 118.511C258.384 117.65 260.039 116.151 261.09 114.249C259.581 110.029 257.756 106.376 255.692 103.784C251.924 107.914 247.119 109.393 242.688 108.972Z" fill="#FF7235"/>
<path d="M251.85 150.386C251.851 152.865 252.795 155.252 254.492 157.064C256.19 158.876 258.513 159.979 260.995 160.149C261.584 159.509 262.097 158.804 262.523 158.046C264.7 154.127 265.676 148.132 265.684 141.448C264.189 140.78 262.549 140.496 260.915 140.622C259.281 140.747 257.704 141.278 256.329 142.167C254.954 143.055 253.823 144.273 253.041 145.708C252.259 147.144 251.849 148.752 251.85 150.386V150.386Z" fill="#FF7235"/>
<path d="M231.145 160.174C228.607 160.172 226.168 161.152 224.342 162.909L224.891 164.132L228.178 171.476C232.465 170.957 236.723 170.223 240.936 169.276C240.762 166.805 239.655 164.493 237.838 162.804C236.021 161.115 233.629 160.175 231.145 160.174V160.174Z" fill="#FF7235"/>
<path fill-rule="evenodd" clip-rule="evenodd" d="M248.092 146.312C248.168 146.534 248.048 146.776 247.825 146.852C243.869 148.196 238.959 149.741 234.728 151.073C232.82 151.673 231.049 152.231 229.568 152.706C229.343 152.778 229.103 152.655 229.03 152.431C228.958 152.208 229.081 151.968 229.306 151.896C230.797 151.418 232.573 150.859 234.485 150.257C238.711 148.927 243.603 147.387 247.55 146.046C247.773 145.97 248.016 146.089 248.092 146.312Z" fill="#F5EBDC"/>
<path fill-rule="evenodd" clip-rule="evenodd" d="M241.567 125.342C241.802 125.32 242.009 125.492 242.031 125.726L244.057 147.687C244.078 147.921 243.906 148.128 243.671 148.15C243.436 148.171 243.228 147.999 243.207 147.765L241.181 125.804C241.159 125.57 241.332 125.363 241.567 125.342Z" fill="#F5EBDC"/>
<path fill-rule="evenodd" clip-rule="evenodd" d="M203.3 169.655C203.514 169.754 203.607 170.007 203.509 170.22C202.21 173.026 200.725 177.431 200.024 179.589C199.952 179.813 199.711 179.935 199.487 179.863C199.262 179.79 199.139 179.55 199.212 179.327C199.911 177.173 201.411 172.722 202.733 169.863C202.832 169.65 203.086 169.557 203.3 169.655Z" fill="#30242A"/>
<path fill-rule="evenodd" clip-rule="evenodd" d="M207.47 171.437C207.684 171.536 207.776 171.789 207.677 172.002C204.722 178.342 202.984 185.582 202.339 188.591C202.29 188.82 202.063 188.967 201.832 188.918C201.602 188.869 201.455 188.643 201.504 188.413C202.153 185.387 203.907 178.071 206.903 171.643C207.002 171.43 207.256 171.338 207.47 171.437Z" fill="#30242A"/>
<path fill-rule="evenodd" clip-rule="evenodd" d="M211.628 173.509C211.845 173.603 211.944 173.853 211.85 174.069C209.944 178.453 208.269 184.455 207.326 188.164C207.268 188.391 207.036 188.529 206.807 188.472C206.579 188.414 206.44 188.182 206.498 187.955C207.442 184.241 209.131 178.182 211.067 173.73C211.161 173.515 211.412 173.416 211.628 173.509Z" fill="#30242A"/>
<path fill-rule="evenodd" clip-rule="evenodd" d="M205.001 121.333C205.234 121.368 205.395 121.585 205.36 121.817L204.198 129.542C204.163 129.774 203.946 129.934 203.713 129.9C203.48 129.865 203.319 129.648 203.354 129.416L204.515 121.691C204.55 121.459 204.768 121.299 205.001 121.333Z" fill="#F5EBDC"/>
<path d="M254.625 82.9298C248.101 77.0779 240.265 78.708 240.265 78.708C240.562 75.1458 241.158 65.9403 233.415 60.3012C225.673 54.6621 215.843 57.6306 212.27 62.0823C210.814 63.8974 210.099 66.3552 209.683 69.03C212.061 69.4301 215.547 68.6151 215.547 68.6151C220.311 73.9584 225.366 75.1458 225.366 75.1458C228.642 71.5836 234.598 71.5836 235.492 76.6353C236.481 82.2212 229.535 83.7597 229.535 83.7597C229.535 83.7597 228.062 91.7204 230.495 99.7449C230.842 100.88 231.358 101.956 232.028 102.937C236.66 109.746 248.215 111.981 255.684 103.788C256.053 103.334 256.396 102.86 256.71 102.367C258.873 99.0363 263.016 90.4585 254.625 82.9298Z" fill="#30242A"/>
<path fill-rule="evenodd" clip-rule="evenodd" d="M223.726 91.7658C223.841 91.9709 223.767 92.2302 223.562 92.345C222.278 93.0606 220.918 93.6298 219.507 94.0418C219.281 94.1079 219.044 93.9785 218.977 93.753C218.911 93.5274 219.041 93.291 219.267 93.2249C220.617 92.8309 221.918 92.2866 223.145 91.6021C223.351 91.4874 223.611 91.5607 223.726 91.7658Z" fill="#30242A"/>
<path fill-rule="evenodd" clip-rule="evenodd" d="M240.638 78.2227C240.873 78.246 241.044 78.4545 241.02 78.6884C240.858 80.3135 240.64 82.3406 240.425 83.9436C240.394 84.1766 240.179 84.3403 239.946 84.3092C239.712 84.2782 239.548 84.0641 239.579 83.8311C239.792 82.2422 240.009 80.2263 240.171 78.6041C240.194 78.3702 240.403 78.1994 240.638 78.2227Z" fill="#081B33"/>
<path fill-rule="evenodd" clip-rule="evenodd" d="M231.695 77.3031C231.81 77.5086 231.735 77.7677 231.529 77.8819L228.872 79.3544C228.666 79.4686 228.406 79.3946 228.291 79.1892C228.177 78.9838 228.251 78.7246 228.457 78.6105L231.115 77.1379C231.321 77.0237 231.581 77.0977 231.695 77.3031Z" fill="#30242A"/>
<path fill-rule="evenodd" clip-rule="evenodd" d="M216.819 84.6516C217.028 84.7614 217.108 85.0188 216.997 85.2267C216.543 86.0843 215.754 86.4307 215.048 86.521C214.697 86.566 214.356 86.5496 214.067 86.5002C213.786 86.4521 213.52 86.3672 213.333 86.2508C213.133 86.1263 213.072 85.8637 213.197 85.6643C213.322 85.465 213.585 85.4043 213.785 85.5288C213.842 85.5645 213.988 85.6232 214.211 85.6612C214.425 85.6978 214.68 85.7099 214.94 85.6767C215.457 85.6106 215.954 85.3739 216.242 84.8292C216.352 84.6214 216.611 84.5418 216.819 84.6516Z" fill="#30242A"/>
<path d="M218.371 79.2697C218.86 79.2697 219.257 78.8743 219.257 78.3866C219.257 77.8989 218.86 77.5035 218.371 77.5035C217.882 77.5035 217.485 77.8989 217.485 78.3866C217.485 78.8743 217.882 79.2697 218.371 79.2697Z" fill="#30242A"/>
<path fill-rule="evenodd" clip-rule="evenodd" d="M213.547 80.1233C213.777 80.1764 213.92 80.4051 213.866 80.6341C213.799 80.9222 213.741 81.2134 213.71 81.4537C213.694 81.5742 213.687 81.6728 213.687 81.747C213.687 81.7905 213.69 81.8147 213.692 81.8247C213.778 81.9907 213.916 82.1245 214.086 82.2057C214.298 82.3076 214.388 82.5619 214.286 82.7737C214.184 82.9855 213.928 83.0747 213.716 82.9728C213.364 82.8039 213.079 82.5206 212.91 82.1694L212.906 82.1608L212.902 82.1521C212.844 82.0166 212.834 81.8652 212.833 81.7509C212.833 81.625 212.845 81.4857 212.863 81.3453C212.899 81.0637 212.965 80.7409 213.035 80.4418C213.088 80.2128 213.317 80.0702 213.547 80.1233Z" fill="#30242A"/>
<path fill-rule="evenodd" clip-rule="evenodd" d="M206.028 76.4079C205.54 78.5109 206.691 80.4928 208.488 80.9081C210.285 81.3234 212.194 80.0484 212.683 77.9455C213.172 75.8425 212.021 73.8606 210.223 73.4453C208.426 73.03 206.517 74.3049 206.028 76.4079ZM208.295 81.7373C205.958 81.1973 204.621 78.6923 205.197 76.2157C205.773 73.7391 208.079 72.0761 210.416 72.6161C212.753 73.1561 214.09 75.6611 213.515 78.1377C212.939 80.6143 210.632 82.2773 208.295 81.7373Z" fill="#081B33"/>
<path d="M209.514 77.5716C210.003 77.5716 210.399 77.1762 210.399 76.6885C210.399 76.2008 210.003 75.8054 209.514 75.8054C209.024 75.8054 208.628 76.2008 208.628 76.6885C208.628 77.1762 209.024 77.5716 209.514 77.5716Z" fill="#30242A"/>
<path fill-rule="evenodd" clip-rule="evenodd" d="M215.422 77.8968C214.933 79.9998 216.084 81.9817 217.881 82.397C219.679 82.8123 221.587 81.5374 222.076 79.4344C222.565 77.3314 221.414 75.3495 219.617 74.9342C217.819 74.5189 215.911 75.7939 215.422 77.8968ZM217.689 83.2262C215.352 82.6862 214.014 80.1812 214.59 77.7046C215.166 75.228 217.472 73.565 219.809 74.105C222.146 74.645 223.484 77.15 222.908 79.6266C222.332 82.1032 220.026 83.7662 217.689 83.2262Z" fill="#081B33"/>
<path fill-rule="evenodd" clip-rule="evenodd" d="M212.897 77.6561C212.93 77.4234 213.146 77.2617 213.38 77.295L214.874 77.5078C215.107 77.541 215.27 77.7566 215.236 77.9893C215.203 78.222 214.987 78.3836 214.753 78.3504L213.259 78.1376C213.026 78.1044 212.863 77.8888 212.897 77.6561Z" fill="#081B33"/>
<path fill-rule="evenodd" clip-rule="evenodd" d="M170.729 74.463C170.88 74.2832 171.15 74.2602 171.33 74.4116L171.055 74.7372L170.78 75.0627C170.6 74.9113 170.577 74.6428 170.729 74.463ZM175.844 79.2892L176.055 79.0725L175.92 78.8027C175.84 78.6448 175.699 78.464 175.545 78.2871C175.384 78.1019 175.183 77.8911 174.959 77.668C174.511 77.2214 173.958 76.7103 173.422 76.2296C172.885 75.7481 172.363 75.2938 171.974 74.9601C171.78 74.7932 171.619 74.6562 171.507 74.561C171.451 74.5133 171.407 74.4761 171.377 74.4507L171.33 74.4118C171.33 74.4118 171.33 74.4116 171.055 74.7372C170.78 75.0627 170.78 75.0627 170.78 75.0627L170.825 75.1005C170.855 75.1254 170.898 75.1621 170.954 75.2093C171.065 75.3035 171.224 75.4392 171.417 75.6048C171.802 75.9361 172.32 76.3861 172.851 76.8623C173.382 77.3391 173.923 77.8387 174.355 78.2699C174.572 78.4857 174.757 78.6806 174.9 78.8445C174.936 78.886 174.968 78.9239 174.996 78.9584C174.977 78.9802 174.957 79.0033 174.937 79.0278C174.759 79.2385 174.513 79.5469 174.234 79.9423C173.679 80.7324 172.992 81.8754 172.469 83.2878C171.42 86.123 171.036 90.0413 173.68 94.3246C173.804 94.5247 174.066 94.5871 174.267 94.464C174.468 94.3408 174.531 94.0786 174.407 93.8785C171.928 89.8627 172.291 86.2268 173.27 83.5825C173.761 82.2551 174.409 81.1772 174.933 80.4311C175.196 80.0585 175.426 79.77 175.59 79.576C175.672 79.479 175.737 79.4057 175.781 79.3575C175.803 79.3333 175.82 79.3155 175.83 79.304C175.836 79.2983 175.84 79.2942 175.842 79.2917L175.844 79.2892Z" fill="#30242A"/>
<path d="M192.791 52.6933C193.281 51.8941 193.029 50.8499 192.227 50.361C191.426 49.8721 190.378 50.1236 189.888 50.9228L157.554 103.612C157.063 104.411 157.316 105.455 158.117 105.944C158.919 106.433 159.966 106.182 160.457 105.382L192.791 52.6933Z" fill="#30242A"/>
<path d="M195.729 39.0025L199.404 36.0702C199.704 35.8304 200.07 35.6881 200.454 35.6624C200.837 35.6367 201.22 35.7289 201.549 35.9265C201.878 36.1241 202.139 36.4177 202.295 36.7676C202.452 37.1175 202.497 37.5069 202.425 37.8832L201.543 42.4987C201.474 42.8623 201.514 43.2383 201.659 43.5792C201.803 43.9201 202.046 44.2105 202.357 44.4139L206.288 46.993C206.61 47.2031 206.859 47.5064 207.002 47.862C207.145 48.2177 207.175 48.6085 207.088 48.9817C207.001 49.3549 206.802 49.6927 206.516 49.9493C206.231 50.2059 205.874 50.3691 205.492 50.4168L200.832 51.0105C200.464 51.057 200.117 51.2114 199.836 51.4542C199.556 51.697 199.353 52.0172 199.255 52.3745L198.01 56.8986C197.908 57.2676 197.695 57.5967 197.4 57.8415C197.105 58.0864 196.742 58.2353 196.359 58.2682C195.977 58.3011 195.593 58.2164 195.26 58.0256C194.927 57.8348 194.661 57.5469 194.497 57.2007L192.493 52.9448C192.333 52.6113 192.078 52.3324 191.76 52.143C191.441 51.9537 191.074 51.8625 190.704 51.8809L186.008 52.0937C185.621 52.1178 185.237 52.0223 184.907 51.8202C184.577 51.6182 184.318 51.3195 184.165 50.965C184.012 50.6104 183.972 50.2174 184.052 49.8397C184.132 49.462 184.326 49.1181 184.609 48.8549L188.04 45.6417C188.311 45.388 188.5 45.0599 188.584 44.699C188.668 44.3381 188.643 43.9604 188.512 43.6138L186.851 39.2238C186.715 38.8649 186.692 38.4729 186.786 38.1009C186.881 37.7288 187.087 37.3946 187.378 37.1433C187.669 36.892 188.03 36.7358 188.413 36.6957C188.796 36.6556 189.182 36.7337 189.519 36.9192L193.645 39.1813C193.971 39.3601 194.343 39.4385 194.714 39.4067C195.085 39.3749 195.438 39.2342 195.729 39.0025V39.0025Z" fill="#3EC1F3"/>
<path d="M173.724 73.5668C172.23 72.29 169.359 71.4623 167.961 72.29C165.6 73.6881 166.18 76.4033 166.18 76.4033C166.18 76.4033 162.338 75.8075 162.385 79.7315C162.385 79.7315 159.292 81.0806 160.645 84.164C160.645 84.164 157.969 84.8385 159.241 88.1241C160.276 90.8032 162.665 92.2055 164.118 92.9311C165.399 93.5695 167.363 92.6481 166.68 90.1648C166.68 90.1648 168.174 90.5904 169.028 89.7392C170.206 88.5646 169.668 86.3345 169.668 86.3345C169.668 86.3345 171.163 86.7601 172.23 85.9089C173.532 84.8705 172.87 82.9298 172.87 82.9298C173.347 82.8656 173.798 82.6733 174.174 82.3734C174.55 82.0736 174.837 81.6774 175.005 81.2274C175.859 79.0995 172.657 76.5459 172.657 76.5459L173.724 73.5668Z" fill="#A15842"/>
<path fill-rule="evenodd" clip-rule="evenodd" d="M160.218 83.9568C160.4 83.8073 160.669 83.8333 160.819 84.0147C162.683 86.2699 164.737 88.362 166.958 90.2678C167.137 90.4211 167.157 90.6898 167.004 90.868C166.85 91.0462 166.58 91.0663 166.401 90.913C164.143 88.9755 162.055 86.8486 160.16 84.5559C160.01 84.3745 160.036 84.1062 160.218 83.9568Z" fill="#30242A"/>
<path fill-rule="evenodd" clip-rule="evenodd" d="M162.141 79.3829C162.323 79.2341 162.592 79.2609 162.741 79.4429C164.921 82.0998 167.409 84.49 170.153 86.5635C170.341 86.7055 170.377 86.9725 170.235 87.1598C170.093 87.3471 169.825 87.3838 169.637 87.2418C166.839 85.1277 164.303 82.6907 162.08 79.9818C161.931 79.7998 161.958 79.5317 162.141 79.3829Z" fill="#30242A"/>
<path fill-rule="evenodd" clip-rule="evenodd" d="M165.567 76.2435C165.754 76.1011 166.022 76.1374 166.165 76.3244C168.154 78.9305 170.549 81.2028 173.258 83.0555C173.453 83.1885 173.502 83.4534 173.369 83.6472C173.235 83.8411 172.969 83.8904 172.775 83.7574C169.991 81.8534 167.53 79.5181 165.485 76.8399C165.343 76.6528 165.379 76.3858 165.567 76.2435Z" fill="#30242A"/>
<path fill-rule="evenodd" clip-rule="evenodd" d="M170.729 74.463C170.88 74.2832 171.15 74.2602 171.33 74.4116L171.055 74.7372L170.78 75.0627C170.6 74.9113 170.577 74.6428 170.729 74.463ZM171.055 74.7372L170.78 75.0627L170.802 75.0814C170.817 75.0939 170.839 75.1124 170.868 75.1364C170.924 75.1845 171.007 75.2548 171.111 75.3432C171.319 75.5201 171.609 75.7695 171.941 76.0594C172.607 76.6402 173.435 77.3791 174.096 78.0211C174.265 78.1851 174.535 78.1816 174.699 78.0133C174.864 77.845 174.86 77.5755 174.692 77.4115C174.014 76.7533 173.173 76.0026 172.504 75.4189C172.169 75.1265 171.875 74.8749 171.666 74.6964C171.561 74.6071 171.478 74.5361 171.42 74.4873C171.391 74.4629 171.369 74.444 171.353 74.4312L171.33 74.4116C171.33 74.4116 171.33 74.4116 171.055 74.7372Z" fill="#30242A"/>
<path d="M221.208 55.6324L220.081 56.8688L219.332 57.6902C218.856 59.35 222.32 61.995 227.138 63.6335C231.956 65.272 236.317 65.2869 236.957 63.6825L236.868 62.5759L236.733 60.9097C234.923 61.3353 231.787 60.9927 228.427 59.8458C225.068 58.6988 222.376 57.0794 221.208 55.6324Z" fill="#FFBE21"/>
<path d="M229.729 56.0623C227.21 55.2111 225.063 54.0748 223.654 52.9512L221.207 55.6324C222.375 57.0794 225.073 58.7094 228.431 59.8522C231.789 60.9949 234.927 61.3417 236.737 60.9161L236.444 57.2986C234.64 57.3305 232.248 56.9177 229.729 56.0623Z" fill="#FF7235"/>
<path d="M226.271 50.0827L223.654 52.9512C225.063 54.0748 227.21 55.2068 229.729 56.0623C232.248 56.9177 234.639 57.339 236.445 57.3007L236.131 53.4343C232.646 53.0146 229.287 51.873 226.271 50.0827V50.0827Z" fill="#FFBE21"/>
<path d="M232.322 48.4825C231.182 48.0983 230.071 47.634 228.997 47.093L226.271 50.0721C229.287 51.8624 232.645 53.004 236.13 53.4236L235.804 49.3976C234.623 49.1738 233.46 48.8681 232.322 48.4825V48.4825Z" fill="#FF7235"/>
<path d="M235.804 49.4082L235.076 40.4282L228.997 47.093C230.071 47.6339 231.183 48.0983 232.323 48.4825C233.46 48.8716 234.624 49.1809 235.804 49.4082V49.4082Z" fill="#FFBE21"/>
<path d="M235.589 42.2072C237.404 42.2072 238.876 40.74 238.876 38.9301C238.876 37.1203 237.404 35.6531 235.589 35.6531C233.773 35.6531 232.302 37.1203 232.302 38.9301C232.302 40.74 233.773 42.2072 235.589 42.2072Z" fill="#FF7235"/>
</svg>
