<svg width="260" height="190" viewBox="0 0 260 190" fill="none" xmlns="http://www.w3.org/2000/svg">
<path d="M88.6943 6.4502H92.8759C102.382 6.4502 111.498 10.2263 118.22 16.9479C124.941 23.6694 128.717 32.7858 128.717 42.2915V113.006H52.853V42.2915C52.853 32.7858 56.6291 23.6694 63.3507 16.9479C70.0722 10.2263 79.1886 6.4502 88.6943 6.4502V6.4502Z" fill="#FFB7D5"/>
<path d="M104.578 70.9018V114.114H70.877V70.9018H104.578ZM105.451 70.0293H70.0045V114.986H105.451V70.0293Z" fill="#CA7358"/>
<path d="M105.451 70.0293H70.0045V79.3239H105.451V70.0293Z" fill="#CA7358"/>
<path d="M69.8347 47.5594V114.33H49.5331V47.5594H69.8347ZM70.7072 46.6869H48.6606V115.202H70.7072V46.6869Z" fill="#CA7358"/>
<path d="M132.406 34.0505V114.105H105.622V34.0505H132.406M133.279 33.1779H104.749V114.978H133.279V33.1779Z" fill="#CA7358"/>
<path d="M116.264 44.0933H116.681C117.629 44.0933 118.537 44.4697 119.208 45.1398C119.878 45.8099 120.254 46.7187 120.254 47.6663V55.9793H112.691V47.6663C112.691 46.7187 113.068 45.8099 113.738 45.1398C114.408 44.4697 115.317 44.0933 116.264 44.0933V44.0933Z" fill="#CA7358"/>
<path fill-rule="evenodd" clip-rule="evenodd" d="M111.391 50.5762C111.391 50.3352 111.586 50.1399 111.827 50.1399H121.12C121.361 50.1399 121.556 50.3352 121.556 50.5762C121.556 50.8171 121.361 51.0125 121.12 51.0125H111.827C111.586 51.0125 111.391 50.8171 111.391 50.5762Z" fill="#FFB7D5"/>
<path d="M116.264 65.4179H116.681C117.629 65.4179 118.537 65.7944 119.208 66.4645C119.878 67.1345 120.254 68.0433 120.254 68.9909V77.3083H112.691V68.9931C112.691 68.0455 113.068 67.1367 113.738 66.4666C114.408 65.7966 115.317 65.4201 116.264 65.4201V65.4179Z" fill="#F5EBDD"/>
<path fill-rule="evenodd" clip-rule="evenodd" d="M111.391 71.903C111.391 71.6621 111.586 71.4667 111.827 71.4667H121.12C121.361 71.4667 121.556 71.6621 121.556 71.903C121.556 72.1439 121.361 72.3393 121.12 72.3393H111.827C111.586 72.3393 111.391 72.1439 111.391 71.903Z" fill="#FFB7D5"/>
<path d="M116.264 86.7448H116.681C117.629 86.7448 118.537 87.1212 119.208 87.7913C119.878 88.4613 120.254 89.3701 120.254 90.3178V98.6308H112.691V90.3178C112.691 89.3701 113.068 88.4613 113.738 87.7913C114.408 87.1212 115.317 86.7448 116.264 86.7448V86.7448Z" fill="#F5EBDD"/>
<path fill-rule="evenodd" clip-rule="evenodd" d="M111.391 93.2276C111.391 92.9867 111.586 92.7914 111.827 92.7914H121.12C121.361 92.7914 121.556 92.9867 121.556 93.2276C121.556 93.4686 121.361 93.6639 121.12 93.6639H111.827C111.586 93.6639 111.391 93.4686 111.391 93.2276Z" fill="#FFB7D5"/>
<path d="M116.264 108.065H116.681C117.629 108.065 118.537 108.441 119.208 109.112C119.878 109.782 120.254 110.69 120.254 111.638V119.273H112.691V111.638C112.691 110.69 113.068 109.782 113.738 109.112C114.408 108.441 115.317 108.065 116.264 108.065V108.065Z" fill="#30242A"/>
<path d="M55.1868 61.7621H55.6034C56.551 61.7621 57.4598 62.1385 58.1299 62.8086C58.8 63.4786 59.1764 64.3874 59.1764 65.3351V73.6481H51.6138V65.3351C51.6138 64.3874 51.9902 63.4786 52.6603 62.8086C53.3303 62.1385 54.2392 61.7621 55.1868 61.7621V61.7621Z" fill="#F5EBDD"/>
<path fill-rule="evenodd" clip-rule="evenodd" d="M50.314 68.2449C50.314 68.004 50.5093 67.8087 50.7502 67.8087H60.0427C60.2836 67.8087 60.4789 68.004 60.4789 68.2449C60.4789 68.4859 60.2836 68.6812 60.0427 68.6812H50.7502C50.5093 68.6812 50.314 68.4859 50.314 68.2449Z" fill="#FFB7D5"/>
<path d="M55.1868 83.0867H55.6034C56.551 83.0867 57.4598 83.4631 58.1299 84.1332C58.8 84.8033 59.1764 85.7121 59.1764 86.6597V94.9771H51.6138V86.6619C51.6135 86.1925 51.7057 85.7276 51.8851 85.2939C52.0646 84.8601 52.3277 84.466 52.6595 84.134C52.9913 83.8019 53.3853 83.5386 53.8189 83.3589C54.2526 83.1792 54.7174 83.0867 55.1868 83.0867V83.0867Z" fill="#F5EBDD"/>
<path fill-rule="evenodd" clip-rule="evenodd" d="M50.314 89.5717C50.314 89.3308 50.5093 89.1355 50.7502 89.1355H60.0427C60.2836 89.1355 60.4789 89.3308 60.4789 89.5717C60.4789 89.8127 60.2836 90.008 60.0427 90.008H50.7502C50.5093 90.008 50.314 89.8127 50.314 89.5717Z" fill="#FFB7D5"/>
<path d="M55.1868 104.413H55.6034C56.551 104.413 57.4598 104.79 58.1299 105.46C58.8 106.13 59.1764 107.039 59.1764 107.986V116.3H51.6138V107.986C51.6138 107.039 51.9902 106.13 52.6603 105.46C53.3303 104.79 54.2392 104.413 55.1868 104.413V104.413Z" fill="#CA7358"/>
<path fill-rule="evenodd" clip-rule="evenodd" d="M50.314 110.896C50.314 110.655 50.5093 110.46 50.7502 110.46H60.0427C60.2836 110.46 60.4789 110.655 60.4789 110.896C60.4789 111.137 60.2836 111.333 60.0427 111.333H50.7502C50.5093 111.333 50.314 111.137 50.314 110.896Z" fill="#FFB7D5"/>
<path d="M133.279 33.1779H104.749V36.7444H133.279V33.1779Z" fill="#CA7358"/>
<path d="M70.7072 44.9571H48.6606V48.5236H70.7072V44.9571Z" fill="#CA7358"/>
<path d="M83.9457 87.7525H76.3809V97.479H83.9457V87.7525Z" fill="#F5EBDD"/>
<path fill-rule="evenodd" clip-rule="evenodd" d="M75.0789 92.0759C75.0789 91.835 75.2742 91.6396 75.5151 91.6396H84.8097C85.0507 91.6396 85.246 91.835 85.246 92.0759C85.246 92.3169 85.0507 92.5122 84.8097 92.5122H75.5151C75.2742 92.5122 75.0789 92.3169 75.0789 92.0759Z" fill="#FFB7D5"/>
<path fill-rule="evenodd" clip-rule="evenodd" d="M80.1634 91.6396C80.4044 91.6396 80.5997 91.835 80.5997 92.0759V97.911C80.5997 98.1519 80.4044 98.3472 80.1634 98.3472C79.9225 98.3472 79.7272 98.1519 79.7272 97.911V92.0759C79.7272 91.835 79.9225 91.6396 80.1634 91.6396Z" fill="#FFB7D5"/>
<path d="M83.9457 105.319H76.3809V115.045H83.9457V105.319Z" fill="#CA7358"/>
<path fill-rule="evenodd" clip-rule="evenodd" d="M75.0789 109.64C75.0789 109.399 75.2742 109.204 75.5151 109.204H84.8097C85.0507 109.204 85.246 109.399 85.246 109.64C85.246 109.881 85.0507 110.076 84.8097 110.076H75.5151C75.2742 110.076 75.0789 109.881 75.0789 109.64Z" fill="#FFB7D5"/>
<path fill-rule="evenodd" clip-rule="evenodd" d="M80.1634 109.204C80.4044 109.204 80.5997 109.399 80.5997 109.64V115.477C80.5997 115.718 80.4044 115.913 80.1634 115.913C79.9225 115.913 79.7272 115.718 79.7272 115.477V109.64C79.7272 109.399 79.9225 109.204 80.1634 109.204Z" fill="#FFB7D5"/>
<path d="M98.2091 87.7525H90.6442V97.479H98.2091V87.7525Z" fill="#30242A"/>
<path fill-rule="evenodd" clip-rule="evenodd" d="M89.3444 92.0759C89.3444 91.835 89.5397 91.6396 89.7807 91.6396H99.0753C99.3163 91.6396 99.5116 91.835 99.5116 92.0759C99.5116 92.3169 99.3163 92.5122 99.0753 92.5122H89.7807C89.5397 92.5122 89.3444 92.3169 89.3444 92.0759Z" fill="#FFB7D5"/>
<path fill-rule="evenodd" clip-rule="evenodd" d="M94.4268 91.6396C94.6677 91.6396 94.8631 91.835 94.8631 92.0759V97.911C94.8631 98.1519 94.6677 98.3472 94.4268 98.3472C94.1859 98.3472 93.9905 98.1519 93.9905 97.911V92.0759C93.9905 91.835 94.1859 91.6396 94.4268 91.6396Z" fill="#FFB7D5"/>
<path d="M98.2091 105.319H90.6442V115.045H98.2091V105.319Z" fill="#F5EBDD"/>
<path fill-rule="evenodd" clip-rule="evenodd" d="M89.3444 109.64C89.3444 109.399 89.5397 109.204 89.7807 109.204H99.0753C99.3163 109.204 99.5116 109.399 99.5116 109.64C99.5116 109.881 99.3163 110.076 99.0753 110.076H89.7807C89.5397 110.076 89.3444 109.881 89.3444 109.64Z" fill="#FFB7D5"/>
<path fill-rule="evenodd" clip-rule="evenodd" d="M94.4268 109.204C94.6677 109.204 94.8631 109.399 94.8631 109.64V115.477C94.8631 115.718 94.6677 115.913 94.4268 115.913C94.1859 115.913 93.9905 115.718 93.9905 115.477V109.64C93.9905 109.399 94.1859 109.204 94.4268 109.204Z" fill="#FFB7D5"/>
<path d="M75.0286 32.8529C78.1319 32.8529 80.6477 30.3372 80.6477 27.2338C80.6477 24.1305 78.1319 21.6147 75.0286 21.6147C71.9252 21.6147 69.4095 24.1305 69.4095 27.2338C69.4095 30.3372 71.9252 32.8529 75.0286 32.8529Z" fill="#F5EBDD"/>
<path d="M138.444 113.041H43.1266V119.526H138.444V113.041Z" fill="#F5EBDD"/>
<path d="M92.2909 0H89.2785C65.5872 0 46.3697 19.2131 46.3697 42.911V119.526H135.202V42.911C135.202 19.2131 115.989 0 92.2909 0ZM87.5422 113.041H52.8591V59.007H87.5422V113.041ZM87.5422 52.5219H52.8591V43.1313C52.8591 33.752 56.4553 24.7296 62.9074 17.922C69.3595 11.1144 78.1763 7.0399 87.5422 6.53743V52.5219ZM128.717 113.041H94.0338V59.007H128.717V113.041ZM128.717 52.5219H94.0338V6.53743C103.4 7.0399 112.216 11.1144 118.669 17.922C125.121 24.7296 128.717 33.752 128.717 43.1313V52.5219Z" fill="#F5EBDD"/>
<path d="M113.609 107.345C113.609 107.345 98.6323 71.3969 97.9779 62.026C95.7791 30.4862 129.995 48.4538 135.346 51.5556C139.242 53.8155 154.52 62.3641 157.57 65.4114C159.533 67.3746 158.167 68.8295 158.167 68.8295C158.167 68.8295 160.46 71.8398 157.236 72.1975C159.528 75.2077 155.872 75.6156 155.872 75.6156C155.872 75.6156 156.852 78.5539 153.054 77.6704C148.962 76.7172 117.935 63.2868 117.935 63.2868C117.935 63.2868 124.867 85.172 127.031 92.0955L113.609 107.345Z" fill="#A15842"/>
<path fill-rule="evenodd" clip-rule="evenodd" d="M140.409 58.9623C140.574 58.7873 140.85 58.7798 141.025 58.9455C143.107 60.9166 143.621 63.1884 143.611 64.9563C143.606 65.837 143.472 66.594 143.338 67.1315C143.287 67.3373 143.236 67.5117 143.193 67.6494C143.326 67.7308 143.495 67.8374 143.692 67.9664C144.179 68.2852 144.834 68.743 145.506 69.2981C146.177 69.852 146.873 70.5105 147.436 71.2321C147.995 71.9501 148.444 72.7588 148.577 73.6113C148.663 74.1586 148.565 74.6297 148.267 74.9881C147.98 75.3336 147.561 75.5086 147.14 75.592C146.904 75.6389 146.674 75.4853 146.628 75.2489C146.581 75.0126 146.734 74.783 146.971 74.7361C147.287 74.6734 147.486 74.5627 147.596 74.4304C147.695 74.3113 147.773 74.1129 147.715 73.7465L147.715 73.7459C147.614 73.0977 147.26 72.4263 146.747 71.7684C146.238 71.1142 145.592 70.501 144.951 69.9708C144.31 69.4417 143.682 69.003 143.214 68.6963C142.98 68.5432 142.787 68.4235 142.653 68.3425C142.586 68.302 142.534 68.2712 142.499 68.2508C142.481 68.2405 142.468 68.2329 142.46 68.2279L142.45 68.2225L142.448 68.2213L142.448 68.2211L142.111 68.0309L142.259 67.6746L142.26 67.674L142.26 67.6736L142.263 67.6663C142.265 67.6591 142.27 67.6475 142.276 67.6316C142.288 67.5998 142.306 67.5509 142.328 67.4862C142.372 67.3567 142.431 67.1648 142.491 66.9218C142.612 66.4349 142.734 65.7481 142.738 64.9514C142.747 63.3644 142.292 61.3467 140.425 59.579C140.25 59.4133 140.243 59.1372 140.409 58.9623Z" fill="#30242A"/>
<path fill-rule="evenodd" clip-rule="evenodd" d="M145.474 69.5465C145.585 69.3321 145.847 69.2475 146.062 69.3576C147.64 70.1675 154.252 74.0358 156.043 75.0843C156.251 75.206 156.321 75.4733 156.199 75.6812C156.077 75.8891 155.81 75.959 155.602 75.8373C153.794 74.7785 147.213 70.9293 145.663 70.1338C145.449 70.0238 145.364 69.7608 145.474 69.5465Z" fill="#30242A"/>
<path fill-rule="evenodd" clip-rule="evenodd" d="M146.911 65.9483C147.023 65.7349 147.287 65.6526 147.5 65.7644C149.182 66.6459 152.624 68.745 155.209 70.3217C156.127 70.8812 156.936 71.3749 157.521 71.725C157.728 71.8488 157.795 72.1168 157.671 72.3235C157.547 72.5302 157.279 72.5974 157.073 72.4736C156.472 72.1138 155.648 71.6112 154.719 71.0447C152.138 69.471 148.749 67.4042 147.095 66.5373C146.882 66.4254 146.799 66.1618 146.911 65.9483Z" fill="#30242A"/>
<path fill-rule="evenodd" clip-rule="evenodd" d="M147.425 61.7835C147.534 61.5684 147.797 61.4821 148.012 61.5908C150.156 62.6741 155.531 66.1758 158.356 68.0493C158.557 68.1825 158.612 68.4532 158.479 68.654C158.346 68.8548 158.075 68.9097 157.874 68.7765C155.028 66.8894 149.705 63.4239 147.618 62.3696C147.403 62.2609 147.317 61.9985 147.425 61.7835Z" fill="#30242A"/>
<path fill-rule="evenodd" clip-rule="evenodd" d="M147.732 60.4664C147.973 60.4703 148.165 60.6687 148.161 60.9096C148.09 65.3508 146.769 68.1347 145.991 69.5423C145.874 69.7532 145.609 69.8296 145.398 69.7131C145.187 69.5965 145.111 69.3311 145.227 69.1202C145.959 67.7968 147.221 65.1536 147.289 60.8956C147.293 60.6547 147.491 60.4625 147.732 60.4664Z" fill="#30242A"/>
<path fill-rule="evenodd" clip-rule="evenodd" d="M112.346 61.2958C112.446 61.0765 112.705 60.9794 112.924 61.0791L118.033 63.4C118.252 63.4997 118.349 63.7583 118.249 63.9777C118.15 64.197 117.891 64.2941 117.672 64.1944L112.563 61.8735C112.344 61.7738 112.247 61.5152 112.346 61.2958Z" fill="#30242A"/>
<path d="M40.0157 165.8V170.004H76.3588V165.8H40.0157Z" fill="#A15842"/>
<path d="M82.3446 187.607L73.3423 133.587H78.8567C79.4468 133.587 80.0127 133.352 80.43 132.935C80.8472 132.518 81.0816 131.952 81.0816 131.362C81.0816 130.771 80.8472 130.206 80.43 129.788C80.0127 129.371 79.4468 129.137 78.8567 129.137H37.5707C36.9806 129.137 36.4147 129.371 35.9975 129.788C35.5802 130.206 35.3458 130.771 35.3458 131.362C35.3458 131.952 35.5802 132.518 35.9975 132.935C36.4147 133.352 36.9806 133.587 37.5707 133.587H43.0241L34.0217 187.603C33.976 187.871 33.9893 188.145 34.0608 188.408C34.1322 188.67 34.2601 188.913 34.4354 189.121C34.6107 189.329 34.8293 189.496 35.0758 189.61C35.3224 189.725 35.5909 189.784 35.8628 189.784V189.784C36.2891 189.784 36.7026 189.638 37.0347 189.371C37.3668 189.103 37.5975 188.73 37.6885 188.314L49.6226 133.587H66.7525L78.6756 188.312C78.7659 188.728 78.996 189.101 79.3278 189.369C79.6596 189.636 80.073 189.782 80.4992 189.782V189.782C80.7708 189.782 81.0392 189.724 81.2857 189.61C81.5322 189.496 81.7509 189.33 81.9266 189.123C82.1023 188.916 82.2307 188.673 82.3029 188.411C82.3751 188.149 82.3893 187.875 82.3446 187.607V187.607Z" fill="#FFBE21"/>
<path d="M78.8567 133.587C79.4468 133.587 80.0127 133.352 80.4299 132.935C80.8472 132.518 81.0816 131.952 81.0816 131.362C81.0816 130.771 80.8472 130.206 80.4299 129.788C80.0127 129.371 79.4468 129.137 78.8567 129.137H37.5707C36.9806 129.137 36.4147 129.371 35.9974 129.788C35.5802 130.206 35.3458 130.771 35.3458 131.362C35.3458 131.952 35.5802 132.518 35.9974 132.935C36.4147 133.352 36.9806 133.587 37.5707 133.587H43.024L43.0131 133.654H49.5985L49.6138 133.587H66.7438L66.759 133.654H73.3532L73.3423 133.587H78.8567Z" fill="#A15842"/>
<path d="M61.6481 185.886H10.3695L0.699675 156.128C-0.0179807 153.921 1.19047 152.132 3.39579 152.132H46.6842C48.8917 152.132 51.265 153.921 51.9783 156.128L61.6481 185.886Z" fill="#FFB7D5"/>
<path d="M93.9447 185.886H43.5234C43.6684 186.333 43.7054 186.808 43.6316 187.272C43.5577 187.736 43.375 188.177 43.0984 188.557C42.8218 188.937 42.4591 189.246 42.0401 189.459C41.6212 189.672 41.1577 189.782 40.6877 189.782H91.109C91.5792 189.783 92.0429 189.672 92.4621 189.46C92.8814 189.247 93.2442 188.938 93.5209 188.557C93.7976 188.177 93.9803 187.737 94.054 187.273C94.1276 186.808 94.0902 186.333 93.9447 185.886Z" fill="#FFB7D5"/>
<path d="M43.5232 185.886H10.4194L10.8055 187.077C11.0607 187.863 11.5583 188.548 12.2268 189.034C12.8953 189.52 13.7004 189.782 14.5269 189.782H40.7028C41.1715 189.78 41.6331 189.667 42.0502 189.453C42.4672 189.24 42.8278 188.93 43.1027 188.55C43.3776 188.171 43.5589 187.732 43.632 187.269C43.705 186.806 43.6678 186.332 43.5232 185.886Z" fill="#CA7358"/>
<path d="M58.1534 185.886H14.3066L5.15594 157.758H49.0028L58.1534 185.886Z" fill="#F5EBDD"/>
<path d="M41.7504 180.302H28.2436C26.7429 180.302 25.133 179.085 24.6444 177.586L21.3877 167.552C20.9013 166.053 21.7215 164.836 23.2222 164.836H36.729C38.2275 164.836 39.8374 166.053 40.326 167.552L43.5827 177.586C44.0691 179.085 43.249 180.302 41.7504 180.302Z" fill="#3EC1F3"/>
<path fill-rule="evenodd" clip-rule="evenodd" d="M10.1817 185.454C10.1817 185.213 10.377 185.018 10.618 185.018H61.2247C61.4657 185.018 61.661 185.213 61.661 185.454C61.661 185.695 61.4657 185.89 61.2247 185.89H10.618C10.377 185.89 10.1817 185.695 10.1817 185.454Z" fill="#CA7358"/>
<path fill-rule="evenodd" clip-rule="evenodd" d="M40.5434 166.754C40.7193 166.918 40.7284 167.194 40.5637 167.37L35.2369 173.059L35.2354 173.061C34.0004 174.366 31.779 174.277 29.943 173.131L29.9414 173.13L21.1463 167.585C20.9425 167.457 20.8814 167.187 21.0099 166.983C21.1384 166.78 21.4078 166.718 21.6116 166.847L30.4051 172.391C30.4053 172.391 30.4056 172.391 30.4059 172.391C32.0637 173.426 33.7721 173.337 34.6008 172.462C34.601 172.462 34.6013 172.461 34.6015 172.461L39.9268 166.774C40.0915 166.598 40.3675 166.589 40.5434 166.754Z" fill="#F5EBDD"/>
<path fill-rule="evenodd" clip-rule="evenodd" d="M34.7582 172.363C34.8867 172.159 35.1561 172.098 35.3599 172.226L43.7581 177.52C43.9619 177.649 44.0229 177.918 43.8945 178.122C43.766 178.326 43.4966 178.387 43.2928 178.258L34.8947 172.964C34.6908 172.836 34.6298 172.566 34.7582 172.363Z" fill="#F5EBDD"/>
<path fill-rule="evenodd" clip-rule="evenodd" d="M30.0985 172.336C30.2744 172.5 30.2835 172.776 30.1189 172.952L25.0975 178.316C24.9328 178.492 24.6567 178.501 24.4808 178.336C24.3049 178.172 24.2958 177.896 24.4605 177.72L29.4819 172.356C29.6466 172.18 29.9226 172.171 30.0985 172.336Z" fill="#F5EBDD"/>
<path d="M40.7618 168.741C39.0822 168.741 37.2717 167.367 36.7177 165.687C36.4603 164.893 36.5279 164.16 36.9096 163.639C37.2608 163.159 37.8519 162.893 38.5761 162.893C40.2558 162.893 42.0663 164.267 42.6181 165.957C42.8777 166.751 42.8101 167.484 42.4262 168.003C42.0772 168.475 41.486 168.741 40.7618 168.741Z" fill="#4756DF"/>
<path d="M38.5761 163.318C40.0551 163.318 41.7172 164.583 42.2037 166.08C42.4218 166.734 42.3716 167.327 42.075 167.737C41.9174 167.929 41.7165 168.08 41.489 168.179C41.2614 168.277 41.0137 168.32 40.7662 168.304C39.285 168.304 37.6251 167.039 37.1386 165.541C36.9205 164.886 36.9707 164.295 37.2673 163.885C37.5334 163.519 37.9981 163.318 38.5761 163.318ZM38.5761 162.445C36.7176 162.445 35.6989 163.953 36.3032 165.811C36.9074 167.67 38.9033 169.177 40.7618 169.177C42.6203 169.177 43.639 167.67 43.0347 165.811C42.4305 163.953 40.4346 162.445 38.5761 162.445Z" fill="#F5EBDD"/>
<path d="M218.082 87.6566H218.027C217.639 88.3589 215.081 92.654 210.585 92.654C206.089 92.654 203.53 88.3589 203.14 87.6566H203.088L196.09 119.244H225.08L218.082 87.6566Z" fill="#3EC1F3"/>
<path fill-rule="evenodd" clip-rule="evenodd" d="M198.971 104.414C198.996 104.174 199.211 104 199.451 104.025C202.51 104.346 206.371 105.863 209.868 108.398C213.368 110.936 216.539 114.519 218.177 119.003C218.26 119.229 218.144 119.48 217.917 119.562C217.691 119.645 217.441 119.529 217.358 119.302C215.792 115.018 212.75 111.565 209.355 109.104C205.956 106.64 202.238 105.195 199.36 104.893C199.12 104.868 198.946 104.653 198.971 104.414Z" fill="#F5EBDD"/>
<path fill-rule="evenodd" clip-rule="evenodd" d="M220.176 96.6149C220.258 96.8414 220.141 97.0916 219.914 97.1737C214.937 98.9782 211.043 102.775 208.306 107.028C205.567 111.283 204.013 115.954 203.688 119.448C203.665 119.688 203.453 119.865 203.213 119.842C202.973 119.82 202.796 119.607 202.819 119.367C203.159 115.718 204.767 110.914 207.572 106.556C210.378 102.196 214.408 98.2419 219.617 96.3534C219.844 96.2713 220.094 96.3884 220.176 96.6149Z" fill="#F5EBDD"/>
<path fill-rule="evenodd" clip-rule="evenodd" d="M210.778 90.01C210.953 90.1758 210.96 90.452 210.794 90.6268C208.262 93.2965 205.064 95.7888 201.436 97.465C201.217 97.5661 200.958 97.4707 200.857 97.252C200.756 97.0333 200.851 96.774 201.07 96.673C204.58 95.051 207.69 92.6309 210.161 90.0262C210.327 89.8514 210.603 89.8442 210.778 90.01Z" fill="#F5EBDD"/>
<path d="M210.585 92.654C215.08 92.654 217.639 88.3589 218.027 87.6566H203.14C203.53 88.3589 206.087 92.654 210.585 92.654Z" fill="#30242A"/>
<path d="M169.737 189.782C169.434 189.782 169.135 189.71 168.865 189.572C168.595 189.434 168.361 189.234 168.184 188.988C168.006 188.743 167.889 188.458 167.842 188.159C167.796 187.859 167.821 187.553 167.916 187.265L173.932 168.959C174.059 168.577 174.304 168.245 174.631 168.01C174.958 167.775 175.351 167.649 175.753 167.65H179.963C180.298 167.65 180.626 167.737 180.917 167.903C181.207 168.069 181.449 168.308 181.618 168.597C181.788 168.885 181.879 169.213 181.882 169.547C181.886 169.882 181.802 170.211 181.638 170.503L171.412 188.809C171.244 189.105 171.001 189.351 170.706 189.522C170.412 189.693 170.078 189.783 169.737 189.782V189.782Z" fill="#A15842"/>
<path d="M250.222 189.782C250.525 189.782 250.824 189.71 251.094 189.572C251.364 189.434 251.598 189.234 251.775 188.988C251.953 188.743 252.07 188.458 252.117 188.159C252.163 187.859 252.138 187.553 252.043 187.265L246.027 168.959C245.899 168.577 245.655 168.245 245.328 168.01C245.001 167.775 244.608 167.649 244.206 167.65H239.993C239.659 167.65 239.331 167.738 239.041 167.904C238.751 168.07 238.509 168.309 238.34 168.598C238.171 168.886 238.08 169.214 238.077 169.548C238.073 169.882 238.157 170.211 238.32 170.503L248.546 188.809C248.714 189.105 248.958 189.351 249.252 189.522C249.547 189.693 249.881 189.783 250.222 189.782Z" fill="#A15842"/>
<path d="M259.507 118.887H160.789V175.4H259.507V118.887Z" fill="#FFB7D5"/>
<path d="M252.078 126.17V168.113H168.219V126.17H252.078ZM252.95 125.297H167.346V168.985H252.95V125.297Z" fill="#CA7358"/>
<path fill-rule="evenodd" clip-rule="evenodd" d="M209.621 169.068V125.219H210.493V169.068H209.621Z" fill="#CA7358"/>
<path d="M219.977 149.685C221.381 149.685 222.518 148.547 222.518 147.143C222.518 145.74 221.381 144.602 219.977 144.602C218.574 144.602 217.436 145.74 217.436 147.143C217.436 148.547 218.574 149.685 219.977 149.685Z" fill="#30242A"/>
<path d="M200.32 149.685C201.723 149.685 202.861 148.547 202.861 147.143C202.861 145.74 201.723 144.602 200.32 144.602C198.916 144.602 197.778 145.74 197.778 147.143C197.778 148.547 198.916 149.685 200.32 149.685Z" fill="#30242A"/>
<path d="M64.6103 102.001C66.3037 102.001 67.9277 102.674 69.125 103.871C70.3224 105.068 70.9951 106.692 70.9951 108.386V129.198H58.2256V108.386C58.2256 106.692 58.8983 105.068 60.0956 103.871C61.293 102.674 62.917 102.001 64.6103 102.001Z" fill="#4756DF"/>
<path d="M70.9972 110.157H58.2256V122.056H70.9972V110.157Z" fill="#3EC1F3"/>
<path d="M67.448 98.6897H61.7722V102.71H67.448V98.6897Z" fill="#30242A"/>
<path d="M142.711 64.9359C147.072 64.9359 150.607 61.4005 150.607 57.0395C150.607 52.6784 147.072 49.1431 142.711 49.1431C138.349 49.1431 134.814 52.6784 134.814 57.0395C134.814 61.4005 138.349 64.9359 142.711 64.9359Z" fill="#30242A"/>
<path d="M136.579 61.9213C137.209 62.207 131.863 49.7059 129.184 51.6865C126.665 53.5428 133.39 60.4707 136.579 61.9213Z" fill="#FFBE21"/>
<path d="M135.901 61.8973C136.424 62.5517 149.043 58.4072 147.357 55.8375C145.738 53.3727 135.377 61.2472 135.901 61.8973Z" fill="#FFBE21"/>
<path d="M151.366 52.8208C154.174 52.8208 156.451 50.5443 156.451 47.7361C156.451 44.9279 154.174 42.6514 151.366 42.6514C148.558 42.6514 146.281 44.9279 146.281 47.7361C146.281 50.5443 148.558 52.8208 151.366 52.8208Z" fill="#30242A"/>
<path d="M116.64 137.853H142.604L143.974 131.362H112.689L116.64 137.853Z" fill="#CA7358"/>
<path d="M116.412 116.433C116.412 116.433 121.715 109.509 131.666 108.859L138.273 94.6651C136.509 94.3837 135.237 94.2049 135.237 94.2049C135.499 93.5723 136.389 91.4782 137.464 88.8955C135.518 87.602 132.34 85.0586 131.605 81.8498C133.939 81.4987 138.585 79.2955 136.751 75.4411C134.504 70.7142 128.558 74.3505 128.558 74.3505C126.753 72.3027 125.6 69.7629 125.247 67.0561C124.525 67.1303 122.457 66.91 120.989 66.116L120.89 66.0592C120.105 67.6016 119.4 69.1837 118.779 70.7993C118.615 71.2137 118.458 71.6151 118.292 71.9968C118.292 71.9968 116.24 71.6478 115.819 72.4963C115.298 73.5434 116.859 74.8958 116.859 74.8958C115.612 77.2429 114.506 79.1646 114.907 81.599C115.26 83.7476 117.287 86.3586 122.062 86.7949L119.662 94.3663L110.719 109.895C112.473 110.923 114.829 112.879 116.412 116.433Z" fill="#CA7358"/>
<path d="M179.601 86.0336C176.785 82.5195 166.731 68.1708 163.374 65.479C161.21 63.7471 159.912 65.2609 159.912 65.2609C159.912 65.2609 156.666 63.313 156.666 66.5588C153.421 64.6109 153.421 68.2886 153.421 68.2886C153.421 68.2886 150.391 67.6342 151.691 71.3184C153.089 75.2797 168.784 103.873 168.784 103.873C168.784 103.873 152.555 97.815 146.281 96.2008C145.129 95.9041 143.718 95.6118 142.294 95.3457C141.375 97.4965 139.94 101.017 137.626 106.907C134.485 114.879 136.012 122.85 145.101 126.013L146.713 118.378C146.713 118.378 163.509 124.691 172.889 124.436C204.699 123.572 183.497 90.9002 179.601 86.0336Z" fill="#CA7358"/>
<path d="M125.246 67.0561C125.598 69.7708 126.755 72.3181 128.566 74.3701C128.566 74.3701 134.513 70.7229 136.759 75.4608C138.594 79.3152 133.948 81.5183 131.614 81.8695C132.349 85.0782 135.527 87.6217 137.473 88.9152C139.069 85.0782 141.072 80.1593 142.014 77.3542C143.408 73.1965 144.128 66.7529 137.87 62.098C132.013 57.7506 125.301 60.6343 123.787 62.1481C122.888 63.0468 122.042 63.8932 120.899 66.0745L120.997 66.1312C122.457 66.9012 124.524 67.1216 125.246 67.0561Z" fill="#30242A"/>
<path d="M137.626 106.913C139.94 101.037 141.375 97.5074 142.294 95.3522C140.889 95.0883 139.473 94.8505 138.282 94.6608L131.682 108.859C121.73 109.513 116.428 116.433 116.428 116.433C114.835 112.879 112.479 110.923 110.737 109.889L108.743 113.35C107.725 115.173 107.209 117.234 107.247 119.322C107.285 121.409 107.877 123.45 108.961 125.234L112.687 131.357H143.973L145.101 126.015C136.012 122.857 134.485 114.886 137.626 106.913Z" fill="#FFBE21"/>
<path fill-rule="evenodd" clip-rule="evenodd" d="M126.625 86.5247C126.693 86.7557 126.561 86.9985 126.33 87.067C124.989 87.4649 123.598 87.6708 122.199 87.6783C121.959 87.6796 121.762 87.4854 121.761 87.2444C121.76 87.0035 121.954 86.8071 122.195 86.8058C123.511 86.7987 124.82 86.605 126.082 86.2305C126.313 86.162 126.556 86.2937 126.625 86.5247Z" fill="#30242A"/>
<path fill-rule="evenodd" clip-rule="evenodd" d="M154.732 75.4462C154.619 75.5264 154.527 75.6588 154.466 75.8692C154.4 76.1007 154.158 76.2345 153.927 76.168C153.695 76.1014 153.561 75.8597 153.628 75.6282C153.727 75.2845 153.91 74.9599 154.226 74.7352C154.543 74.5098 154.942 74.4216 155.4 74.454L155.4 74.4541C156.261 74.516 157.104 74.8961 157.866 75.3938C158.632 75.894 159.346 76.5331 159.954 77.155C160.563 77.7782 161.074 78.3929 161.432 78.8512C161.577 79.0369 161.698 79.1974 161.79 79.323C161.923 79.268 162.093 79.2029 162.294 79.1351C162.819 78.9582 163.562 78.762 164.439 78.684C166.2 78.5274 168.507 78.8485 170.645 80.7518C170.825 80.912 170.841 81.1878 170.681 81.3677C170.52 81.5477 170.245 81.5637 170.065 81.4035C168.147 79.6967 166.098 79.4125 164.517 79.5531C163.723 79.6237 163.048 79.8017 162.573 79.9619C162.336 80.0419 162.149 80.117 162.024 80.1713C161.961 80.1984 161.914 80.2203 161.883 80.2349C161.868 80.2422 161.857 80.2477 161.85 80.2511L161.843 80.2546L161.842 80.2548L161.842 80.255L161.842 80.2551L161.499 80.4316L161.282 80.1128L161.282 80.1124L161.28 80.1104L161.274 80.1014C161.269 80.0932 161.26 80.0807 161.248 80.0641C161.225 80.0309 161.19 79.9814 161.144 79.918C161.052 79.7912 160.917 79.6087 160.745 79.3886C160.4 78.9476 159.91 78.3588 159.33 77.7648C158.748 77.1695 158.083 76.5778 157.389 76.1243C156.691 75.6683 155.992 75.3716 155.338 75.3244C155.026 75.3023 154.843 75.3668 154.732 75.4462Z" fill="#30242A"/>
<path fill-rule="evenodd" clip-rule="evenodd" d="M153.628 67.8024C153.831 67.6733 154.101 67.7336 154.23 67.937C155.922 70.6041 159.069 75.5727 159.849 76.8221C159.976 77.0265 159.914 77.2957 159.71 77.4232C159.505 77.5508 159.236 77.4885 159.108 77.2841C158.331 76.0381 155.186 71.0729 153.493 68.4045C153.364 68.2011 153.424 67.9315 153.628 67.8024Z" fill="#30242A"/>
<path fill-rule="evenodd" clip-rule="evenodd" d="M156.74 65.9579C156.939 65.8225 157.211 65.8744 157.346 66.0737C157.87 66.845 158.514 67.7837 159.191 68.7692C160.758 71.0526 162.499 73.5874 163.311 74.8745C163.44 75.0782 163.379 75.3476 163.175 75.4763C162.972 75.6049 162.702 75.544 162.574 75.3403C161.77 74.068 160.05 71.5622 158.487 69.2863C157.807 68.2949 157.156 67.3471 156.624 66.5639C156.489 66.3646 156.541 66.0933 156.74 65.9579Z" fill="#30242A"/>
<path fill-rule="evenodd" clip-rule="evenodd" d="M160.132 64.9677C160.322 64.819 160.596 64.8523 160.744 65.0419C162.918 67.8149 166.28 72.1585 167.424 74.0266C167.55 74.232 167.485 74.5006 167.28 74.6265C167.074 74.7523 166.806 74.6878 166.68 74.4824C165.569 72.6683 162.247 68.3739 160.058 65.5801C159.909 65.3905 159.942 65.1163 160.132 64.9677Z" fill="#30242A"/>
<path fill-rule="evenodd" clip-rule="evenodd" d="M168.568 74.1981C168.592 74.4378 168.417 74.6516 168.177 74.6755C163.94 75.0983 161.423 76.5702 160.154 77.4161C159.954 77.5498 159.683 77.4956 159.549 77.2951C159.415 77.0947 159.47 76.8238 159.67 76.6901C161.019 75.791 163.671 74.2483 168.09 73.8073C168.33 73.7834 168.544 73.9583 168.568 74.1981Z" fill="#30242A"/>
<path fill-rule="evenodd" clip-rule="evenodd" d="M130.919 93.2302C130.948 92.991 131.165 92.8203 131.405 92.849L135.239 93.3093C135.479 93.338 135.649 93.5552 135.62 93.7944C135.592 94.0337 135.375 94.2043 135.135 94.1756L131.301 93.7153C131.061 93.6866 130.891 93.4694 130.919 93.2302Z" fill="#30242A"/>
<path fill-rule="evenodd" clip-rule="evenodd" d="M121.204 134.867C121.419 134.759 121.681 134.847 121.789 135.062L122.005 135.494C122.113 135.71 122.026 135.972 121.81 136.08C121.594 136.187 121.332 136.1 121.225 135.884L121.009 135.453C120.901 135.237 120.988 134.975 121.204 134.867Z" fill="#30242A"/>
<path fill-rule="evenodd" clip-rule="evenodd" d="M143.927 117.787C144.015 117.563 144.269 117.452 144.493 117.54L146.659 118.391C146.883 118.479 146.994 118.732 146.905 118.957C146.817 119.181 146.564 119.291 146.34 119.203L144.174 118.352C143.95 118.264 143.839 118.011 143.927 117.787Z" fill="#30242A"/>
<path fill-rule="evenodd" clip-rule="evenodd" d="M168.434 103.305C168.522 103.081 168.776 102.97 169 103.059L173.919 104.991C174.143 105.079 174.253 105.333 174.165 105.557C174.077 105.781 173.824 105.891 173.6 105.803L168.681 103.871C168.457 103.783 168.346 103.529 168.434 103.305Z" fill="#30242A"/>
<path fill-rule="evenodd" clip-rule="evenodd" d="M112.253 131.362C112.253 131.121 112.448 130.925 112.689 130.925H143.974C144.214 130.925 144.41 131.121 144.41 131.362C144.41 131.603 144.214 131.798 143.974 131.798H112.689C112.448 131.798 112.253 131.603 112.253 131.362Z" fill="#30242A"/>
<path fill-rule="evenodd" clip-rule="evenodd" d="M131.53 108.461C131.75 108.559 131.849 108.817 131.75 109.037L128.589 116.096L128.589 116.096C128.081 117.23 127.255 118.193 126.212 118.868C125.169 119.543 123.952 119.903 122.71 119.903H107.222C106.981 119.903 106.786 119.708 106.786 119.467C106.786 119.226 106.981 119.031 107.222 119.031H122.71C122.71 119.031 122.71 119.031 122.71 119.031C123.784 119.03 124.836 118.72 125.737 118.136C126.639 117.552 127.353 116.72 127.793 115.739M127.793 115.739L130.954 108.681C131.052 108.461 131.31 108.362 131.53 108.461" fill="#30242A"/>
<path fill-rule="evenodd" clip-rule="evenodd" d="M120.998 76.84C121.191 76.9834 121.232 77.2566 121.089 77.4502C120.576 78.1422 119.84 78.3396 119.216 78.3247C118.906 78.3173 118.613 78.2581 118.369 78.1769C118.133 78.0984 117.91 77.9885 117.758 77.8573C117.575 77.7002 117.554 77.4248 117.711 77.2421C117.868 77.0594 118.144 77.0386 118.327 77.1957C118.36 77.2248 118.466 77.2897 118.645 77.349C118.815 77.4056 119.021 77.4473 119.237 77.4524C119.666 77.4627 120.091 77.3317 120.388 76.9309C120.531 76.7373 120.804 76.6966 120.998 76.84Z" fill="#30242A"/>
<path fill-rule="evenodd" clip-rule="evenodd" d="M133.818 76.6904C133.905 76.915 133.794 77.1677 133.569 77.2549L130.829 78.3172C130.605 78.4043 130.352 78.2928 130.265 78.0681C130.178 77.8435 130.289 77.5907 130.514 77.5036L133.254 76.4413C133.478 76.3542 133.731 76.4657 133.818 76.6904Z" fill="#A15842"/>
<path fill-rule="evenodd" clip-rule="evenodd" d="M121.185 70.8893C121.422 70.846 121.65 71.003 121.693 71.2401C121.721 71.3929 121.78 71.5384 121.866 71.6676C121.952 71.7968 122.064 71.9069 122.195 71.9911C122.326 72.0753 122.472 72.1318 122.625 72.1571C122.779 72.1825 122.935 72.1762 123.086 72.1385C123.32 72.0801 123.557 72.2223 123.615 72.456C123.674 72.6898 123.531 72.9266 123.298 72.985C123.031 73.0516 122.754 73.0628 122.483 73.018C122.212 72.9731 121.953 72.8732 121.722 72.7244C121.491 72.5755 121.293 72.3809 121.141 72.1526C120.988 71.9242 120.884 71.667 120.835 71.3968C120.791 71.1598 120.948 70.9325 121.185 70.8893Z" fill="#30242A"/>
<path d="M130.552 80.7112L129.561 84.7576C129.508 84.9669 129.51 85.1864 129.567 85.3948C129.624 85.6031 129.733 85.7933 129.885 85.9468C130.037 86.1004 130.226 86.2122 130.434 86.2713C130.641 86.3305 130.861 86.335 131.071 86.2845L134.768 85.412C134.977 85.3613 135.169 85.2579 135.326 85.1116C135.484 84.9654 135.601 84.7812 135.666 84.5767C135.732 84.3722 135.744 84.1543 135.701 83.9438C135.659 83.7333 135.563 83.5373 135.423 83.3746L132.715 80.2095C132.566 80.0362 132.372 79.907 132.155 79.8359C131.937 79.7648 131.705 79.7546 131.482 79.8062C131.259 79.8579 131.055 79.9695 130.891 80.129C130.727 80.2886 130.609 80.4899 130.552 80.7112V80.7112Z" fill="#F4E6D8"/>
<path fill-rule="evenodd" clip-rule="evenodd" d="M128.916 162.393C129.104 162.242 129.379 162.273 129.529 162.461L129.189 162.733L128.848 163.006C128.698 162.818 128.728 162.543 128.916 162.393ZM129.189 162.733C128.848 163.006 128.848 163.006 128.848 163.006L129.176 163.415C129.386 163.677 129.689 164.055 130.058 164.516C130.798 165.438 131.807 166.694 132.883 168.031C135.035 170.705 137.46 173.707 138.545 175.01C138.699 175.195 138.974 175.22 139.159 175.066C139.345 174.912 139.37 174.637 139.216 174.451C138.136 173.156 135.716 170.16 133.563 167.484C132.487 166.147 131.478 164.891 130.739 163.97C130.369 163.509 130.067 163.132 129.857 162.869L129.529 162.461C129.529 162.461 129.529 162.461 129.189 162.733Z" fill="#30242A"/>
<path d="M197.34 153.655C196.546 151.508 195.088 147.911 193.291 143.592L173.999 149.222L171.788 149.92C172.782 156.353 173.546 159.49 173.546 159.49C173.546 159.49 152.775 140.449 142.606 137.853H116.631L107.759 189.782H185.218C207.297 189.782 201.022 163.602 197.34 153.655Z" fill="#4856DF"/>
<path d="M176.336 104.027C176.084 103.429 175.634 102.937 175.06 102.633C174.487 102.33 173.826 102.234 173.19 102.363C169.345 103.222 169.046 110.504 168.134 114.701C166.62 121.626 163.374 124.222 163.158 128.766C162.94 133.128 169.866 134.823 169.866 134.823C170.101 137.108 170.341 139.229 170.584 141.186L189.862 135.423C184.575 122.959 178.312 108.56 176.336 104.027Z" fill="#A15842"/>
<path d="M171.776 149.87V149.92L173.988 149.222L171.776 149.87Z" fill="#A15842"/>
<path d="M193.295 143.586C193.239 143.453 193.184 143.317 193.127 143.182L173.999 149.222L193.295 143.586Z" fill="#3EC1F3"/>
<path d="M193.127 143.184C192.122 140.772 191.014 138.143 189.855 135.425L170.577 141.188C170.989 144.556 171.397 147.447 171.77 149.872L173.991 149.218L193.127 143.184Z" fill="#3EC1F3"/>
<path fill-rule="evenodd" clip-rule="evenodd" d="M134.378 137.47C134.552 137.304 134.828 137.31 134.994 137.485C138.449 141.108 149.105 152.1 160.282 161.721C165.872 166.532 171.579 170.989 176.573 174.009C179.07 175.519 181.374 176.661 183.385 177.311C185.406 177.965 187.074 178.103 188.334 177.683L188.334 177.683C190.069 177.104 190.842 175.221 190.845 172.309C190.848 169.435 190.093 165.785 189.037 162.073C187.984 158.368 186.641 154.634 185.489 151.602C184.985 150.278 184.514 149.079 184.121 148.076C183.62 146.8 183.243 145.842 183.082 145.343C183.007 145.114 183.133 144.868 183.362 144.794C183.591 144.719 183.837 144.845 183.912 145.074C184.067 145.552 184.426 146.466 184.912 147.705C185.306 148.707 185.783 149.923 186.304 151.292C187.46 154.333 188.813 158.094 189.876 161.834C190.938 165.567 191.72 169.311 191.717 172.31C191.714 175.269 190.936 177.735 188.61 178.51C187.09 179.017 185.208 178.818 183.117 178.142C181.017 177.463 178.648 176.284 176.121 174.756C171.066 171.698 165.316 167.205 159.713 162.382C148.503 152.733 137.823 141.716 134.363 138.087C134.197 137.912 134.203 137.636 134.378 137.47Z" fill="#3EC1F3"/>
<path fill-rule="evenodd" clip-rule="evenodd" d="M173.259 158.65C173.419 158.47 173.695 158.454 173.875 158.614C176.253 160.731 180.728 164.738 183.234 166.985C183.414 167.146 183.429 167.422 183.268 167.601C183.107 167.78 182.831 167.795 182.652 167.635C180.145 165.388 175.672 161.381 173.295 159.266C173.115 159.106 173.099 158.83 173.259 158.65Z" fill="#30242A"/>
<path fill-rule="evenodd" clip-rule="evenodd" d="M168.959 129.413C169.199 129.391 169.411 129.567 169.434 129.807L169.857 134.329C169.88 134.569 169.703 134.782 169.463 134.804C169.223 134.826 169.011 134.65 168.988 134.41L168.565 129.888C168.543 129.648 168.719 129.436 168.959 129.413Z" fill="#30242A"/>
<path fill-rule="evenodd" clip-rule="evenodd" d="M174.289 102.336C174.516 102.255 174.766 102.373 174.847 102.6L175.667 104.899C175.748 105.126 175.629 105.376 175.402 105.457C175.176 105.538 174.926 105.42 174.845 105.193L174.025 102.894C173.944 102.667 174.062 102.417 174.289 102.336Z" fill="#30242A"/>
<path fill-rule="evenodd" clip-rule="evenodd" d="M172.308 102.561C172.531 102.47 172.786 102.578 172.876 102.801L174.203 106.062C174.293 106.285 174.186 106.54 173.963 106.63C173.74 106.721 173.485 106.614 173.394 106.391L172.068 103.129C171.977 102.906 172.085 102.652 172.308 102.561Z" fill="#30242A"/>
<path d="M122.199 166.708L122.077 166.671L126.59 137.81H116.63C116.63 137.81 76.8277 153 67.7403 167.495C59.1503 181.196 74.8798 189.782 79.4235 189.782H119.052L122.199 166.708Z" fill="#4856DF"/>
<path d="M164.022 189.782C169.216 189.782 167.486 183.938 163.804 181.992C160.122 180.047 155.798 178.096 151.255 172.039C146.711 165.981 141.301 167.495 137.839 171.821C137.839 171.821 135.2 170.872 131.322 169.585L128.285 189.78L164.022 189.782Z" fill="#CA7358"/>
<path d="M122.579 166.821L122.2 166.708L119.052 189.782H128.288L131.324 169.578C128.803 168.752 125.76 167.772 122.579 166.821Z" fill="#3EC1F3"/>
<path fill-rule="evenodd" clip-rule="evenodd" d="M161.27 187.175C161.395 186.969 161.663 186.904 161.869 187.029L165.065 188.973C165.271 189.098 165.336 189.366 165.211 189.572C165.086 189.778 164.817 189.844 164.611 189.718L161.416 187.775C161.21 187.65 161.145 187.381 161.27 187.175Z" fill="#30242A"/>
<path fill-rule="evenodd" clip-rule="evenodd" d="M100.416 161.572C100.461 161.335 100.689 161.18 100.926 161.225C110.034 162.959 113.982 164.07 122.216 166.691C122.446 166.764 122.573 167.01 122.5 167.239C122.427 167.469 122.181 167.596 121.952 167.523C113.743 164.909 109.829 163.808 100.763 162.082C100.526 162.037 100.371 161.809 100.416 161.572Z" fill="#30242A"/>
<path fill-rule="evenodd" clip-rule="evenodd" d="M158.669 188.265C158.79 188.057 159.057 187.986 159.265 188.106L161.13 189.186C161.339 189.307 161.41 189.574 161.289 189.782C161.169 189.991 160.902 190.062 160.693 189.941L158.828 188.861C158.62 188.741 158.548 188.474 158.669 188.265Z" fill="#30242A"/>
<path fill-rule="evenodd" clip-rule="evenodd" d="M137.868 171.399C137.952 171.174 138.204 171.059 138.429 171.144L141.457 172.281C141.683 172.365 141.797 172.617 141.712 172.842C141.628 173.068 141.376 173.182 141.15 173.097L138.123 171.961C137.897 171.876 137.783 171.625 137.868 171.399Z" fill="#30242A"/>
<path fill-rule="evenodd" clip-rule="evenodd" d="M219.27 70.2642C219.452 70.4231 219.469 70.6988 219.31 70.8799C216.797 73.7433 215.007 77.849 213.786 81.6128C212.568 85.3673 211.931 88.7356 211.702 90.0896C211.662 90.3271 211.436 90.4871 211.199 90.4469C210.961 90.4067 210.801 90.1815 210.842 89.9439C211.075 88.5669 211.72 85.1534 212.956 81.3436C214.189 77.5431 216.023 73.302 218.655 70.3042C218.814 70.1231 219.089 70.1052 219.27 70.2642Z" fill="#30242A"/>
<path d="M222.149 80.0405C226.641 78.0981 229.929 75.7042 229.492 74.6935C229.055 73.6828 225.059 74.4381 220.566 76.3804C216.073 78.3228 212.785 80.7167 213.222 81.7274C213.659 82.7381 217.656 81.9829 222.149 80.0405Z" fill="#30242A"/>
<path d="M222.596 51.767C224.221 49.6002 224.925 47.3843 224.169 46.8177C223.414 46.2512 221.484 47.5484 219.86 49.7153C218.235 51.8821 217.531 54.098 218.286 54.6645C219.042 55.2311 220.972 53.9338 222.596 51.767Z" fill="#30242A"/>
<path d="M231.368 66.3755C231.052 65.346 229.002 65.0144 226.406 65.4485C228.306 62.8811 229.091 60.3747 228.151 59.5829C227.211 58.7911 224.879 59.9864 222.663 62.2877C222.663 59.6571 221.984 57.6895 220.918 57.5521C219.557 57.3754 218.065 60.2438 217.585 63.9565C217.443 65.0169 217.403 66.0885 217.467 67.1565C218.095 66.9598 218.762 66.923 219.408 67.0494C220.054 67.1759 220.658 67.4616 221.165 67.8806C221.672 68.2996 222.067 68.8387 222.314 69.449C222.56 70.0592 222.65 70.7213 222.575 71.3751C223.605 71.2562 224.622 71.0423 225.612 70.736C229.187 69.641 231.765 67.6887 231.368 66.3755Z" fill="#FFBE21"/>
<path d="M221.192 67.9068C220.684 67.4775 220.076 67.1836 219.424 67.0524C218.771 66.9212 218.097 66.957 217.462 67.1564C217.578 68.9255 218.016 70.2823 218.686 70.7883C219.308 71.3751 220.76 71.578 222.571 71.3751C222.644 70.7282 222.557 70.0731 222.316 69.4681C222.076 68.8631 221.69 68.3268 221.192 67.9068V67.9068Z" fill="#30242A"/>
<path fill-rule="evenodd" clip-rule="evenodd" d="M205.264 61.9491C205.489 61.8644 205.741 61.9786 205.825 62.2041C207.533 66.7489 208.607 72.8437 209.274 78.1673C209.942 83.4989 210.205 88.0917 210.281 89.6488C210.293 89.8894 210.107 90.094 209.866 90.1057C209.626 90.1173 209.421 89.9317 209.409 89.6911C209.334 88.1463 209.072 83.5775 208.408 78.2757C207.743 72.9659 206.678 66.9555 205.009 62.511C204.924 62.2854 205.038 62.0339 205.264 61.9491Z" fill="#30242A"/>
<path d="M198.709 80.9398C204.511 79.8341 209.057 78.1068 208.861 77.082C208.666 76.0572 203.804 76.1228 198.002 77.2286C192.2 78.3344 187.654 80.0616 187.849 81.0864C188.045 82.1113 192.907 82.0456 198.709 80.9398Z" fill="#30242A"/>
<path d="M207.893 49.4135C206.842 49.1823 205.548 50.8096 204.652 53.2832C203.343 50.369 201.545 48.4559 200.398 48.8835C199.251 49.311 199.139 51.9373 200.062 54.9912C197.765 53.7086 195.723 53.3268 195.08 54.1906C194.258 55.2813 196.024 57.9971 199.026 60.2373C199.881 60.8805 200.796 61.4408 201.757 61.9104C201.893 61.2665 202.188 60.667 202.615 60.166C203.042 59.6651 203.587 59.2787 204.201 59.0419C204.815 58.8051 205.479 58.7254 206.132 58.8099C206.784 58.8945 207.405 59.1407 207.939 59.5262C208.339 58.5699 208.651 57.5791 208.87 56.5661C209.671 52.9102 209.235 49.708 207.893 49.4135Z" fill="#FFBE21"/>
<path d="M204.241 59.0288C203.618 59.2608 203.063 59.6469 202.628 60.1511C202.194 60.6553 201.894 61.2613 201.757 61.9125C203.356 62.6782 204.752 62.9618 205.522 62.628C206.338 62.3706 207.228 61.2036 207.939 59.5284C207.411 59.1469 206.798 58.9018 206.153 58.8146C205.508 58.7275 204.851 58.8011 204.241 59.0288Z" fill="#30242A"/>
<path d="M194.175 65.6252V65.6382C195.037 66.1254 195.685 66.9183 195.99 67.8602C196.296 68.8021 196.237 69.8244 195.826 70.7251C195.413 71.6244 194.679 72.3366 193.767 72.7214C192.855 73.1061 191.833 73.1356 190.9 72.8039V72.8192C195.782 75.0507 200.474 75.247 201.371 73.2554C202.267 71.2639 199.056 67.8545 194.175 65.6252Z" fill="#FFBE21"/>
<path d="M194.567 72.2629C194.146 72.0271 193.829 71.6412 193.68 71.1822C193.53 70.7231 193.559 70.2246 193.761 69.786C193.963 69.3474 194.322 69.0009 194.768 68.8156C195.214 68.6302 195.713 68.6196 196.166 68.7859C196.117 68.1375 195.909 67.5113 195.56 66.9623C195.212 66.4134 194.734 65.9586 194.168 65.6382L190.896 72.8039C191.505 73.0215 192.159 73.0859 192.799 72.9916C193.439 72.8973 194.046 72.647 194.567 72.2629Z" fill="#F5EBDD"/>
<path d="M193.76 69.7915C193.56 70.2296 193.532 70.7268 193.682 71.1846C193.831 71.6424 194.147 72.0273 194.567 72.2629C195.107 71.8666 195.537 71.3395 195.816 70.7312C196.096 70.1229 196.216 69.4535 196.166 68.7859C195.712 68.6203 195.212 68.6318 194.766 68.8182C194.321 69.0045 193.961 69.3521 193.76 69.7915Z" fill="#30242A"/>
</svg>
