<svg width="38" height="38" viewBox="0 0 38 38" fill="none" xmlns="http://www.w3.org/2000/svg">
<path fill-rule="evenodd" clip-rule="evenodd" d="M3.5625 21.375C3.5625 14.1608 9.41078 8.3125 16.625 8.3125C17.2808 8.3125 17.8125 8.84416 17.8125 9.5V20.1875H28.5C29.1558 20.1875 29.6875 20.7192 29.6875 21.375C29.6875 28.5892 23.8392 34.4375 16.625 34.4375C9.41078 34.4375 3.5625 28.5892 3.5625 21.375Z" fill="#081B33"/>
<path fill-rule="evenodd" clip-rule="evenodd" d="M20.1875 4.75C20.1875 4.09416 20.7192 3.5625 21.375 3.5625C28.5892 3.5625 34.4375 9.41078 34.4375 16.625C34.4375 17.2808 33.9058 17.8125 33.25 17.8125H21.375C20.7192 17.8125 20.1875 17.2808 20.1875 16.625V4.75Z" fill="#081B33"/>
</svg>
