<svg width="38" height="38" viewBox="0 0 38 38" fill="none" xmlns="http://www.w3.org/2000/svg">
<path fill-rule="evenodd" clip-rule="evenodd" d="M3.5625 19C3.5625 10.4741 10.4741 3.5625 19 3.5625C27.5259 3.5625 34.4375 10.4741 34.4375 19C34.4375 27.5259 27.5259 34.4375 19 34.4375C10.4741 34.4375 3.5625 27.5259 3.5625 19ZM24.7163 16.1277C25.0975 15.594 24.9739 14.8524 24.4402 14.4712C23.9065 14.09 23.1649 14.2136 22.7837 14.7473L17.661 21.9191L15.0897 19.3478C14.6259 18.8841 13.8741 18.8841 13.4103 19.3478C12.9466 19.8116 12.9466 20.5634 13.4103 21.0272L16.9728 24.5897C17.2196 24.8365 17.5626 24.9622 17.9104 24.9335C18.2583 24.9047 18.5759 24.7243 18.7788 24.4402L24.7163 16.1277Z" fill="#0F172A"/>
</svg>
