<svg width="38" height="38" viewBox="0 0 38 38" fill="none" xmlns="http://www.w3.org/2000/svg">
<path d="M16.5674 13.8482C16.9271 13.5625 17.3545 13.3546 17.8125 13.2248V17.6501C17.3457 17.5176 16.9195 17.3065 16.5674 17.0267C15.944 16.5315 15.7027 15.9488 15.7027 15.4375C15.7027 14.9262 15.944 14.3435 16.5674 13.8482Z" fill="#0F172A"/>
<path d="M20.1875 24.7976V20.3274C20.7373 20.4611 21.2385 20.6875 21.6463 20.9934C22.3215 21.4998 22.5625 22.0793 22.5625 22.5625C22.5625 23.0456 22.3215 23.6251 21.6463 24.1315C21.2385 24.4374 20.7373 24.6639 20.1875 24.7976Z" fill="#0F172A"/>
<path fill-rule="evenodd" clip-rule="evenodd" d="M19 3.5625C10.4741 3.5625 3.5625 10.4741 3.5625 19C3.5625 27.5259 10.4741 34.4375 19 34.4375C27.5259 34.4375 34.4375 27.5259 34.4375 19C34.4375 10.4741 27.5259 3.5625 19 3.5625ZM20.1875 9.5C20.1875 8.84416 19.6558 8.3125 19 8.3125C18.3442 8.3125 17.8125 8.84416 17.8125 9.5V10.7914C16.8199 10.9673 15.8734 11.3663 15.0901 11.9886C13.9622 12.8846 13.3277 14.1254 13.3277 15.4375C13.3277 16.7496 13.9622 17.9904 15.0901 18.8864C15.8856 19.5184 16.8351 19.9104 17.8125 20.0835V24.7975C17.2628 24.6638 16.7618 24.4373 16.3541 24.1315L14.9625 23.0878C14.4379 22.6943 13.6935 22.8006 13.3 23.3253C12.9065 23.85 13.0128 24.5943 13.5375 24.9878L14.929 26.0315C15.7733 26.6647 16.7801 27.0521 17.8125 27.218V28.5C17.8125 29.1558 18.3442 29.6875 19 29.6875C19.6558 29.6875 20.1875 29.1558 20.1875 28.5V27.2181C21.2201 27.0522 22.227 26.6648 23.0713 26.0315C24.251 25.1467 24.9375 23.9028 24.9375 22.5625C24.9375 21.2221 24.251 19.9782 23.0713 19.0934C22.227 18.4601 21.2201 18.0727 20.1875 17.9068V13.2249C20.6454 13.3548 21.0726 13.5626 21.4322 13.8482L22.0891 14.3701C22.6026 14.778 23.3496 14.6925 23.7576 14.1789C24.1655 13.6654 24.0799 12.9184 23.5664 12.5105L22.9095 11.9886C22.1262 11.3664 21.1799 10.9674 20.1875 10.7915V9.5Z" fill="#0F172A"/>
</svg>
