<svg width="42" height="42" viewBox="0 0 42 42" fill="none" xmlns="http://www.w3.org/2000/svg">
<rect x="0.5" y="0.5" width="41" height="41" rx="20.5" fill="white"/>
<g clip-path="url(#clip0_967_3945)">
<path d="M33.1081 20.6604C33.1081 19.2233 32.8832 17.8421 32.4743 16.5496C32.677 16.6078 32.8792 16.6422 33.0788 16.6422C33.4314 16.6422 33.7746 16.5401 34.092 16.2968C35.7355 15.0351 34.8109 11.152 33.9501 9.35421C33.4468 8.30232 32.6565 7.59158 31.6004 7.24097C29.1775 6.43573 26.0025 7.86097 24.8697 8.43842C23.6537 8.00045 22.353 7.7589 20.9996 7.7589C19.6462 7.7589 18.3459 8.00046 17.1295 8.43842C15.9972 7.86103 12.8218 6.43573 10.3992 7.24097C9.34341 7.5916 8.55306 8.30232 8.04982 9.35421C7.18937 11.1523 6.2644 15.0352 7.90787 16.2968C8.22503 16.5403 8.56812 16.6422 8.92113 16.6422C9.12069 16.6422 9.32283 16.6071 9.52557 16.5496C9.11674 17.8415 8.89183 19.2229 8.89183 20.6604C8.89183 20.7701 8.89322 20.8802 8.89579 20.9893C7.95597 22.3285 7.46161 23.8261 7.46161 25.3422C7.46161 30.6675 13.535 35.0002 21.0001 35.0002C28.4652 35.0002 34.5386 30.6679 34.5386 25.3422C34.5386 23.8266 34.0437 22.3287 33.1044 20.9893C33.1062 20.8802 33.108 20.7705 33.108 20.6604H33.1081ZM20.9998 27.3989C19.6694 27.3989 18.5869 26.3588 18.5869 25.0806C18.5869 24.4426 18.6845 24.161 20.9998 24.161C23.3152 24.161 23.4128 24.443 23.4128 25.0806C23.4128 26.3586 22.3303 27.3989 20.9998 27.3989ZM23.1632 16.2993C23.1632 14.0764 23.5376 12.0136 23.8381 10.3559C23.8549 10.2622 23.8696 10.1791 23.886 10.0888C24.0297 10.1337 24.1721 10.1814 24.3131 10.2325C24.4607 10.359 24.6435 10.4276 24.831 10.4367C26.5645 11.1772 28.067 12.4031 29.1903 13.9573C29.2307 14.0423 29.2798 14.1235 29.3456 14.195C29.3584 14.2087 29.3739 14.2258 29.3877 14.2404C30.6105 16.0494 31.3337 18.2662 31.3337 20.6602C31.3337 20.8572 31.3284 21.0528 31.3187 21.2475C31.3072 21.4815 31.3773 21.7117 31.5161 21.8931C32.2615 22.8703 32.6731 23.9091 32.7485 24.9841C32.2496 25.0885 31.7403 25.1449 31.227 25.1449C26.5057 25.1453 23.1633 24.5107 23.1633 16.2991L23.1632 16.2993ZM31.0748 9.04673C31.6646 9.24335 32.0881 9.62477 32.3695 10.213C33.2764 12.1089 33.3819 14.4302 33.0812 14.7504C33.0776 14.7519 32.4475 14.8194 30.7379 13.0043C29.7561 11.5904 28.5094 10.3986 27.0771 9.5092C28.3449 9.03685 29.9264 8.66345 31.0749 9.04676L31.0748 9.04673ZM8.94908 14.7672C8.61786 14.4273 8.72418 12.1082 9.63072 10.2131C9.91225 9.62429 10.3359 9.24283 10.9253 9.04684C12.0744 8.66415 13.6559 9.03693 14.9228 9.50949C13.4908 10.3994 12.2437 11.5907 11.2619 13.005C9.57806 14.7923 8.94513 14.7539 8.94908 14.7672V14.7672ZM21 33.1107C14.5136 33.1107 9.23544 29.626 9.23544 25.3428C9.23544 24.1397 9.65536 22.9796 10.4829 21.8946C10.6217 21.7127 10.6922 21.4826 10.6803 21.2486C10.671 21.0539 10.6652 20.8583 10.6652 20.6613C10.6652 18.2668 11.3885 16.0504 12.6112 14.2415C12.6249 14.2269 12.6405 14.2098 12.6534 14.1961C12.7191 14.1248 12.7682 14.0434 12.8086 13.9583C13.9316 12.4042 15.4341 11.1782 17.168 10.4377C17.3561 10.4293 17.5388 10.3603 17.6865 10.2335C18.7277 9.85631 19.8413 9.64938 21.0001 9.64938C21.3881 9.64938 21.77 9.67449 22.147 9.71879C22.1298 9.81288 22.1145 9.90022 22.0969 9.99769C21.7984 11.6426 21.3895 13.8959 21.3895 16.2998C21.3895 18.8658 21.7178 20.8184 22.2872 22.3091C21.8401 22.2714 21.3959 22.2703 21.0003 22.2703C19.3333 22.2703 16.8134 22.2703 16.8134 25.0801C16.8134 27.0256 18.1349 28.6621 19.9217 29.1423C19.8595 29.3035 19.7722 29.4655 19.6396 29.6003C19.3206 29.9245 18.7912 30.053 18.0688 29.9864C17.5831 29.9399 17.1508 30.3252 17.1078 30.845C17.0646 31.3648 17.4257 31.8236 17.914 31.8694C18.0892 31.8859 18.2594 31.8939 18.4239 31.8939C19.4518 31.8939 20.278 31.5764 20.8852 30.9464C20.926 30.9038 20.9628 30.8599 21 30.8161C21.0373 30.8599 21.0741 30.904 21.1149 30.9464C21.7221 31.5764 22.5482 31.8939 23.5761 31.8939C23.7411 31.8939 23.9109 31.8855 24.0861 31.8694C24.5739 31.8241 24.9349 31.3656 24.8919 30.8454C24.8493 30.3252 24.4213 29.941 23.9309 29.9868C23.2076 30.0539 22.6784 29.9243 22.3601 29.6007C22.2275 29.4661 22.1401 29.3039 22.078 29.1427C23.6258 28.7269 24.8222 27.443 25.1144 25.8413C26.8577 26.873 29.0307 27.0354 31.2273 27.0354C31.6583 27.0354 32.0872 27.0033 32.512 26.9428C31.392 30.4608 26.6561 33.1104 20.9998 33.1104L21 33.1107Z" fill="#081B33"/>
<path d="M14.0807 20.1882C12.6508 20.1882 12.6508 22.551 14.0807 22.551C15.5105 22.551 15.5109 20.1882 14.0807 20.1882Z" fill="#081B33"/>
<path d="M27.9188 20.1882C26.489 20.1882 26.489 22.551 27.9188 22.551C29.3486 22.551 29.3486 20.1882 27.9188 20.1882Z" fill="#081B33"/>
</g>
<rect x="0.5" y="0.5" width="41" height="41" rx="20.5" stroke="#081B33"/>
<defs>
<clipPath id="clip0_967_3945">
<rect width="28" height="28" fill="white" transform="translate(7 7)"/>
</clipPath>
</defs>
</svg>
