<svg width="268" height="256" viewBox="0 0 268 256" fill="none" xmlns="http://www.w3.org/2000/svg">
<rect x="1" y="0.5" width="266" height="255" rx="11.5" fill="white"/>
<circle cx="42.5" cy="48" r="26" fill="#B0B0B0"/>
<path d="M42.5 22C28.1406 22 16.5 33.6406 16.5 48H68.5C68.5 33.6406 56.8594 22 42.5 22Z" fill="#C4F4D4"/>
<circle cx="42.5" cy="48" r="16.25" fill="white"/>
<rect x="76.5" y="22" width="146" height="12" rx="6" fill="#081B33" fill-opacity="0.08"/>
<rect x="76.5" y="42" width="175" height="12" rx="6" fill="#081B33" fill-opacity="0.08"/>
<rect x="76.5" y="62" width="160" height="12" rx="6" fill="#081B33" fill-opacity="0.08"/>
<rect x="16.5" y="90" width="207" height="7" rx="3.5" fill="#081B33" fill-opacity="0.08"/>
<rect x="16.5" y="101" width="186" height="7" rx="3.5" fill="#081B33" fill-opacity="0.08"/>
<rect x="16.5" y="112" width="186" height="7" rx="3.5" fill="#081B33" fill-opacity="0.08"/>
<rect x="16.5" y="123" width="207" height="7" rx="3.5" fill="#081B33" fill-opacity="0.08"/>
<rect x="16.5" y="146" width="207" height="7" rx="3.5" fill="#081B33" fill-opacity="0.08"/>
<rect x="16.5" y="157" width="186" height="7" rx="3.5" fill="#081B33" fill-opacity="0.08"/>
<rect x="16.5" y="168" width="186" height="7" rx="3.5" fill="#081B33" fill-opacity="0.08"/>
<rect x="16.5" y="179" width="207" height="7" rx="3.5" fill="#081B33" fill-opacity="0.08"/>
<rect x="16.5" y="202" width="68" height="32" rx="6" fill="#081B33" fill-opacity="0.08"/>
<rect x="1" y="0.5" width="266" height="255" rx="11.5" stroke="#EBEBEB"/>
</svg>
