<svg width="38" height="38" viewBox="0 0 38 38" fill="none" xmlns="http://www.w3.org/2000/svg">
<path fill-rule="evenodd" clip-rule="evenodd" d="M17.6566 4.35655C18.3986 3.61455 19.6016 3.61455 20.3436 4.35655L33.6436 17.6565C34.187 18.1999 34.3496 19.0172 34.0555 19.7271C33.7614 20.4371 33.0686 20.9 32.3001 20.9H30.4001V32.3001C30.4001 33.3494 29.5494 34.2001 28.5001 34.2001H24.7001C23.6508 34.2001 22.8001 33.3494 22.8001 32.3001V26.6C22.8001 25.5507 21.9494 24.7 20.9001 24.7H17.1001C16.0508 24.7 15.2001 25.5507 15.2001 26.6V32.3001C15.2001 33.3494 14.3494 34.2001 13.3001 34.2001H9.5001C8.45076 34.2001 7.6001 33.3494 7.6001 32.3001V20.9H5.7001C4.93163 20.9 4.23882 20.4371 3.94473 19.7271C3.65065 19.0172 3.81321 18.1999 4.3566 17.6565L17.6566 4.35655Z" fill="#081B33"/>
</svg>
