<svg width="38" height="38" viewBox="0 0 38 38" fill="none" xmlns="http://www.w3.org/2000/svg">
<path fill-rule="evenodd" clip-rule="evenodd" d="M7.91666 6.33335C7.49673 6.33335 7.094 6.50017 6.79707 6.7971C6.50014 7.09403 6.33332 7.49676 6.33332 7.91669V30.0834C6.33332 30.5033 6.50014 30.906 6.79707 31.2029C7.094 31.4999 7.49673 31.6667 7.91666 31.6667H14.25C15.1244 31.6667 15.8333 32.3756 15.8333 33.25C15.8333 34.1245 15.1244 34.8334 14.25 34.8334H7.91666C6.65688 34.8334 5.4487 34.3329 4.5579 33.4421C3.6671 32.5513 3.16666 31.3431 3.16666 30.0834V7.91669C3.16666 6.65691 3.6671 5.44873 4.5579 4.55793C5.4487 3.66713 6.65688 3.16669 7.91666 3.16669H14.25C15.1244 3.16669 15.8333 3.87557 15.8333 4.75002C15.8333 5.62447 15.1244 6.33335 14.25 6.33335H7.91666ZM24.2137 9.96377C24.8321 9.34544 25.8346 9.34544 26.4529 9.96377L34.3696 17.8804C34.9879 18.4988 34.9879 19.5013 34.3696 20.1196L26.4529 28.0363C25.8346 28.6546 24.8321 28.6546 24.2137 28.0363C23.5954 27.4179 23.5954 26.4154 24.2137 25.7971L29.4275 20.5834H14.25C13.3755 20.5834 12.6667 19.8745 12.6667 19C12.6667 18.1256 13.3755 17.4167 14.25 17.4167H29.4275L24.2137 12.2029C23.5954 11.5846 23.5954 10.5821 24.2137 9.96377Z" fill="#081B33"/>
</svg>
