<svg width="38" height="38" viewBox="0 0 38 38" fill="none" xmlns="http://www.w3.org/2000/svg">
<path d="M19.4089 12.7052C18.6718 12.5788 17.9138 12.7173 17.269 13.0962C16.6243 13.4751 16.1345 14.07 15.8863 14.7754C15.5961 15.6003 14.6922 16.0338 13.8673 15.7436C13.0424 15.4534 12.6089 14.5495 12.8991 13.7246C13.3954 12.3137 14.3751 11.1239 15.6645 10.3661C16.954 9.60827 18.4701 9.33124 19.9442 9.5841C21.4184 9.83696 22.7555 10.6034 23.7187 11.7476C24.6817 12.8916 25.2089 14.3394 25.2069 15.8348C25.2062 18.2579 23.4097 19.858 22.1268 20.7133C21.4371 21.1731 20.7586 21.5112 20.2588 21.7333C20.0066 21.8454 19.7943 21.9305 19.6413 21.9887C19.5647 22.0179 19.5025 22.0406 19.4573 22.0566L19.4023 22.0759L19.3848 22.0819L19.3786 22.084L19.3762 22.0848C19.3762 22.0848 19.3742 22.0854 18.8735 20.5833L19.3742 22.0854C18.5446 22.362 17.648 21.9136 17.3714 21.084C17.0951 20.255 17.5427 19.359 18.3712 19.0818L18.3964 19.073C18.4208 19.0643 18.4607 19.0498 18.514 19.0295C18.6207 18.9889 18.7795 18.9255 18.9727 18.8396C19.3635 18.6659 19.8725 18.4103 20.3703 18.0784C21.4621 17.3505 22.0402 16.5761 22.0402 15.8334L22.0402 15.831C22.0413 15.0832 21.7777 14.3591 21.2961 13.7869C20.8145 13.2148 20.146 12.8316 19.4089 12.7052Z" fill="#081B33"/>
<path d="M19 25.3333C18.1256 25.3333 17.4167 26.0422 17.4167 26.9166C17.4167 27.7911 18.1256 28.5 19 28.5H19.0158C19.8903 28.5 20.5992 27.7911 20.5992 26.9166C20.5992 26.0422 19.8903 25.3333 19.0158 25.3333H19Z" fill="#081B33"/>
<path fill-rule="evenodd" clip-rule="evenodd" d="M1.58334 19C1.58334 9.38102 9.38105 1.58331 19 1.58331C28.619 1.58331 36.4167 9.38102 36.4167 19C36.4167 28.6189 28.619 36.4166 19 36.4166C9.38105 36.4166 1.58334 28.6189 1.58334 19ZM19 4.74998C11.13 4.74998 4.75001 11.1299 4.75001 19C4.75001 26.87 11.13 33.25 19 33.25C26.8701 33.25 33.25 26.87 33.25 19C33.25 11.1299 26.8701 4.74998 19 4.74998Z" fill="#081B33"/>
</svg>
