<svg width="38" height="38" viewBox="0 0 38 38" fill="none" xmlns="http://www.w3.org/2000/svg">
<g clip-path="url(#clip0_839_12166)">
<path fill-rule="evenodd" clip-rule="evenodd" d="M19 12.6667C15.5022 12.6667 12.6667 15.5022 12.6667 19C12.6667 22.4978 15.5022 25.3333 19 25.3333C22.4978 25.3333 25.3333 22.4978 25.3333 19C25.3333 15.5022 22.4978 12.6667 19 12.6667ZM15.8333 19C15.8333 17.2511 17.2511 15.8333 19 15.8333C20.7489 15.8333 22.1667 17.2511 22.1667 19C22.1667 20.7489 20.7489 22.1667 19 22.1667C17.2511 22.1667 15.8333 20.7489 15.8333 19Z" fill="#081B33"/>
<path fill-rule="evenodd" clip-rule="evenodd" d="M32.1652 24.3893L30.7167 23.75L32.172 24.3737C32.251 24.1892 32.3823 24.0319 32.5497 23.9211C32.7164 23.8107 32.9116 23.7513 33.1115 23.75H33.25C34.5098 23.75 35.718 23.2496 36.6088 22.3588C37.4996 21.468 38 20.2598 38 19C38 17.7402 37.4996 16.532 36.6088 15.6412C35.718 14.7504 34.5098 14.25 33.25 14.25H32.9848C32.7849 14.2487 32.5897 14.1893 32.423 14.0789C32.3107 14.0046 32.2147 13.9093 32.1397 13.7989C32.1171 13.691 32.0833 13.5854 32.0385 13.484C31.9555 13.2959 31.9307 13.0872 31.9674 12.8849C32.0037 12.6847 32.0985 12.4999 32.2397 12.3537L32.3265 12.2669C32.7678 11.8259 33.1186 11.3016 33.3575 10.7252C33.5965 10.1486 33.7196 9.53048 33.7196 8.90625C33.7196 8.28202 33.5965 7.66392 33.3575 7.08728C33.1187 6.51118 32.7688 5.98776 32.3277 5.54687C31.8866 5.10523 31.3627 4.75488 30.7861 4.51584C30.2094 4.2768 29.5913 4.15376 28.9671 4.15376C28.3429 4.15376 27.7248 4.2768 27.1481 4.51584C26.5715 4.75488 26.0476 5.10523 25.6065 5.54687L25.5197 5.63367C25.3734 5.77487 25.1886 5.86962 24.9885 5.90591C24.7861 5.9426 24.5774 5.91783 24.3893 5.8348L24.3737 5.82803C24.1892 5.74896 24.0319 5.61768 23.9211 5.45033C23.8107 5.28365 23.7513 5.08843 23.75 4.88854V4.75C23.75 3.49022 23.2496 2.28204 22.3588 1.39124C21.468 0.500445 20.2598 0 19 0C17.7402 0 16.532 0.500445 15.6412 1.39124C14.7504 2.28204 14.25 3.49022 14.25 4.75V5.01521C14.2487 5.21509 14.1893 5.41031 14.0789 5.577C14.0046 5.68929 13.9093 5.78534 13.7989 5.86027C13.691 5.88286 13.5854 5.91672 13.484 5.96147C13.2959 6.0445 13.0872 6.06926 12.8849 6.03258C12.6848 5.99629 12.4999 5.90152 12.3537 5.76032L12.2669 5.67354C11.8257 5.2319 11.3019 4.88154 10.7252 4.6425C10.1486 4.40346 9.53047 4.28043 8.90625 4.28043C8.28203 4.28043 7.66392 4.40346 7.08728 4.6425C6.51091 4.88143 5.98727 5.23157 5.54625 5.67291C5.1049 6.11393 4.75476 6.63758 4.51584 7.21395C4.2768 7.79059 4.15376 8.40869 4.15376 9.03292C4.15376 9.65714 4.2768 10.2752 4.51584 10.8519C4.75488 11.4285 5.10523 11.9524 5.54687 12.3935L5.63365 12.4803C5.77486 12.6266 5.86962 12.8114 5.90591 13.0116C5.9426 13.2139 5.91783 13.4226 5.8348 13.6107C5.82133 13.6412 5.80883 13.6722 5.79732 13.7035C5.72603 13.8973 5.59809 14.0652 5.43012 14.1853C5.26603 14.3027 5.07115 14.3692 4.86976 14.3767H4.75C3.49022 14.3767 2.28204 14.8771 1.39124 15.7679C0.500445 16.6587 0 17.8669 0 19.1267C0 20.3864 0.500445 21.5946 1.39124 22.4854C2.28204 23.3762 3.49022 23.8767 4.75 23.8767H5.01521C5.21509 23.8779 5.41031 23.9374 5.577 24.0477C5.74434 24.1586 5.87563 24.3159 5.9547 24.5004L5.96147 24.516C6.0445 24.7041 6.06926 24.9128 6.03258 25.1151C5.99629 25.3152 5.90153 25.5001 5.76034 25.6463L5.67354 25.7331C5.2319 26.1743 4.88154 26.6981 4.6425 27.2748C4.40346 27.8514 4.28043 28.4695 4.28043 29.0938C4.28043 29.718 4.40346 30.3361 4.6425 30.9127C4.88154 31.4894 5.2319 32.0132 5.67354 32.4544C6.11443 32.8954 6.63786 33.2453 7.21395 33.4842C7.79059 33.7232 8.40869 33.8462 9.03292 33.8462C9.65714 33.8462 10.2752 33.7232 10.8519 33.4842C11.4283 33.2452 11.9519 32.8951 12.3929 32.4537L12.4803 32.3664C12.6266 32.2252 12.8114 32.1304 13.0116 32.0941C13.2139 32.0574 13.4226 32.0822 13.6107 32.1652C13.6412 32.1787 13.6722 32.1912 13.7035 32.2027C13.8973 32.274 14.0652 32.4019 14.1853 32.5699C14.3027 32.734 14.3692 32.9288 14.3767 33.1302V33.25C14.3767 34.5098 14.8771 35.718 15.7679 36.6088C16.6587 37.4996 17.8669 38 19.1267 38C20.3864 38 21.5946 37.4996 22.4854 36.6088C23.3762 35.718 23.8767 34.5098 23.8767 33.25V32.9848C23.8779 32.7849 23.9374 32.5897 24.0477 32.423C24.1586 32.2557 24.3159 32.1244 24.5004 32.0453L24.516 32.0385C24.7041 31.9555 24.9128 31.9307 25.1151 31.9674C25.3152 32.0037 25.5001 32.0985 25.6463 32.2396L25.7331 32.3265C26.1741 32.7678 26.6984 33.1186 27.2748 33.3575C27.8514 33.5965 28.4695 33.7196 29.0938 33.7196C29.718 33.7196 30.3361 33.5965 30.9127 33.3575C31.4891 33.1186 32.0127 32.7684 32.4538 32.3271C32.8951 31.8861 33.2452 31.3624 33.4842 30.7861C33.7232 30.2094 33.8462 29.5913 33.8462 28.9671C33.8462 28.3429 33.7232 27.7248 33.4842 27.1481C33.2452 26.5717 32.8951 26.0481 32.4537 25.6071L32.3663 25.5196C32.2251 25.3734 32.1304 25.1886 32.0941 24.9885C32.0574 24.7861 32.0822 24.5774 32.1652 24.3893ZM17.8804 3.63041C18.1773 3.33348 18.5801 3.16667 19 3.16667C19.4199 3.16667 19.8227 3.33348 20.1196 3.63041C20.4165 3.92735 20.5833 4.33007 20.5833 4.75V4.8925L20.5833 4.89881C20.5866 5.7171 20.8291 6.51656 21.2809 7.19881C21.7311 7.87868 22.3697 8.41257 23.1184 8.73527C23.8834 9.07104 24.7313 9.17084 25.5534 9.02177C26.3783 8.8722 27.1395 8.47894 27.7388 7.8927L27.7513 7.88042L27.8463 7.78541C27.9933 7.6382 28.1685 7.5208 28.3608 7.44112C28.553 7.36144 28.759 7.32043 28.9671 7.32043C29.1752 7.32043 29.3812 7.36144 29.5734 7.44112C29.7656 7.5208 29.9402 7.63758 30.0873 7.7848L30.0885 7.78604C30.2358 7.93309 30.3525 8.10772 30.4322 8.29993C30.5119 8.49214 30.5529 8.69818 30.5529 8.90625C30.5529 9.11432 30.5119 9.32036 30.4322 9.51257C30.3525 9.70478 30.2358 9.87941 30.0885 10.0265L29.9929 10.1221L29.9806 10.1345C29.3944 10.7338 29.0011 11.495 28.8516 12.3199C28.7217 13.0361 28.7807 13.7718 29.02 14.4552C29.0388 14.599 29.0773 14.7398 29.1347 14.8737C29.457 15.6258 29.9923 16.2673 30.6745 16.7191C31.3568 17.1709 32.1562 17.4134 32.9745 17.4167L32.9808 17.4167H33.25C33.6699 17.4167 34.0727 17.5835 34.3696 17.8804C34.6665 18.1773 34.8333 18.5801 34.8333 19C34.8333 19.4199 34.6665 19.8227 34.3696 20.1196C34.0727 20.4165 33.6699 20.5833 33.25 20.5833L33.1075 20.5833L33.1012 20.5833C32.2829 20.5866 31.4834 20.8291 30.8012 21.2809C30.1213 21.7312 29.5873 22.3698 29.2647 23.1186C28.9289 23.8836 28.8292 24.7313 28.9782 25.5534C29.1278 26.3783 29.5211 27.1395 30.1073 27.7388L30.1196 27.7513L30.2146 27.8463C30.3618 27.9933 30.4792 28.1685 30.5589 28.3608C30.6386 28.553 30.6796 28.759 30.6796 28.9671C30.6796 29.1752 30.6386 29.3812 30.5589 29.5734C30.4792 29.7656 30.3624 29.9402 30.2152 30.0873L30.214 30.0885C30.0669 30.2357 29.8923 30.3525 29.7001 30.4322C29.5079 30.5119 29.3018 30.5529 29.0938 30.5529C28.8857 30.5529 28.6796 30.5119 28.4874 30.4322C28.2952 30.3525 28.1206 30.2357 27.9735 30.0885L27.8779 29.9929L27.8655 29.9806C27.2662 29.3944 26.505 29.0011 25.6801 28.8516C24.858 28.7025 24.0102 28.8023 23.2453 29.138C22.4965 29.4607 21.8578 29.9946 21.4076 30.6745C20.9557 31.3568 20.7133 32.1562 20.71 32.9745L20.71 32.9808V33.25C20.71 33.6699 20.5432 34.0727 20.2463 34.3696C19.9493 34.6665 19.5466 34.8333 19.1267 34.8333C18.7067 34.8333 18.304 34.6665 18.0071 34.3696C17.7101 34.0727 17.5433 33.6699 17.5433 33.25V33.1075L17.5429 33.0705C17.5232 32.2288 17.2508 31.4125 16.761 30.7277C16.2809 30.0565 15.6138 29.542 14.8434 29.2482C14.0884 28.9257 13.2551 28.8316 12.4466 28.9782C11.6217 29.1278 10.8605 29.5211 10.2612 30.1073L10.2487 30.1196L10.1537 30.2146C10.0067 30.3618 9.83146 30.4792 9.63924 30.5589C9.44702 30.6386 9.24099 30.6796 9.03292 30.6796C8.82484 30.6796 8.61881 30.6386 8.42659 30.5589C8.23438 30.4792 8.05975 30.3624 7.91271 30.2152L7.91146 30.214C7.76425 30.0669 7.64747 29.8923 7.56778 29.7001C7.4881 29.5079 7.44709 29.3018 7.44709 29.0938C7.44709 28.8857 7.4881 28.6796 7.56778 28.4874C7.64747 28.2952 7.76425 28.1206 7.91146 27.9735L8.00708 27.8779L8.01937 27.8655C8.6056 27.2662 8.99887 26.505 9.14844 25.6801C9.29751 24.8579 9.19771 24.0101 8.86194 23.2451C8.53923 22.4964 8.00535 21.8578 7.32547 21.4076C6.64323 20.9557 5.84376 20.7133 5.02548 20.71L5.01917 20.71H4.75C4.33007 20.71 3.92735 20.5432 3.63041 20.2463C3.33348 19.9493 3.16667 19.5466 3.16667 19.1267C3.16667 18.7067 3.33348 18.304 3.63041 18.0071C3.92735 17.7101 4.33007 17.5433 4.75 17.5433H4.8925L4.92953 17.5429C5.77122 17.5232 6.58753 17.2508 7.27232 16.761C7.94355 16.2809 8.45799 15.6138 8.7518 14.8434C9.07429 14.0884 9.16837 13.2551 9.02177 12.4466C8.8722 11.6217 8.47894 10.8605 7.8927 10.2612L7.88042 10.2487L7.78542 10.1537C7.63821 10.0067 7.5208 9.83145 7.44112 9.63924C7.36144 9.44702 7.32043 9.24099 7.32043 9.03292C7.32043 8.82484 7.36144 8.61881 7.44112 8.42659C7.5208 8.23438 7.63758 8.05976 7.7848 7.91271L7.78604 7.91146C7.93309 7.76425 8.10771 7.64747 8.29993 7.56778C8.49214 7.4881 8.69818 7.44709 8.90625 7.44709C9.11432 7.44709 9.32036 7.4881 9.51257 7.56778C9.70479 7.64747 9.87941 7.76425 10.0265 7.91146L10.1221 8.00709L10.1345 8.01937C10.7338 8.6056 11.495 8.99887 12.3199 9.14844C13.0361 9.2783 13.7718 9.2193 14.4552 8.97998C14.599 8.96118 14.7398 8.92268 14.8737 8.8653C15.6258 8.54296 16.2673 8.00772 16.7191 7.32547C17.1709 6.64323 17.4134 5.84376 17.4167 5.02548L17.4167 5.01917V4.75C17.4167 4.33007 17.5835 3.92735 17.8804 3.63041Z" fill="#081B33"/>
</g>
<defs>
<clipPath id="clip0_839_12166">
<rect width="38" height="38" fill="white"/>
</clipPath>
</defs>
</svg>
