<svg width="77" height="34" viewBox="0 0 77 34" fill="none" xmlns="http://www.w3.org/2000/svg">
<rect width="76.9882" height="33.216" rx="16.608" fill="#EBEBEB"/>
<path d="M19.8 21.216C19.272 21.216 18.726 21.168 18.162 21.072C17.61 20.976 17.106 20.814 16.65 20.586C16.41 20.466 16.236 20.316 16.128 20.136C16.032 19.944 15.99 19.752 16.002 19.56C16.014 19.368 16.074 19.194 16.182 19.038C16.302 18.882 16.452 18.78 16.632 18.732C16.824 18.672 17.034 18.69 17.262 18.786C17.754 18.99 18.204 19.134 18.612 19.218C19.02 19.302 19.422 19.344 19.818 19.344C20.334 19.344 20.706 19.266 20.934 19.11C21.174 18.942 21.294 18.726 21.294 18.462C21.294 18.222 21.216 18.042 21.06 17.922C20.904 17.802 20.676 17.718 20.376 17.67L18.486 17.328C17.742 17.196 17.166 16.926 16.758 16.518C16.362 16.098 16.164 15.564 16.164 14.916C16.164 14.316 16.332 13.8 16.668 13.368C17.004 12.924 17.466 12.588 18.054 12.36C18.654 12.12 19.332 12 20.088 12C20.628 12 21.126 12.048 21.582 12.144C22.038 12.24 22.476 12.396 22.896 12.612C23.112 12.72 23.262 12.864 23.346 13.044C23.442 13.224 23.472 13.41 23.436 13.602C23.412 13.794 23.34 13.968 23.22 14.124C23.1 14.28 22.944 14.382 22.752 14.43C22.572 14.478 22.362 14.454 22.122 14.358C21.738 14.178 21.384 14.052 21.06 13.98C20.736 13.896 20.424 13.854 20.124 13.854C19.584 13.854 19.194 13.944 18.954 14.124C18.714 14.292 18.594 14.508 18.594 14.772C18.594 14.976 18.66 15.15 18.792 15.294C18.936 15.426 19.152 15.516 19.44 15.564L21.33 15.906C22.11 16.038 22.704 16.302 23.112 16.698C23.52 17.082 23.724 17.61 23.724 18.282C23.724 19.194 23.364 19.914 22.644 20.442C21.936 20.958 20.988 21.216 19.8 21.216Z" fill="#081B33"/>
<path d="M27.8134 21.216C27.1654 21.216 26.5834 21.09 26.0674 20.838C25.5514 20.586 25.1494 20.244 24.8614 19.812C24.5734 19.38 24.4294 18.894 24.4294 18.354C24.4294 17.706 24.5974 17.196 24.9334 16.824C25.2694 16.44 25.8154 16.17 26.5714 16.014C27.3274 15.846 28.3294 15.762 29.5774 15.762H30.5314V17.166H29.5954C28.9834 17.166 28.4854 17.202 28.1014 17.274C27.7294 17.334 27.4594 17.442 27.2914 17.598C27.1354 17.754 27.0574 17.97 27.0574 18.246C27.0574 18.582 27.1714 18.858 27.3994 19.074C27.6394 19.29 27.9814 19.398 28.4254 19.398C28.7734 19.398 29.0794 19.32 29.3434 19.164C29.6194 18.996 29.8354 18.774 29.9914 18.498C30.1474 18.21 30.2254 17.886 30.2254 17.526V15.456C30.2254 14.928 30.1054 14.556 29.8654 14.34C29.6254 14.112 29.2174 13.998 28.6414 13.998C28.3174 13.998 27.9634 14.04 27.5794 14.124C27.2074 14.196 26.7934 14.322 26.3374 14.502C26.0734 14.622 25.8394 14.652 25.6354 14.592C25.4314 14.52 25.2754 14.4 25.1674 14.232C25.0594 14.052 25.0054 13.86 25.0054 13.656C25.0054 13.44 25.0654 13.236 25.1854 13.044C25.3054 12.84 25.5034 12.69 25.7794 12.594C26.3434 12.366 26.8714 12.21 27.3634 12.126C27.8674 12.042 28.3294 12 28.7494 12C29.6734 12 30.4294 12.138 31.0174 12.414C31.6174 12.678 32.0674 13.092 32.3674 13.656C32.6674 14.208 32.8174 14.922 32.8174 15.798V19.794C32.8174 20.238 32.7094 20.58 32.4934 20.82C32.2774 21.06 31.9654 21.18 31.5574 21.18C31.1494 21.18 30.8314 21.06 30.6034 20.82C30.3874 20.58 30.2794 20.238 30.2794 19.794V19.128L30.4054 19.236C30.3334 19.644 30.1774 19.998 29.9374 20.298C29.7094 20.586 29.4154 20.814 29.0554 20.982C28.6954 21.138 28.2814 21.216 27.8134 21.216Z" fill="#081B33"/>
<path d="M38.051 21.18C37.703 21.18 37.397 21.09 37.133 20.91C36.869 20.718 36.659 20.436 36.503 20.064L33.785 13.8C33.653 13.488 33.605 13.2 33.641 12.936C33.677 12.66 33.803 12.444 34.019 12.288C34.247 12.12 34.559 12.036 34.955 12.036C35.279 12.036 35.543 12.114 35.747 12.27C35.951 12.414 36.131 12.696 36.287 13.116L38.411 18.516H37.835L40.049 13.098C40.217 12.69 40.403 12.414 40.607 12.27C40.811 12.114 41.093 12.036 41.453 12.036C41.765 12.036 42.011 12.12 42.191 12.288C42.383 12.444 42.497 12.654 42.533 12.918C42.581 13.182 42.533 13.47 42.389 13.782L39.617 20.064C39.461 20.448 39.251 20.73 38.987 20.91C38.735 21.09 38.423 21.18 38.051 21.18Z" fill="#081B33"/>
<path d="M47.8513 21.216C46.8073 21.216 45.9073 21.03 45.1513 20.658C44.4073 20.274 43.8313 19.74 43.4233 19.056C43.0273 18.36 42.8293 17.544 42.8293 16.608C42.8293 15.696 43.0213 14.898 43.4053 14.214C43.7893 13.518 44.3233 12.978 45.0073 12.594C45.7033 12.198 46.4893 12 47.3653 12C48.0013 12 48.5773 12.108 49.0933 12.324C49.6093 12.528 50.0533 12.828 50.4253 13.224C50.7973 13.608 51.0793 14.082 51.2713 14.646C51.4633 15.198 51.5593 15.816 51.5593 16.5C51.5593 16.728 51.4873 16.902 51.3433 17.022C51.1993 17.13 50.9893 17.184 50.7133 17.184H45.0613V15.78H49.5973L49.3093 16.032C49.3093 15.54 49.2373 15.132 49.0933 14.808C48.9493 14.472 48.7393 14.22 48.4633 14.052C48.1993 13.884 47.8693 13.8 47.4733 13.8C47.0293 13.8 46.6513 13.902 46.3393 14.106C46.0273 14.31 45.7873 14.604 45.6193 14.988C45.4513 15.372 45.3673 15.834 45.3673 16.374V16.518C45.3673 17.43 45.5773 18.102 45.9973 18.534C46.4293 18.966 47.0653 19.182 47.9053 19.182C48.1933 19.182 48.5233 19.146 48.8953 19.074C49.2673 19.002 49.6153 18.888 49.9393 18.732C50.2153 18.6 50.4613 18.558 50.6773 18.606C50.8933 18.642 51.0613 18.738 51.1813 18.894C51.3013 19.05 51.3673 19.23 51.3793 19.434C51.4033 19.638 51.3613 19.842 51.2533 20.046C51.1453 20.238 50.9653 20.4 50.7133 20.532C50.3053 20.76 49.8433 20.928 49.3273 21.036C48.8233 21.156 48.3313 21.216 47.8513 21.216Z" fill="#081B33"/>
<path d="M57.2802 21.216C56.2362 21.216 55.3362 21.03 54.5802 20.658C53.8362 20.274 53.2602 19.74 52.8522 19.056C52.4562 18.36 52.2582 17.544 52.2582 16.608C52.2582 15.696 52.4502 14.898 52.8342 14.214C53.2182 13.518 53.7522 12.978 54.4362 12.594C55.1322 12.198 55.9182 12 56.7942 12C57.4302 12 58.0062 12.108 58.5222 12.324C59.0382 12.528 59.4822 12.828 59.8542 13.224C60.2262 13.608 60.5082 14.082 60.7002 14.646C60.8922 15.198 60.9882 15.816 60.9882 16.5C60.9882 16.728 60.9162 16.902 60.7722 17.022C60.6282 17.13 60.4182 17.184 60.1422 17.184H54.4902V15.78H59.0262L58.7382 16.032C58.7382 15.54 58.6662 15.132 58.5222 14.808C58.3782 14.472 58.1682 14.22 57.8922 14.052C57.6282 13.884 57.2982 13.8 56.9022 13.8C56.4582 13.8 56.0802 13.902 55.7682 14.106C55.4562 14.31 55.2162 14.604 55.0482 14.988C54.8802 15.372 54.7962 15.834 54.7962 16.374V16.518C54.7962 17.43 55.0062 18.102 55.4262 18.534C55.8582 18.966 56.4942 19.182 57.3342 19.182C57.6222 19.182 57.9522 19.146 58.3242 19.074C58.6962 19.002 59.0442 18.888 59.3682 18.732C59.6442 18.6 59.8902 18.558 60.1062 18.606C60.3222 18.642 60.4902 18.738 60.6102 18.894C60.7302 19.05 60.7962 19.23 60.8082 19.434C60.8322 19.638 60.7902 19.842 60.6822 20.046C60.5742 20.238 60.3942 20.4 60.1422 20.532C59.7342 20.76 59.2722 20.928 58.7562 21.036C58.2522 21.156 57.7602 21.216 57.2802 21.216Z" fill="#081B33"/>
</svg>
