<svg width="276" height="190" viewBox="0 0 276 190" fill="none" xmlns="http://www.w3.org/2000/svg">
<path d="M182.809 169.304V173.218H217.992V169.304H182.809Z" fill="#A15842"/>
<path d="M223.787 187.362L214.636 132.974H186.166L177.015 187.362C176.974 187.619 176.989 187.883 177.059 188.134C177.13 188.385 177.254 188.618 177.423 188.817C177.593 189.016 177.803 189.175 178.04 189.285C178.277 189.395 178.535 189.451 178.797 189.452C179.209 189.453 179.609 189.312 179.931 189.054C180.252 188.796 180.475 188.435 180.562 188.033L192.544 132.962H208.256L220.237 188.033C220.325 188.435 220.549 188.796 220.87 189.054C221.192 189.312 221.592 189.452 222.005 189.452C222.266 189.451 222.524 189.395 222.761 189.285C222.999 189.175 223.209 189.016 223.378 188.817C223.548 188.618 223.672 188.385 223.742 188.134C223.813 187.883 223.828 187.619 223.787 187.362Z" fill="#A15842"/>
<path d="M211.957 169.304V173.218H247.14V169.304H211.957Z" fill="#CA7358"/>
<path d="M252.934 187.362L243.783 132.974H215.313L206.16 187.362C206.119 187.619 206.134 187.883 206.205 188.134C206.276 188.385 206.4 188.618 206.57 188.817C206.739 189.016 206.95 189.175 207.187 189.285C207.425 189.394 207.683 189.451 207.944 189.452C208.357 189.453 208.757 189.312 209.078 189.054C209.399 188.796 209.622 188.435 209.71 188.033L221.691 132.962H237.394L249.375 188.033C249.463 188.435 249.687 188.796 250.008 189.054C250.33 189.312 250.73 189.452 251.143 189.452C251.405 189.453 251.664 189.397 251.902 189.288C252.141 189.179 252.352 189.019 252.523 188.82C252.693 188.622 252.818 188.388 252.889 188.136C252.96 187.884 252.976 187.62 252.934 187.362Z" fill="#CA7358"/>
<path d="M224.178 124.206L227.667 110.578H204.534C200 110.578 195.594 112.084 192.012 114.859C188.429 117.634 185.873 121.521 184.747 125.906L182.384 135.15H210.063C213.299 135.15 216.443 134.074 218.998 132.093C221.554 130.111 223.376 127.337 224.178 124.206Z" fill="#FFB7D5"/>
<path d="M237.587 135.15H182.384L183.314 131.45H207.546L216.788 95.3635C218.047 90.4477 220.909 86.0903 224.922 82.9784C228.936 79.8665 233.873 78.1773 238.955 78.1771C251.39 78.1771 260.489 89.8801 257.409 101.908L251.699 124.204C250.898 127.334 249.077 130.109 246.521 132.091C243.966 134.073 240.823 135.149 237.587 135.15Z" fill="#FFB7D5"/>
<path fill-rule="evenodd" clip-rule="evenodd" d="M183.42 131.09C183.42 130.834 183.629 130.626 183.886 130.626H213.254C213.511 130.626 213.719 130.834 213.719 131.09C213.719 131.347 213.511 131.555 213.254 131.555H183.886C183.629 131.555 183.42 131.347 183.42 131.09Z" fill="#A15842"/>
<path fill-rule="evenodd" clip-rule="evenodd" d="M212.914 110.414C213.163 110.477 213.313 110.73 213.249 110.979L208.104 131.071C208.04 131.319 207.787 131.469 207.538 131.406C207.289 131.342 207.139 131.089 207.203 130.84L212.348 110.749C212.411 110.5 212.665 110.35 212.914 110.414Z" fill="#A15842"/>
<path d="M167.166 31.4069C165.624 27.4889 162.828 22.9601 161.309 24.2583C160.942 24.5742 160.721 25.1107 160.611 25.8004C160.316 27.7444 160.937 30.9099 161.737 33.7898L159.337 34.8372C159.321 34.9096 159.301 34.981 159.276 35.0509C158.837 36.3468 157.392 36.4792 157.392 36.4792C157.392 36.4792 159.088 37.529 158.334 39.2499C157.581 40.9709 155.131 40.4112 155.131 40.4112C156.708 42.0927 156.492 43.2818 155.485 44.0877C155.279 44.2354 155.039 44.3282 154.787 44.3571C154.855 46.4752 154.989 48.8999 155.236 51.4453L171.36 46.3358C170.029 40.8316 168.376 34.4796 167.166 31.4069Z" fill="#A15842"/>
<path fill-rule="evenodd" clip-rule="evenodd" d="M161.247 33.809C161.492 33.7318 161.753 33.8675 161.83 34.1121C161.985 34.6004 162.119 34.9966 162.174 35.1328C162.22 35.2472 162.219 35.3753 162.17 35.4888M161.247 33.809C161.002 33.8863 160.866 34.1472 160.943 34.3918L161.247 33.809ZM160.943 34.3918C161.057 34.7522 161.167 35.0836 161.244 35.3012L160.943 34.3918ZM161.244 35.3012C161.209 35.395 161.162 35.5241 161.108 35.6843C160.992 36.0334 160.844 36.5314 160.718 37.134C160.467 38.3351 160.294 39.9729 160.635 41.6795C160.685 41.9311 160.93 42.0944 161.182 42.0442C161.434 41.9941 161.598 41.7494 161.548 41.4979C161.239 39.9553 161.393 38.452 161.629 37.3242C161.747 36.7623 161.884 36.2991 161.991 35.9778C162.044 35.8173 162.09 35.6927 162.122 35.6093C162.138 35.5677 162.151 35.5364 162.159 35.5161C162.163 35.506 162.166 35.4986 162.168 35.4941L162.17 35.4892C162.17 35.4891 162.17 35.4888 162.17 35.4888" fill="#30242A"/>
<path fill-rule="evenodd" clip-rule="evenodd" d="M159.487 33.649C159.997 33.705 160.366 34.1637 160.31 34.6737C160.19 35.7711 159.607 36.4552 159.01 36.855C159.419 37.5244 159.685 38.496 159.186 39.6327C158.691 40.7582 157.716 41.1953 156.911 41.352C157.093 41.7532 157.195 42.1563 157.207 42.5609C157.235 43.5455 156.721 44.2979 156.066 44.8219C155.665 45.1428 155.08 45.0783 154.758 44.6779C154.437 44.2776 154.502 43.6929 154.903 43.3721C155.255 43.0902 155.353 42.8451 155.347 42.6132C155.339 42.3313 155.17 41.8217 154.452 41.0555C154.172 40.7577 154.12 40.3128 154.324 39.9587C154.526 39.6057 154.935 39.4255 155.332 39.5136C155.333 39.5138 155.337 39.5144 155.342 39.5155C155.352 39.5175 155.37 39.521 155.395 39.5254C155.446 39.5341 155.524 39.546 155.621 39.5561C155.82 39.5766 156.081 39.588 156.35 39.559C156.91 39.4987 157.3 39.2994 157.482 38.8858C157.697 38.3968 157.577 38.0448 157.379 37.7578C157.272 37.6028 157.145 37.4757 157.04 37.3861C156.989 37.3424 156.946 37.3105 156.92 37.2915C156.907 37.282 156.898 37.2759 156.894 37.2734C156.893 37.2731 156.893 37.2728 156.893 37.2726C156.558 37.06 156.394 36.6581 156.487 36.2721C156.579 35.8865 156.907 35.6024 157.301 35.564C157.304 35.5636 157.313 35.5625 157.326 35.5605C157.352 35.5563 157.397 35.5483 157.453 35.5344C157.57 35.5058 157.721 35.4562 157.869 35.375C158.144 35.225 158.404 34.9805 158.46 34.4712C158.516 33.9612 158.976 33.5931 159.487 33.649ZM155.335 39.5142L155.335 39.5141L155.335 39.514C155.335 39.5141 155.335 39.5142 155.335 39.5142Z" fill="#30242A"/>
<path d="M153.401 27.2079C154.345 27.4912 158.558 27.5377 159.146 30.2689C159.425 31.5556 157.702 32.0665 157.702 32.0665C157.702 32.0665 159.563 32.9746 159.386 34.5655C159.375 34.6577 159.359 34.7493 159.337 34.8396L161.742 33.7898C160.942 30.9099 160.321 27.7513 160.616 25.8005L157.762 19.5297L154.706 12.8108L148.193 15.7673L151.249 22.4863L152.254 24.6926L153.401 27.2079Z" fill="#EAA58B"/>
<path d="M157.702 32.0665C157.702 32.0665 159.426 31.5556 159.147 30.2689C158.558 27.5377 154.346 27.4819 153.402 27.2079L152.262 24.6926C152.213 24.6926 150.11 25.0224 149.261 26.3346C147.931 28.3923 149.552 29.8671 149.552 29.8671C149.552 29.8671 146.272 30.9866 147.94 34.0755C147.94 34.0755 146.058 36.4258 148.405 38.3047C148.405 38.3047 146.628 39.8886 148.947 42.0207C150.866 43.7904 153.425 44.5917 154.795 44.3594C155.047 44.3305 155.287 44.2377 155.493 44.09C156.5 43.2841 156.716 42.095 155.139 40.4135C155.139 40.4135 157.588 40.9663 158.342 39.2523C159.096 37.5383 157.4 36.4815 157.4 36.4815C157.4 36.4815 158.845 36.3492 159.284 35.0532C159.309 34.9833 159.329 34.912 159.345 34.8396C159.366 34.7493 159.383 34.6577 159.393 34.5655C159.563 32.9792 157.702 32.0665 157.702 32.0665Z" fill="#A15842"/>
<path fill-rule="evenodd" clip-rule="evenodd" d="M148.939 29.6175C149.06 29.3914 149.342 29.3064 149.569 29.4275C152.071 30.7666 155.439 31.3431 157.86 31.5739C158.116 31.5983 158.303 31.8251 158.279 32.0805C158.254 32.3359 158.027 32.5231 157.771 32.4987C155.321 32.2651 151.8 31.6757 149.129 30.2463C148.903 30.1252 148.817 29.8436 148.939 29.6175Z" fill="#30242A"/>
<path fill-rule="evenodd" clip-rule="evenodd" d="M147.702 34.2233C147.81 33.9907 148.087 33.8899 148.32 33.998C151.821 35.6241 155.76 36.328 158.113 36.5108C158.369 36.5308 158.56 36.7542 158.541 37.01C158.521 37.2657 158.297 37.4569 158.041 37.437C155.612 37.2483 151.558 36.5261 147.927 34.8404C147.695 34.7322 147.594 34.4559 147.702 34.2233Z" fill="#30242A"/>
<path fill-rule="evenodd" clip-rule="evenodd" d="M147.95 38.4754C148.057 38.2423 148.334 38.1402 148.567 38.2472C151.063 39.3919 154.857 40.289 156.339 40.6124C156.59 40.6671 156.749 40.9147 156.694 41.1653C156.639 41.4159 156.391 41.5747 156.14 41.5199C154.664 41.1977 150.777 40.2832 148.179 39.0914C147.945 38.9843 147.843 38.7086 147.95 38.4754Z" fill="#30242A"/>
<path d="M235.5 68.0139C235.505 67.6861 235.494 67.3582 235.467 67.0315L235.1 64.9691C233.625 59.7691 228.491 55.8185 226.605 49.6012L220.169 49.664V49.5432L211.842 53.2847L208.609 46.5379H208.55L205.564 53.2847L202.128 49.6384V49.664C202.128 49.664 191.687 50.0356 173.681 56.3155C173.681 56.3155 172.676 51.7286 171.374 46.3544L155.25 51.4639C156.201 61.2531 158.836 72.7982 165.87 75.3855C174.114 78.4163 194.073 72.5683 194.073 72.5683L196.892 94.8781H233.988V90.7557C233.988 90.7557 237.026 89.246 237.026 85.7739C237.019 79.4939 235.281 78.6276 235.5 68.0139Z" fill="#3EC1F3"/>
<path d="M208.548 46.5379H202.531L202.126 49.6384L205.561 53.2847L208.548 46.5379Z" fill="#F5EBDD"/>
<path d="M208.621 46.5379L211.854 53.2847L220.181 49.5432C220.214 49.1995 220.318 48.1497 220.458 46.6657V46.5379H208.621Z" fill="#F5EBDD"/>
<path fill-rule="evenodd" clip-rule="evenodd" d="M192.707 65.17C192.962 65.1387 193.194 65.3198 193.226 65.5744L194.047 72.2469C194.078 72.5015 193.897 72.7333 193.642 72.7646C193.387 72.7959 193.155 72.6148 193.123 72.3602L192.302 65.6877C192.271 65.4331 192.452 65.2013 192.707 65.17Z" fill="#4756DF"/>
<path d="M208.493 60.4333C209.512 60.4333 210.338 59.6088 210.338 58.5916C210.338 57.5744 209.512 56.7499 208.493 56.7499C207.474 56.7499 206.649 57.5744 206.649 58.5916C206.649 59.6088 207.474 60.4333 208.493 60.4333Z" fill="#30242A"/>
<path d="M160.333 57.4002C161.352 57.4002 162.178 56.5756 162.178 55.5584C162.178 54.5413 161.352 53.7167 160.333 53.7167C159.314 53.7167 158.488 54.5413 158.488 55.5584C158.488 56.5756 159.314 57.4002 160.333 57.4002Z" fill="#30242A"/>
<path fill-rule="evenodd" clip-rule="evenodd" d="M174.045 55.9723C174.296 55.92 174.543 56.0812 174.595 56.3323L175.43 60.3363C175.482 60.5875 175.321 60.8334 175.07 60.8857C174.818 60.938 174.572 60.7768 174.519 60.5257L173.684 56.5217C173.632 56.2706 173.793 56.0246 174.045 55.9723Z" fill="#4756DF"/>
<path d="M208.551 46.5379H208.623L208.602 46.4938H220.465V46.5379H220.481C220.579 45.4905 220.698 44.241 220.823 42.8916C218.786 42.2088 213.694 40.1696 211.908 36.4026C214.915 35.4016 218.42 31.1468 215.918 27.6422C212.596 22.9972 206.895 29.1448 206.895 29.1448C206.895 29.1448 203.385 26.892 201.631 22.1379C200.88 22.3864 198.624 22.6372 196.87 22.1379C196.87 22.1379 196.116 24.1399 195.616 27.6422C195.546 28.1253 195.469 28.5897 195.384 29.0357C195.384 29.0357 193.111 28.8986 192.862 29.8996C192.55 31.1375 194.539 32.4544 194.539 32.4544C193.76 35.2413 193.113 37.3989 194.114 39.8979C194.997 42.102 196.872 44.652 202.887 43.9019L202.55 46.4868H208.579L208.551 46.5379Z" fill="#A15842"/>
<path d="M201.622 22.1379C203.376 26.892 206.886 29.1448 206.886 29.1448C206.886 29.1448 212.587 22.9996 215.909 27.6422C218.414 31.1468 214.906 35.4016 211.898 36.4026C213.685 40.1697 218.777 42.2088 220.814 42.8916C221.254 38.1189 221.784 32.0758 221.924 29.1448C222.156 24.3675 221.691 17.3606 213.904 13.8792C206.635 10.6277 199.868 15.6303 199.868 15.6303C199.868 15.6303 193.688 13.8536 193.355 17.8831C193.104 20.8861 196.865 22.1379 196.865 22.1379C198.615 22.6372 200.875 22.3864 201.622 22.1379Z" fill="#EAA58B"/>
<path fill-rule="evenodd" clip-rule="evenodd" d="M207.643 42.5266C207.789 42.7381 207.735 43.0272 207.523 43.1724C206.092 44.1524 204.34 44.606 203.12 44.8171C202.866 44.8609 202.626 44.6914 202.582 44.4387C202.538 44.1859 202.708 43.9455 202.961 43.9017C204.131 43.6994 205.729 43.2751 206.996 42.4064C207.208 42.2613 207.498 42.3151 207.643 42.5266Z" fill="#30242A"/>
<path fill-rule="evenodd" clip-rule="evenodd" d="M199.385 33.6224C199.612 33.7417 199.7 34.0225 199.58 34.2496C199.175 35.0199 198.471 35.3283 197.848 35.4075C197.538 35.4468 197.239 35.4318 196.984 35.3879C196.738 35.3455 196.499 35.2699 196.325 35.1623C196.107 35.0271 196.04 34.7408 196.175 34.5228C196.31 34.3047 196.597 34.2376 196.816 34.3728C196.85 34.3941 196.961 34.4411 197.143 34.4725C197.316 34.5023 197.522 34.5124 197.73 34.4859C198.145 34.4332 198.531 34.2458 198.757 33.8177C198.876 33.5906 199.157 33.5031 199.385 33.6224Z" fill="#30242A"/>
<path d="M199.617 28.901C200.036 28.901 200.375 28.562 200.375 28.1439C200.375 27.7257 200.036 27.3867 199.617 27.3867C199.198 27.3867 198.859 27.7257 198.859 28.1439C198.859 28.562 199.198 28.901 199.617 28.901Z" fill="#30242A"/>
<path fill-rule="evenodd" clip-rule="evenodd" d="M213.042 30.3958C213.18 30.6122 213.116 30.8993 212.9 31.037L210.143 32.7882C209.927 32.9259 209.639 32.8621 209.501 32.6457C209.363 32.4292 209.427 32.1421 209.644 32.0044L212.4 30.2533C212.617 30.1156 212.905 30.1794 213.042 30.3958Z" fill="#30242A"/>
<path d="M196.887 94.8711C196.887 94.8711 178.23 101.804 171.3 105.485C159.256 111.874 157.789 115.288 150.366 137.788C147.887 145.248 146.214 151.328 144.635 156.071L164.692 165.224L164.718 165.173L167.974 166.694C167.974 166.694 173.229 159.861 174.071 152.127C175.159 142.141 174.508 135.389 179.079 131.476L231.986 94.8642L196.887 94.8711Z" fill="#30242A"/>
<path d="M141.398 163.84L145.774 165.876C148.797 167.288 148.565 169.33 148.207 170.117C147.877 170.738 147.513 171.34 147.118 171.922L158.027 177.071C160.472 173.252 162.697 169.297 164.691 165.226L144.634 156.071C143.578 159.26 142.568 161.84 141.398 163.84Z" fill="#A15842"/>
<path d="M145.774 165.876L141.399 163.84C140.236 165.816 138.934 167.223 137.266 168.076C136.017 168.692 134.647 169.027 133.253 169.056C132.888 169.07 132.537 169.093 132.19 169.116C133.121 170.779 133.544 173.327 133.544 173.327C136.131 174.024 139.231 173.155 141.453 172.266C142.29 171.929 142.999 171.587 143.504 171.337C143.855 171.156 144.243 171.058 144.638 171.051C145.033 171.044 145.424 171.127 145.781 171.295L147.131 171.931C147.526 171.35 147.889 170.747 148.219 170.127C148.573 169.33 148.81 167.288 145.774 165.876Z" fill="#FF7235"/>
<path d="M147.118 171.922L145.769 171.285C145.412 171.118 145.021 171.034 144.626 171.042C144.231 171.049 143.843 171.147 143.492 171.327C142.987 171.587 142.278 171.929 141.441 172.256C139.231 173.146 136.13 174.017 133.532 173.318C133.532 173.318 133.109 170.763 132.178 169.107C131.946 169.123 131.739 169.142 131.525 169.163C127.317 169.564 124.814 170.703 123.326 172.396L151.817 185.657C153.001 184.224 154.676 182.066 156.625 179.194C157.09 178.522 157.555 177.819 158.021 177.071L147.118 171.922Z" fill="#30242A"/>
<path d="M121.944 174.769L149.954 187.775C149.954 187.775 150.651 187.06 151.814 185.645L123.325 172.396C122.717 173.091 122.248 173.897 121.944 174.769Z" fill="#FF7235"/>
<path fill-rule="evenodd" clip-rule="evenodd" d="M218.57 94.4231C218.817 94.3553 219.073 94.5009 219.141 94.7484C219.209 94.9958 219.063 95.2513 218.815 95.3191L218.692 94.8711L218.57 94.4231ZM184.532 107.481C190.119 104.072 198.642 100.807 205.738 98.3998C209.292 97.1942 212.499 96.2003 214.817 95.5079C215.977 95.1616 216.914 94.8906 217.562 94.7061C217.886 94.6138 218.137 94.5432 218.308 94.4955C218.393 94.4717 218.459 94.4537 218.503 94.4415L218.569 94.4232C218.569 94.4231 218.57 94.4231 218.692 94.8711C218.815 95.3191 218.816 95.319 218.815 95.3191L218.751 95.3369C218.707 95.3488 218.643 95.3667 218.558 95.3903C218.389 95.4375 218.139 95.5076 217.817 95.5994C217.173 95.783 216.239 96.0528 215.084 96.3979C212.774 97.088 209.578 98.0784 206.038 99.2794C198.944 101.686 190.508 104.923 185.017 108.273L185.017 108.274C179.318 111.745 176.521 114.843 175.305 119.33C174.071 123.882 174.445 129.906 175.287 139.31C175.31 139.565 175.121 139.791 174.865 139.814C174.609 139.837 174.383 139.648 174.36 139.393C173.523 130.042 173.121 123.833 174.407 119.088C175.71 114.279 178.729 111.016 184.532 107.481Z" fill="#081B33"/>
<path fill-rule="evenodd" clip-rule="evenodd" d="M213.31 131.049C213.559 131.112 213.71 131.365 213.647 131.613L212.781 135.016C212.718 135.264 212.465 135.415 212.216 135.352C211.967 135.288 211.816 135.036 211.88 134.787L212.745 131.385C212.808 131.136 213.061 130.986 213.31 131.049Z" fill="#A15842"/>
<path fill-rule="evenodd" clip-rule="evenodd" d="M240.183 110.114C240.183 109.857 240.391 109.649 240.648 109.649H255.183C255.44 109.649 255.648 109.857 255.648 110.114C255.648 110.37 255.44 110.578 255.183 110.578H240.648C240.391 110.578 240.183 110.37 240.183 110.114Z" fill="#A15842"/>
<path d="M84.195 169.304V173.218H119.378V169.304H84.195Z" fill="#A15842"/>
<path d="M78.4008 187.362L87.5513 132.974H116.024L125.175 187.362C125.216 187.619 125.201 187.883 125.13 188.135C125.06 188.386 124.935 188.619 124.766 188.818C124.596 189.017 124.385 189.176 124.148 189.286C123.911 189.395 123.652 189.452 123.391 189.452C122.978 189.452 122.579 189.311 122.258 189.053C121.936 188.795 121.713 188.435 121.625 188.033L109.644 132.974H93.9316L81.9503 188.044C81.8622 188.447 81.6391 188.807 81.318 189.065C80.9969 189.323 80.597 189.463 80.1848 189.464C79.9222 189.464 79.6626 189.407 79.4243 189.297C79.1859 189.186 78.9744 189.026 78.8046 188.826C78.6348 188.626 78.5107 188.391 78.4409 188.138C78.3712 187.885 78.3575 187.62 78.4008 187.362Z" fill="#A15842"/>
<path d="M55.0473 169.304V173.218H90.2307V169.304H55.0473Z" fill="#CA7358"/>
<path d="M49.2531 187.362L58.4036 132.974H86.8765L96.0271 187.362C96.0685 187.619 96.0533 187.883 95.9827 188.135C95.9121 188.386 95.7877 188.619 95.6181 188.818C95.4485 189.017 95.2377 189.176 95.0003 189.286C94.7629 189.395 94.5045 189.452 94.243 189.452C93.8308 189.452 93.431 189.311 93.1098 189.053C92.7887 188.795 92.5656 188.435 92.4776 188.033L80.4962 132.974H64.7839L52.8026 188.044C52.7145 188.447 52.4914 188.807 52.1703 189.065C51.8492 189.323 51.4494 189.463 51.0371 189.464C50.7745 189.464 50.5149 189.407 50.2766 189.297C50.0382 189.186 49.8268 189.026 49.6569 188.826C49.4871 188.626 49.363 188.391 49.2933 188.138C49.2235 187.885 49.2098 187.62 49.2531 187.362Z" fill="#CA7358"/>
<path d="M78.0125 124.206L74.5235 110.578H97.6558C102.19 110.577 106.596 112.083 110.179 114.859C113.761 117.634 116.317 121.521 117.443 125.906L119.806 135.138H92.1268C88.8925 135.139 85.7499 134.066 83.1943 132.086C80.6387 130.107 78.8157 127.335 78.0125 124.206Z" fill="#3EC1F3"/>
<path d="M64.6 135.15H119.804L118.873 131.45H94.6407L85.397 95.3635C84.1381 90.4477 81.2761 86.0903 77.2624 82.9784C73.2487 79.8665 68.3117 78.1773 63.23 78.1771C50.7951 78.1771 41.6957 89.8801 44.7753 101.908L50.4881 124.204C51.2881 127.335 53.1096 130.11 55.665 132.092C58.2204 134.074 61.3642 135.15 64.6 135.15Z" fill="#3EC1F3"/>
<path fill-rule="evenodd" clip-rule="evenodd" d="M88.4684 131.09C88.4684 130.834 88.6767 130.626 88.9336 130.626H118.302C118.559 130.626 118.767 130.834 118.767 131.09C118.767 131.347 118.559 131.555 118.302 131.555H88.9336C88.6767 131.555 88.4684 131.347 88.4684 131.09Z" fill="#4756DF"/>
<path fill-rule="evenodd" clip-rule="evenodd" d="M89.273 110.414C89.522 110.35 89.7754 110.5 89.839 110.749L94.9865 130.84C95.0502 131.089 94.9 131.342 94.6511 131.406C94.4022 131.469 94.1488 131.319 94.0851 131.071L88.9376 110.979C88.874 110.73 89.0241 110.477 89.273 110.414Z" fill="#4756DF"/>
<path fill-rule="evenodd" clip-rule="evenodd" d="M88.9899 131.518C89.2388 131.455 89.4922 131.604 89.5559 131.853L90.3072 134.786C90.3708 135.035 90.2207 135.288 89.9717 135.351C89.7228 135.415 89.4694 135.265 89.4058 135.017L88.6545 132.083C88.5908 131.835 88.741 131.582 88.9899 131.518Z" fill="#4756DF"/>
<path fill-rule="evenodd" clip-rule="evenodd" d="M46.5389 110.114C46.5389 109.857 46.7472 109.649 47.0041 109.649H61.5394C61.7963 109.649 62.0046 109.857 62.0046 110.114C62.0046 110.37 61.7963 110.578 61.5394 110.578H47.0041C46.7472 110.578 46.5389 110.37 46.5389 110.114Z" fill="#4756DF"/>
<path d="M84.9182 181.674L84.6251 182.347L5.2961 183.321C4.67022 183.321 4.05046 183.444 3.47222 183.683C2.89398 183.922 2.36858 184.272 1.92601 184.714C1.48345 185.156 1.13239 185.681 0.89287 186.258C0.653355 186.836 0.530075 187.454 0.530075 188.079V189.689H81.4478H98.8022C101.186 187.522 90.5565 183.622 84.9182 181.674Z" fill="#EAA58B"/>
<path fill-rule="evenodd" clip-rule="evenodd" d="M3.35195 187.273C3.60888 187.273 3.81716 187.481 3.81716 187.738V189.457C3.81716 189.713 3.60888 189.921 3.35195 189.921C3.09503 189.921 2.88675 189.713 2.88675 189.457V187.738C2.88675 187.481 3.09503 187.273 3.35195 187.273Z" fill="#A15842"/>
<path fill-rule="evenodd" clip-rule="evenodd" d="M5.51911 187.273C5.77604 187.273 5.98432 187.481 5.98432 187.738V189.457C5.98432 189.713 5.77604 189.921 5.51911 189.921C5.26219 189.921 5.05391 189.713 5.05391 189.457V187.738C5.05391 187.481 5.26219 187.273 5.51911 187.273Z" fill="#A15842"/>
<path d="M34.1544 184.714C33.1217 179.972 31.9889 165.101 31.8819 163.679C31.7005 163.679 31.519 163.693 31.3353 163.705C24.6084 164.137 20.4867 172.802 19.4028 174.751C19.4028 174.751 15.3904 175.814 12.2945 177.238C12.7627 177.462 13.125 177.859 13.304 178.346C13.7482 179.651 12.5782 181.228 10.6918 181.867C10.1292 182.062 9.53559 182.152 8.94034 182.134C9.79399 186.974 14.0576 189.696 23.0919 189.696H38.7507C37.4365 189.387 34.9406 188.326 34.1544 184.714Z" fill="#EAA58B"/>
<path d="M84.7509 171.539C83.1762 173.515 77.7496 175.294 75.8074 170.635C71.8811 172.698 62.6421 170.635 63.4585 161.45C53.9218 163.331 44.4317 169.23 43.9385 169.539C46.6972 174.444 49.7536 179.99 50.4258 181.683C51.6028 184.621 51.5377 188.906 48.7511 189.696H84.4834C86.435 183.153 86.8048 176.741 84.7509 171.539Z" fill="#EAA58B"/>
<path d="M75.8076 170.635C77.7498 175.294 83.1764 173.515 84.7512 171.539C83.1229 167.432 80.0061 164.072 74.94 161.972C71.5696 160.579 67.513 160.648 63.4587 161.45C62.6423 170.635 71.8813 172.698 75.8076 170.635Z" fill="#30242A"/>
<path d="M10.6924 181.867C12.5788 181.228 13.7488 179.651 13.3045 178.346C13.1255 177.859 12.7633 177.462 12.295 177.238C10.3528 178.13 8.7734 179.163 8.7734 180.167C8.77198 180.826 8.82802 181.484 8.94088 182.134C9.53613 182.152 10.1297 182.062 10.6924 181.867Z" fill="#30242A"/>
<path fill-rule="evenodd" clip-rule="evenodd" d="M28.0724 183.794C27.5079 183.794 26.949 183.905 26.4275 184.121C25.9059 184.337 25.4321 184.653 25.0329 185.051C24.6338 185.45 24.3171 185.923 24.1011 186.444C23.8851 186.965 23.7739 187.523 23.7739 188.086V189.464C23.7739 189.72 23.5656 189.928 23.3087 189.928C23.0518 189.928 22.8435 189.72 22.8435 189.464V188.086C22.8435 187.401 22.9788 186.722 23.2415 186.088C23.5043 185.455 23.8895 184.879 24.375 184.395C24.8606 183.91 25.437 183.525 26.0714 183.263C26.7058 183 27.3857 182.865 28.0724 182.865H35.2621C35.5191 182.865 35.7274 183.073 35.7274 183.33C35.7274 183.586 35.5191 183.794 35.2621 183.794H28.0724Z" fill="#A15842"/>
<path fill-rule="evenodd" clip-rule="evenodd" d="M26.1279 187.283C26.3848 187.283 26.5931 187.491 26.5931 187.747V189.464C26.5931 189.72 26.3848 189.928 26.1279 189.928C25.871 189.928 25.6627 189.72 25.6627 189.464V187.747C25.6627 187.491 25.871 187.283 26.1279 187.283Z" fill="#A15842"/>
<path fill-rule="evenodd" clip-rule="evenodd" d="M28.2985 187.283C28.5554 187.283 28.7637 187.491 28.7637 187.747V189.464C28.7637 189.72 28.5554 189.928 28.2985 189.928C28.0415 189.928 27.8333 189.72 27.8333 189.464V187.747C27.8333 187.491 28.0415 187.283 28.2985 187.283Z" fill="#A15842"/>
<path fill-rule="evenodd" clip-rule="evenodd" d="M58.017 187.283C58.2739 187.283 58.4822 187.491 58.4822 187.747V189.464C58.4822 189.72 58.2739 189.928 58.017 189.928C57.7601 189.928 57.5518 189.72 57.5518 189.464V187.747C57.5518 187.491 57.7601 187.283 58.017 187.283Z" fill="#A15842"/>
<path fill-rule="evenodd" clip-rule="evenodd" d="M60.1875 187.283C60.4444 187.283 60.6527 187.491 60.6527 187.747V189.464C60.6527 189.72 60.4444 189.928 60.1875 189.928C59.9306 189.928 59.7223 189.72 59.7223 189.464V187.747C59.7223 187.491 59.9306 187.283 60.1875 187.283Z" fill="#A15842"/>
<path fill-rule="evenodd" clip-rule="evenodd" d="M59.7458 183.794C59.1812 183.794 58.622 183.905 58.1002 184.12C57.5785 184.336 57.1044 184.652 56.705 185.051C56.3056 185.449 55.9888 185.922 55.7726 186.443C55.5565 186.964 55.4452 187.522 55.4452 188.086V189.464C55.4452 189.72 55.237 189.928 54.98 189.928C54.7231 189.928 54.5148 189.72 54.5148 189.464V188.086C54.5148 187.4 54.6502 186.721 54.9131 186.088C55.176 185.454 55.5614 184.878 56.0472 184.394C56.5331 183.909 57.1098 183.524 57.7445 183.262C58.3791 183 59.0593 182.865 59.7461 182.865C59.7461 182.865 59.746 182.865 59.7461 182.865H67.6545C67.9115 182.865 68.1197 183.073 68.1197 183.33C68.1197 183.586 67.9115 183.794 67.6545 183.794L59.7458 183.794Z" fill="#A15842"/>
<path fill-rule="evenodd" clip-rule="evenodd" d="M57.8933 171.046C58.1452 171.096 58.3085 171.341 58.258 171.593C58.0601 172.579 58.1519 174.665 58.7906 176.898C59.4273 179.123 60.5816 181.4 62.4254 182.831C62.6283 182.988 62.6649 183.28 62.5072 183.483C62.3496 183.685 62.0573 183.722 61.8544 183.564C59.7929 181.964 58.5606 179.476 57.896 177.153C57.2333 174.837 57.1087 172.591 57.3458 171.41C57.3962 171.159 57.6414 170.996 57.8933 171.046Z" fill="#A15842"/>
<path fill-rule="evenodd" clip-rule="evenodd" d="M8.73417 183.274C8.9744 183.183 9.243 183.304 9.33411 183.544C10.3434 186.201 12.8078 188.051 17.3098 188.825C17.563 188.868 17.733 189.108 17.6894 189.361C17.6459 189.614 17.4053 189.784 17.1521 189.74C12.4617 188.934 9.63206 186.948 8.46416 183.873C8.37306 183.633 8.49394 183.365 8.73417 183.274Z" fill="#A15842"/>
<path fill-rule="evenodd" clip-rule="evenodd" d="M86.4853 181.969C86.7408 181.997 86.9253 182.226 86.8975 182.481C86.6372 184.868 86.1647 187.227 85.4856 189.53C85.4131 189.776 85.1544 189.917 84.908 189.844C84.6615 189.772 84.5205 189.513 84.5931 189.267C85.2566 187.017 85.7182 184.713 85.9725 182.381C86.0003 182.126 86.2299 181.941 86.4853 181.969Z" fill="#A15842"/>
<path fill-rule="evenodd" clip-rule="evenodd" d="M25.3473 175.308C25.5181 175.116 25.8122 175.099 26.0041 175.27C26.9977 176.153 28.2766 176.65 29.6068 176.669C29.8637 176.673 30.069 176.884 30.0653 177.14C30.0616 177.397 29.8503 177.602 29.5934 177.598C28.0397 177.576 26.546 176.995 25.3854 175.964C25.1935 175.793 25.1764 175.5 25.3473 175.308Z" fill="#A15842"/>
<path d="M50.4252 181.683C49.7437 179.985 46.7036 174.444 43.9379 169.539L43.917 169.553C41.3863 166.815 38.2368 163.463 31.8821 163.679C31.9891 165.101 33.1219 179.972 34.1547 184.714C34.9409 188.326 37.4367 189.387 38.7509 189.696H48.7528C51.544 188.906 51.6022 184.621 50.4252 181.683Z" fill="#30242A"/>
<path fill-rule="evenodd" clip-rule="evenodd" d="M19.1341 154.154C19.2867 154.27 19.3525 154.468 19.2998 154.652L18.0351 159.073L21.2269 157.179C21.4478 157.048 21.7332 157.12 21.8645 157.341C21.9958 157.561 21.9232 157.846 21.7024 157.977L17.5039 160.469C17.34 160.567 17.1333 160.554 16.9823 160.438C16.8313 160.322 16.7665 160.126 16.8189 159.943L18.0778 155.541L15.5246 157.099C15.3054 157.233 15.0191 157.164 14.8851 156.945C14.7511 156.726 14.8203 156.44 15.0395 156.306L18.61 154.128C18.7735 154.028 18.9816 154.039 19.1341 154.154Z" fill="#FFB7D5"/>
<path fill-rule="evenodd" clip-rule="evenodd" d="M26.393 145.473C26.4767 145.645 26.4461 145.851 26.3159 145.991L23.5758 148.946L26.6376 148.733C26.8939 148.715 27.1162 148.908 27.134 149.164C27.1519 149.42 26.9587 149.642 26.7024 149.66L22.469 149.955C22.2787 149.968 22.0995 149.864 22.0171 149.692C21.9346 149.52 21.9656 149.315 22.0952 149.176L24.8235 146.233L22.2503 146.438C21.9942 146.458 21.77 146.268 21.7496 146.012C21.7291 145.756 21.9202 145.532 22.1763 145.512L25.9375 145.212C26.1285 145.197 26.3094 145.3 26.393 145.473Z" fill="#FFB7D5"/>
<path d="M208.493 60.4333C209.512 60.4333 210.338 59.6088 210.338 58.5916C210.338 57.5744 209.512 56.7499 208.493 56.7499C207.474 56.7499 206.649 57.5744 206.649 58.5916C206.649 59.6088 207.474 60.4333 208.493 60.4333Z" fill="#30242A"/>
<path d="M235.1 64.9691L235.468 67.0315C235.414 66.3336 235.291 65.6427 235.1 64.9691Z" fill="#A15842"/>
<path d="M220.458 46.6657L220.472 46.5379H220.456L220.458 46.6657Z" fill="#3EC1F3"/>
<path d="M202.538 46.4938H202.501L202.496 46.5378H202.531L202.538 46.4938Z" fill="#F5EBDD"/>
<path d="M208.548 46.5379L208.567 46.4938H202.538L202.531 46.5379H208.548Z" fill="#F5EBDD"/>
<path d="M202.496 46.5379L202.091 49.6013L202.126 49.6384L202.531 46.5379H202.496Z" fill="#F5EBDD"/>
<path d="M220.454 46.4938H208.6L208.621 46.5379H220.456L220.454 46.4938Z" fill="#F5EBDD"/>
<path d="M79.4522 21.181C85.3101 21.181 90.0589 16.4395 90.0589 10.5905C90.0589 4.74154 85.3101 0 79.4522 0C73.5943 0 68.8456 4.74154 68.8456 10.5905C68.8456 16.4395 73.5943 21.181 79.4522 21.181Z" fill="#30242A"/>
<path d="M86.7775 17.6509C86.1285 17.9481 91.5761 5.0421 94.3533 7.05801C96.9701 8.96012 90.0595 16.1389 86.7775 17.6509Z" fill="#3EC1F3"/>
<path d="M86.4751 18.4405C85.882 19.1489 71.9886 14.2972 73.9146 11.4963C75.7568 8.80221 87.0682 17.7322 86.4751 18.4405Z" fill="#3EC1F3"/>
<path d="M105.639 25.0665C103.623 25.4056 100.669 24.7135 100.669 24.7135C96.6259 29.2517 92.3321 30.2596 92.3321 30.2596C89.5548 27.2404 84.5027 27.2404 83.7467 31.5207C82.907 36.2656 88.7965 37.5731 88.7965 37.5731C88.7965 37.5731 89.6316 43.5047 87.359 46.5309C87.0404 46.9536 86.7473 47.3252 86.4542 47.6527H97.7191L97.3842 45.6438C97.3842 45.6438 100.92 46.9049 103.951 45.1398C106.981 43.3747 107.74 40.0953 106.728 35.0509C106.13 32.0642 106.151 28.3691 105.639 25.0665Z" fill="#EAA58B"/>
<path d="M101.87 89.2391C96.8812 92.0563 94.276 97.47 94.276 97.47H111.63L106.469 87.1349C104.413 88.0221 102.485 88.8861 101.87 89.2391Z" fill="#FF7235"/>
<path d="M77.5959 50.5186C69.9758 51.364 67.166 54.0627 61.6184 60.7097C60.2484 62.3517 58.1294 65.148 56.8036 66.8945L56.8454 66.9293C56.8454 66.9293 47.1948 78.8785 47.639 87.964L61.1742 91.7381L70.4131 79.7169L73.0183 87.7318C73.0183 87.7318 67.1614 91.1969 63.9073 97.4862H94.2758C94.2758 97.4862 96.881 92.0725 101.87 89.2553C102.489 88.9023 104.413 88.043 106.469 87.1512L105.771 85.7577L107.937 79.0689L112.719 84.4757C112.719 84.4757 109.462 85.839 106.471 87.1349L111.633 97.47H129.857C140.052 90.7557 132.241 78.6277 128.989 74.2939C126.749 71.3142 116.406 56.3156 109.248 52.4184C104.475 49.8196 98.144 50.1819 98.144 50.1819L97.7207 47.6527H86.4534C84.9089 49.376 83.3249 49.8823 77.5959 50.5186Z" fill="#FF7235"/>
<path fill-rule="evenodd" clip-rule="evenodd" d="M117.057 82.3616C117.148 82.6018 117.026 82.8695 116.785 82.9597L112.868 84.4275C112.628 84.5176 112.359 84.396 112.269 84.1558C112.179 83.9156 112.301 83.6479 112.541 83.5577L116.458 82.0899C116.699 81.9998 116.967 82.1214 117.057 82.3616Z" fill="#A15842"/>
<path d="M77.3453 85.9319C77.4057 81.6771 78.1082 70.8984 83.4301 65.4104C89.301 59.372 102.52 60.647 106.642 66.0607C110.763 71.4744 107.944 79.0666 107.944 79.0666L105.993 85.7809L111.631 97.4769H61.0817L71.0604 88.3798L77.3453 85.9319Z" fill="#FFB7D5"/>
<path fill-rule="evenodd" clip-rule="evenodd" d="M76.8914 85.7739C76.8914 85.5174 77.0997 85.3094 77.3566 85.3094H105.976C106.233 85.3094 106.441 85.5174 106.441 85.7739C106.441 86.0304 106.233 86.2384 105.976 86.2384H77.3566C77.0997 86.2384 76.8914 86.0304 76.8914 85.7739Z" fill="#F5EBDD"/>
<path fill-rule="evenodd" clip-rule="evenodd" d="M89.2558 76.6768C89.2558 76.4202 89.4641 76.2123 89.721 76.2123H100.784C101.041 76.2123 101.249 76.4202 101.249 76.6768C101.249 76.9333 101.041 77.1413 100.784 77.1413H89.721C89.4641 77.1413 89.2558 76.9333 89.2558 76.6768Z" fill="#F5EBDD"/>
<path d="M110.113 85.558L115.752 98.5639H104.905C102.738 98.5639 99.9162 98.5639 100.135 97.4793C98.3973 98.7799 95.5781 98.5639 95.7945 97.4793C92.9753 98.7799 92.1077 97.9136 91.8914 97.4793C91.6751 97.045 94.4942 93.3638 100.784 89.8801C104.438 87.8781 110.113 85.558 110.113 85.558Z" fill="#EAA58B"/>
<path fill-rule="evenodd" clip-rule="evenodd" d="M105.314 90.9676C105.437 91.1929 105.354 91.475 105.128 91.5978C101.572 93.5334 98.9894 95.3069 97.2987 96.5931C96.4533 97.2363 95.831 97.7576 95.4217 98.1164C95.2171 98.2958 95.0657 98.4346 94.9664 98.5277C94.9167 98.5742 94.88 98.6093 94.8562 98.6324C94.8443 98.6439 94.8356 98.6524 94.8301 98.6578L94.8242 98.6636L94.8231 98.6647C94.6414 98.846 94.3469 98.8461 94.1652 98.6647C93.9836 98.4833 93.9836 98.1892 94.1652 98.0078L94.4754 98.3175C94.1652 98.0078 94.1653 98.0077 94.1654 98.0076L94.1665 98.0066L94.1689 98.0042L94.1774 97.9958C94.1846 97.9887 94.1951 97.9784 94.2088 97.9652C94.2361 97.9387 94.2764 97.9002 94.3298 97.8502C94.4364 97.7503 94.5954 97.6046 94.8078 97.4183C95.2327 97.0458 95.8717 96.5108 96.7348 95.8542C98.461 94.541 101.084 92.7414 104.683 90.7822C104.908 90.6594 105.191 90.7424 105.314 90.9676Z" fill="#A15842"/>
<path fill-rule="evenodd" clip-rule="evenodd" d="M107.254 93.3264C107.39 93.5438 107.324 93.8304 107.106 93.9666C103.428 96.2655 99.8933 98.7861 96.5222 101.514C96.3226 101.676 96.0296 101.645 95.8679 101.446C95.7061 101.247 95.7367 100.954 95.9363 100.793C99.3369 98.0406 102.902 95.4981 106.612 93.1791C106.83 93.043 107.117 93.1089 107.254 93.3264Z" fill="#A15842"/>
<path fill-rule="evenodd" clip-rule="evenodd" d="M109.44 95.9575C109.559 96.1851 109.47 96.4656 109.242 96.5839C106.331 98.0943 103.25 99.8762 100.895 101.282C99.7179 101.985 98.7231 102.593 98.0228 103.025C97.6727 103.241 97.3962 103.413 97.2074 103.531C97.113 103.59 97.0405 103.636 96.9917 103.666L96.9183 103.713C96.9182 103.713 96.918 103.713 96.6692 103.32C96.4205 102.928 96.4205 102.928 96.4206 102.928L96.496 102.88C96.5454 102.849 96.6186 102.803 96.7137 102.744C96.9038 102.625 97.1818 102.452 97.5336 102.235C98.2371 101.801 99.2359 101.19 100.418 100.485C102.78 99.0747 105.878 97.2823 108.813 95.7596C109.041 95.6413 109.322 95.7299 109.44 95.9575ZM96.2761 103.569C96.1388 103.352 96.2035 103.065 96.4206 102.928L96.6692 103.32L96.918 103.713C96.7009 103.85 96.4135 103.785 96.2761 103.569Z" fill="#A15842"/>
<path d="M77.4011 50.1412L83.0964 48.0353C83.1099 48.0304 83.1242 48.0281 83.1386 48.0286C83.1529 48.0292 83.167 48.0325 83.18 48.0385C83.1931 48.0445 83.2048 48.053 83.2146 48.0635C83.2243 48.074 83.2319 48.0864 83.2369 48.0998L89.9743 66.2661C90.2641 67.0476 90.2312 67.9121 89.8827 68.6694C89.5341 69.4266 88.8986 70.0147 88.1159 70.3041C87.3332 70.5935 86.4674 70.5606 85.709 70.2126C84.9505 69.8646 84.3616 69.23 84.0718 68.4485L77.3344 50.2822C77.3293 50.2686 77.3271 50.2541 77.3277 50.2396C77.3283 50.2251 77.3318 50.2108 77.3381 50.1977C77.3443 50.1845 77.3531 50.1728 77.3639 50.1631C77.3747 50.1534 77.3874 50.1459 77.4011 50.1412Z" fill="#A15842"/>
<path d="M102.43 71.068C102.842 71.1152 103.258 71.0809 103.656 70.9671C104.054 70.8534 104.426 70.6624 104.75 70.405C105.074 70.1477 105.344 69.829 105.545 69.4674C105.745 69.1057 105.873 68.7081 105.919 68.2972L107.799 51.7379C105.82 50.9695 103.741 50.4869 101.625 50.305L99.6576 67.5842C99.6103 67.9948 99.6445 68.4106 99.7583 68.808C99.8721 69.2053 100.063 69.5764 100.321 69.8999C100.578 70.2235 100.897 70.4932 101.259 70.6936C101.621 70.894 102.019 71.0212 102.43 71.068Z" fill="#A15842"/>
<path d="M86.9623 68.9592C87.981 68.9592 88.8069 68.1346 88.8069 67.1174C88.8069 66.1003 87.981 65.2757 86.9623 65.2757C85.9436 65.2757 85.1178 66.1003 85.1178 67.1174C85.1178 68.1346 85.9436 68.9592 86.9623 68.9592Z" fill="#30242A"/>
<path d="M102.844 69.5305C103.863 69.5305 104.689 68.7059 104.689 67.6888C104.689 66.6716 103.863 65.847 102.844 65.847C101.826 65.847 101 66.6716 101 67.6888C101 68.7059 101.826 69.5305 102.844 69.5305Z" fill="#30242A"/>
<path d="M67.3292 50.939L78.4825 47.6527H86.4538C86.7469 47.3252 87.0399 46.9559 87.3586 46.5309C89.6311 43.5117 88.7961 37.5731 88.7961 37.5731C88.7961 37.5731 82.9066 36.2655 83.7463 31.5207C84.5023 27.2357 89.5613 27.2357 92.3316 30.2596C92.3316 30.2596 96.6255 29.2517 100.668 24.7135C100.668 24.7135 103.622 25.4103 105.639 25.0665C105.285 22.7928 104.681 20.7072 103.445 19.1651C100.422 15.3818 92.0804 12.8619 85.5141 17.6532C78.9477 22.4445 79.4525 30.2596 79.699 33.2858C79.699 33.2858 72.6279 31.0167 67.5781 36.305C66.1165 37.8193 65.052 39.6705 64.4791 41.6942C63.9061 43.718 63.8425 45.8516 64.2938 47.9058C64.2938 47.9058 54.9897 47.6434 53.1823 56.2273C52.2519 60.6237 53.7197 63.6917 55.5782 65.7262L56.7412 63.362L67.3292 50.939Z" fill="#30242A"/>
<path d="M77.5958 50.5186C83.3271 49.8823 84.9112 49.376 86.4556 47.6527H78.482L67.3287 50.939L56.736 63.3689L55.573 65.7332C55.9517 66.1482 56.3589 66.5363 56.7919 66.8945C58.1084 65.148 60.2367 62.3517 61.6067 60.7097C67.1636 54.0627 69.9734 51.364 77.5958 50.5186Z" fill="#30242A"/>
<path fill-rule="evenodd" clip-rule="evenodd" d="M93.7366 44.4609C93.8591 44.2354 94.1414 44.1516 94.3673 44.2738C95.3411 44.8007 96.3451 45.2699 97.3741 45.679C97.6128 45.7739 97.7293 46.0441 97.6343 46.2824C97.5392 46.5207 97.2687 46.637 97.03 46.5421C95.967 46.1195 94.9299 45.6349 93.924 45.0906C93.6981 44.9684 93.6142 44.6865 93.7366 44.4609Z" fill="#A15842"/>
<path fill-rule="evenodd" clip-rule="evenodd" d="M63.7774 47.7423C64.0258 47.677 64.2803 47.8252 64.3457 48.0732C64.7045 49.4338 65.1898 50.758 65.7952 52.0284C65.9056 52.26 65.8071 52.5372 65.5751 52.6474C65.3431 52.7576 65.0655 52.6592 64.9551 52.4276C64.3247 51.1049 63.8195 49.7263 63.4459 48.3098C63.3805 48.0617 63.5289 47.8076 63.7774 47.7423Z" fill="#081B33"/>
<path fill-rule="evenodd" clip-rule="evenodd" d="M79.1424 33.0479C79.3948 32.9999 79.6384 33.1653 79.6864 33.4173L80.4145 37.2355C80.4625 37.4875 80.2969 37.7306 80.0445 37.7786C79.7921 37.8266 79.5485 37.6612 79.5005 37.4092L78.7724 33.591C78.7244 33.339 78.89 33.0958 79.1424 33.0479Z" fill="#081B33"/>
<path fill-rule="evenodd" clip-rule="evenodd" d="M76.1065 72.3981C76.3163 72.5462 76.3661 72.8361 76.2177 73.0455L71.1493 80.2011C71.0009 80.4106 70.7106 80.4603 70.5009 80.3121C70.2911 80.164 70.2413 79.8741 70.3897 79.6647L75.4581 72.5091C75.6064 72.2997 75.8967 72.25 76.1065 72.3981Z" fill="#A15842"/>
<path d="M88.795 40.4739C90.2594 40.4739 91.4466 39.2885 91.4466 37.8263C91.4466 36.364 90.2594 35.1786 88.795 35.1786C87.3305 35.1786 86.1433 36.364 86.1433 37.8263C86.1433 39.2885 87.3305 40.4739 88.795 40.4739Z" fill="#F5EBDD"/>
<path fill-rule="evenodd" clip-rule="evenodd" d="M86.8863 31.781C87.0224 31.5634 87.3094 31.4971 87.5273 31.633L89.5463 32.8918C89.7642 33.0277 89.8306 33.3142 89.6945 33.5318C89.5584 33.7494 89.2714 33.8157 89.0535 33.6798L87.0345 32.421C86.8166 32.2851 86.7503 31.9986 86.8863 31.781Z" fill="#A15842"/>
<path fill-rule="evenodd" clip-rule="evenodd" d="M99.3888 38.0536C99.6163 37.9345 99.8975 38.0221 100.017 38.2494C100.243 38.6806 100.633 38.8705 101.053 38.9243C101.264 38.9514 101.472 38.9414 101.646 38.9115C101.83 38.8801 101.941 38.8328 101.976 38.8115C102.194 38.6759 102.481 38.7427 102.616 38.9605C102.752 39.1783 102.685 39.4647 102.467 39.6002C102.292 39.709 102.051 39.7848 101.804 39.8272C101.547 39.8711 101.246 39.8857 100.934 39.8457C100.308 39.7654 99.599 39.4547 99.1927 38.6806C99.0734 38.4534 99.1612 38.1727 99.3888 38.0536Z" fill="#A15842"/>
<path d="M98.1062 33.5343C98.525 33.5343 98.8645 33.1953 98.8645 32.7772C98.8645 32.359 98.525 32.0201 98.1062 32.0201C97.6874 32.0201 97.3479 32.359 97.3479 32.7772C97.3479 33.1953 97.6874 33.5343 98.1062 33.5343Z" fill="#30242A"/>
<path d="M103.95 32.531C104.369 32.531 104.708 32.192 104.708 31.7739C104.708 31.3557 104.369 31.0168 103.95 31.0168C103.531 31.0168 103.192 31.3557 103.192 31.7739C103.192 32.192 103.531 32.531 103.95 32.531Z" fill="#30242A"/>
<path fill-rule="evenodd" clip-rule="evenodd" d="M101.754 33.3615C101.992 33.2653 102.264 33.3802 102.36 33.618L101.929 33.7921C102.36 33.618 102.36 33.618 102.36 33.618L102.361 33.6198L102.362 33.6241L102.369 33.6397C102.374 33.6532 102.382 33.6728 102.392 33.6976C102.411 33.7472 102.438 33.8179 102.471 33.9038C102.535 34.075 102.619 34.3087 102.698 34.555C102.776 34.7987 102.853 35.0669 102.899 35.3038C102.921 35.4217 102.939 35.5449 102.942 35.6604C102.944 35.7606 102.938 35.923 102.86 36.0735L102.857 36.0796C102.695 36.3789 102.449 36.6244 102.15 36.7859C101.923 36.9076 101.641 36.8233 101.519 36.5975C101.397 36.3717 101.482 36.09 101.708 35.9682C101.832 35.9012 101.937 35.8032 102.011 35.684C102.011 35.6837 102.011 35.6833 102.011 35.6829C102.01 35.6384 102.003 35.5705 101.985 35.4785C101.95 35.2956 101.886 35.0686 101.812 34.8385C101.739 34.611 101.66 34.3923 101.599 34.2297C101.569 34.1486 101.543 34.0821 101.525 34.0361C101.516 34.0131 101.509 33.9953 101.504 33.9834L101.499 33.9701L101.497 33.9663C101.401 33.7285 101.516 33.4576 101.754 33.3615ZM102.011 35.7141C102.011 35.7141 102.011 35.7127 102.011 35.7101C102.011 35.7129 102.011 35.7142 102.011 35.7141Z" fill="#A15842"/>
<path d="M141.033 187.143H136.879C137.169 187.962 137.291 188.831 137.237 189.698H154.773C155.085 186.263 152.798 182.517 146.213 179.528L146.076 179.463C144.269 180.817 142.645 183.058 141.033 187.143Z" fill="#3EC1F3"/>
<path d="M145.902 179.379C140.424 176.667 141.413 170.709 143.009 157.197C142.63 156.539 142.063 156.009 141.379 155.677C140.696 155.345 139.928 155.225 139.176 155.334C138.423 155.443 137.721 155.775 137.16 156.288C136.6 156.8 136.206 157.469 136.031 158.208C135.831 157.381 135.359 156.646 134.69 156.12C134.021 155.594 133.194 155.308 132.343 155.308C131.491 155.308 130.665 155.594 129.996 156.12C129.327 156.646 128.854 157.381 128.655 158.208C128.455 157.381 127.983 156.646 127.314 156.12C126.645 155.594 125.818 155.308 124.967 155.308C124.115 155.308 123.289 155.594 122.62 156.12C121.951 156.646 121.479 157.381 121.279 158.208C121.079 157.381 120.607 156.646 119.938 156.12C119.269 155.594 118.442 155.308 117.591 155.308C116.74 155.308 115.913 155.594 115.244 156.12C114.575 156.646 114.103 157.381 113.903 158.208C113.703 157.381 113.231 156.646 112.562 156.12C111.893 155.594 111.067 155.308 110.215 155.308C109.364 155.308 108.537 155.594 107.868 156.12C107.199 156.646 106.727 157.381 106.527 158.208C106.388 157.626 106.112 157.086 105.723 156.632C105.334 156.178 104.843 155.822 104.289 155.594C103.736 155.366 103.137 155.272 102.54 155.319C101.943 155.367 101.366 155.555 100.856 155.869C100.88 157.065 100.926 158.314 101.001 159.636C101.354 165.89 102.768 174.256 103.983 180.573C109.9 180.889 112.298 185.251 113.054 187.143H123.016C123.107 186.911 123.196 186.695 123.286 186.477L123.342 186.344C123.428 186.142 123.512 185.945 123.598 185.752C123.619 185.701 123.642 185.655 123.663 185.606C123.74 185.434 123.817 185.269 123.896 185.107L123.965 184.96C124.038 184.805 124.11 184.659 124.182 184.521L124.28 184.324L124.498 183.904L124.624 183.671C124.666 183.592 124.71 183.516 124.752 183.439C124.826 183.307 124.903 183.177 124.984 183.049C125.017 182.998 125.047 182.947 125.077 182.896C125.252 182.61 125.426 182.34 125.603 182.087L125.636 182.039C125.736 181.897 125.836 181.76 125.936 181.625C126.543 180.8 127.266 180.065 128.08 179.442C128.266 179.544 128.459 179.642 128.664 179.735C133.509 181.932 136.026 184.545 136.896 187.134H141.034C142.646 183.049 144.269 180.808 146.074 179.451L145.902 179.379Z" fill="#F5EBDD"/>
<path d="M136.879 187.143H136.895C136.025 184.554 133.509 181.941 128.664 179.744C128.459 179.651 128.266 179.553 128.08 179.451C127.292 180.053 126.591 180.761 125.998 181.555L125.956 181.611L125.938 181.634C125.837 181.769 125.737 181.906 125.637 182.048L125.605 182.097C125.428 182.35 125.254 182.619 125.079 182.905C125.049 182.956 125.019 183.007 124.986 183.058C124.912 183.186 124.835 183.316 124.754 183.448C124.712 183.523 124.668 183.599 124.626 183.681L124.5 183.913L124.281 184.333L124.184 184.531C124.112 184.671 124.04 184.818 123.967 184.97L123.898 185.116C123.823 185.278 123.746 185.443 123.665 185.615C123.644 185.664 123.621 185.71 123.6 185.761C123.514 185.954 123.43 186.152 123.344 186.354L123.288 186.486C123.197 186.704 123.109 186.925 123.018 187.153H113.065C112.3 185.26 109.902 180.898 103.994 180.582C105.006 185.857 105.88 189.705 105.88 189.705H137.237C137.292 188.836 137.171 187.964 136.879 187.143Z" fill="#3EC1F3"/>
<path d="M69.3298 107.475V103.527H61.9144C61.2961 107.055 61.4421 110.674 62.3424 114.141H62.6448C64.4162 114.141 66.1151 113.439 67.3685 112.189C68.6219 110.939 69.3273 109.244 69.3298 107.475Z" fill="#A15842"/>
<path d="M135.584 108.281L135.231 108.081C132.756 107.986 129.722 108.225 126.054 109.05L125.996 109.064C125.701 109.129 125.401 109.201 125.096 109.275L124.926 109.317C124.633 109.389 124.338 109.466 124.038 109.549L123.859 109.596C123.531 109.684 123.2 109.779 122.863 109.877L122.761 109.905C122.384 110.016 122 110.137 121.612 110.253C108.067 114.491 102.059 125.117 100.252 131.703H104.257C103.062 137.259 100.608 143.153 100.857 155.869C101.366 155.554 101.944 155.365 102.541 155.317C103.138 155.269 103.739 155.363 104.292 155.591C104.846 155.819 105.338 156.175 105.728 156.63C106.117 157.085 106.393 157.626 106.532 158.208C106.732 157.381 107.204 156.646 107.873 156.12C108.542 155.594 109.369 155.308 110.22 155.308C111.071 155.308 111.898 155.594 112.567 156.12C113.236 156.646 113.708 157.381 113.908 158.208C114.108 157.381 114.58 156.646 115.249 156.12C115.918 155.594 116.744 155.308 117.596 155.308C118.447 155.308 119.274 155.594 119.943 156.12C120.612 156.646 121.084 157.381 121.284 158.208C121.483 157.381 121.956 156.646 122.625 156.12C123.294 155.594 124.12 155.308 124.972 155.308C125.823 155.308 126.65 155.594 127.319 156.12C127.987 156.646 128.46 157.381 128.659 158.208C128.859 157.381 129.331 156.646 130 156.12C130.669 155.594 131.496 155.308 132.347 155.308C133.199 155.308 134.025 155.594 134.694 156.12C135.363 156.646 135.836 157.381 136.035 158.208C136.211 157.469 136.604 156.8 137.165 156.288C137.726 155.775 138.428 155.443 139.18 155.334C139.933 155.225 140.7 155.345 141.384 155.677C142.067 156.009 142.635 156.539 143.013 157.197C143.393 153.981 143.807 150.337 144.176 146.207C146.307 122.325 147.931 115.321 135.584 108.281Z" fill="#EAA58B"/>
<path fill-rule="evenodd" clip-rule="evenodd" d="M93.6461 97.5338C93.7315 97.2919 93.9972 97.1649 94.2395 97.2502L94.0848 97.6883L93.9301 98.1263C93.6878 98.041 93.5606 97.7757 93.6461 97.5338ZM128.471 180.167C134.744 183.013 136.891 186.471 136.784 189.519C136.775 189.776 136.976 189.991 137.233 190C137.489 190.009 137.705 189.808 137.714 189.552C137.84 185.953 135.278 182.235 128.856 179.321L128.855 179.321C127.151 178.549 126.095 177.501 125.466 176.048C124.827 174.569 124.611 172.632 124.683 170.053C124.755 167.479 125.109 164.322 125.572 160.425C125.616 160.053 125.661 159.674 125.707 159.289C126.14 155.645 126.646 151.401 127.087 146.465C127.236 144.796 127.383 143.208 127.523 141.696C127.892 137.701 128.213 134.234 128.399 131.199C128.654 127.016 128.657 123.615 128.168 120.74C127.676 117.852 126.689 115.489 124.969 113.388C123.255 111.294 120.835 109.487 117.519 107.676L117.519 107.676C111.751 104.53 105.932 101.924 101.558 100.106C99.3698 99.196 97.5416 98.4827 96.2599 97.9965C95.619 97.7534 95.1147 97.5671 94.7702 97.4415C94.598 97.3786 94.4657 97.331 94.3763 97.2989C94.3315 97.2829 94.2975 97.2708 94.2746 97.2627L94.2486 97.2534L94.2395 97.2502C94.2394 97.2502 94.2395 97.2502 94.0848 97.6883C93.9301 98.1263 93.93 98.1263 93.9301 98.1263L93.938 98.1291L93.9628 98.1379C93.985 98.1458 94.0181 98.1576 94.062 98.1733C94.1498 98.2048 94.2804 98.2518 94.4509 98.314C94.792 98.4384 95.2926 98.6234 95.9295 98.865C97.2035 99.3482 99.0224 100.058 101.2 100.963C105.557 102.775 111.343 105.366 117.073 108.491C120.334 110.273 122.64 112.011 124.249 113.976C125.851 115.932 126.782 118.139 127.25 120.895C127.721 123.662 127.725 126.977 127.47 131.143C127.285 134.162 126.967 137.607 126.598 141.596C126.458 143.111 126.31 144.704 126.16 146.382C125.72 151.304 125.216 155.535 124.783 159.18C124.737 159.565 124.692 159.944 124.648 160.316C124.187 164.203 123.826 167.404 123.753 170.028C123.68 172.647 123.891 174.749 124.612 176.416C125.344 178.108 126.583 179.313 128.471 180.167Z" fill="#30242A"/>
<path d="M121.612 110.251C107.463 114.689 101.978 125.145 100.243 131.701C102.059 125.119 108.067 114.498 121.612 110.251Z" fill="#A15842"/>
<path d="M113.8 108.302C118.657 106.018 123.98 104.895 129.347 105.023C123.58 102.192 117.666 99.6713 111.63 97.47H63.9066C63.9066 97.47 62.604 99.6368 61.9318 103.42C61.9318 103.46 61.9201 103.497 61.9132 103.536H69.3285V107.485C69.3285 108.361 69.1556 109.229 68.8197 110.039C68.4837 110.849 67.9913 111.585 67.3705 112.204C66.7498 112.824 66.0128 113.316 65.2018 113.651C64.3907 113.987 63.5214 114.159 62.6435 114.159H62.3411C64.9393 124.109 73.6177 131.71 84.7431 131.71H94.2286C96.1569 124.58 100.455 114.559 113.8 108.302Z" fill="#FFB7D5"/>
<path d="M121.611 110.251C127.349 108.451 131.82 107.951 135.229 108.081L134.843 107.868C133.001 106.862 131.152 105.91 129.347 105.023C123.98 104.895 118.657 106.018 113.8 108.302C100.455 114.559 96.1569 124.58 94.2286 131.701H100.241C101.977 125.145 107.461 114.689 121.611 110.251Z" fill="#A15842"/>
<path fill-rule="evenodd" clip-rule="evenodd" d="M104.112 132.3C104.112 132.044 104.321 131.836 104.577 131.836H109.727C109.984 131.836 110.192 132.044 110.192 132.3C110.192 132.557 109.984 132.765 109.727 132.765H104.577C104.321 132.765 104.112 132.557 104.112 132.3Z" fill="#A15842"/>
<path fill-rule="evenodd" clip-rule="evenodd" d="M123.923 84.2271C124.18 84.2271 124.388 84.4351 124.388 84.6916V95.7374C124.388 95.9939 124.18 96.2019 123.923 96.2019C123.666 96.2019 123.458 95.9939 123.458 95.7374V84.6916C123.458 84.4351 123.666 84.2271 123.923 84.2271Z" fill="#30242A"/>
<path fill-rule="evenodd" clip-rule="evenodd" d="M118.762 69.7095L118.764 69.7136C118.766 69.7178 118.77 69.7251 118.775 69.7352C118.785 69.7554 118.801 69.7871 118.824 69.8284C118.87 69.9112 118.941 70.0327 119.039 70.18C119.235 70.4752 119.536 70.8703 119.953 71.265C120.783 72.0511 122.07 72.8331 123.923 72.8331C125.777 72.8331 127.067 72.051 127.902 71.2644C128.321 70.8695 128.623 70.4742 128.821 70.1789C128.919 70.0315 128.99 69.91 129.036 69.8271C129.059 69.7858 129.076 69.7541 129.086 69.7339C129.092 69.7237 129.095 69.7165 129.097 69.7122L129.099 69.709L129.099 69.7086C129.208 69.4768 129.485 69.3773 129.718 69.4865C129.95 69.5957 130.05 69.8724 129.941 70.1045L129.52 69.9067C129.941 70.1045 129.941 70.1047 129.94 70.1049L129.94 70.1067L129.938 70.1102L129.933 70.1207C129.929 70.1293 129.923 70.1411 129.915 70.1558C129.9 70.1852 129.879 70.2264 129.85 70.2777C129.793 70.3803 129.708 70.5237 129.595 70.6942C129.367 71.0347 129.021 71.4871 128.54 71.9399C127.576 72.8487 126.068 73.7621 123.923 73.7621C121.779 73.7621 120.274 72.8486 119.313 71.9393C118.834 71.4863 118.489 71.0337 118.263 70.6931C118.15 70.5225 118.066 70.3791 118.009 70.2765C117.981 70.2251 117.959 70.1839 117.944 70.1544C117.937 70.1397 117.931 70.1279 117.927 70.1193L117.922 70.1088L117.92 70.1053L117.92 70.104L117.919 70.1035C117.919 70.1033 117.919 70.1031 118.341 69.9067L117.919 70.1031C117.811 69.8706 117.911 69.5942 118.144 69.4858C118.377 69.3775 118.653 69.4777 118.762 69.7095Z" fill="#30242A"/>
<path d="M119.08 77.3271H128.768V78.3374C128.768 79.6204 128.258 80.8509 127.349 81.7582C126.441 82.6654 125.208 83.1751 123.923 83.1751C122.638 83.1751 121.406 82.6654 120.497 81.7582C119.589 80.8509 119.078 79.6204 119.078 78.3374V77.3271H119.08Z" fill="#A15842"/>
<path fill-rule="evenodd" clip-rule="evenodd" d="M118.943 69.9927C118.777 69.9927 118.618 70.0585 118.501 70.1757C118.383 70.2928 118.317 70.4517 118.317 70.6174V78.4094C118.317 79.1447 118.463 79.8728 118.744 80.5522C119.026 81.2316 119.439 81.8489 119.96 82.3688C120.481 82.8888 121.099 83.3012 121.779 83.5826C122.46 83.864 123.189 84.0089 123.925 84.0089C125.413 84.0089 126.839 83.4189 127.891 82.3688C128.943 81.3187 129.534 79.8944 129.534 78.4094V70.6174C129.534 70.5354 129.517 70.4541 129.486 70.3784C129.454 70.3026 129.408 70.2337 129.35 70.1757C129.292 70.1177 129.223 70.0716 129.147 70.0402C129.071 70.0088 128.99 69.9927 128.908 69.9927H118.943ZM118.941 69.0637C118.529 69.0643 118.134 69.2279 117.843 69.5188C117.551 69.8102 117.387 70.2054 117.387 70.6174V78.4094C117.387 79.2667 117.556 80.1156 117.885 80.9077C118.213 81.6998 118.695 82.4195 119.302 83.0257C119.909 83.6319 120.63 84.1128 121.423 84.4409C122.217 84.769 123.067 84.9379 123.925 84.9379C125.66 84.9379 127.323 84.25 128.549 83.0257C129.775 81.8014 130.464 80.1408 130.464 78.4094V70.6174C130.464 70.4134 130.424 70.2114 130.345 70.0228C130.267 69.8343 130.153 69.6631 130.008 69.5188C129.864 69.3745 129.692 69.26 129.503 69.182C129.315 69.1039 129.112 69.0637 128.908 69.0637L118.941 69.0637Z" fill="#30242A"/>
<path d="M123.923 94.6551L119.08 97.47H128.768L123.923 94.6551Z" fill="#30232A"/>
<path fill-rule="evenodd" clip-rule="evenodd" d="M181.609 84.2271C181.866 84.2271 182.074 84.4351 182.074 84.6916V95.7374C182.074 95.9939 181.866 96.2019 181.609 96.2019C181.352 96.2019 181.144 95.9939 181.144 95.7374V84.6916C181.144 84.4351 181.352 84.2271 181.609 84.2271Z" fill="#30242A"/>
<path fill-rule="evenodd" clip-rule="evenodd" d="M176.447 69.7095L176.449 69.7136C176.451 69.7178 176.455 69.7251 176.46 69.7352C176.47 69.7554 176.486 69.7871 176.509 69.8284C176.555 69.9112 176.626 70.0327 176.724 70.18C176.92 70.4752 177.221 70.8703 177.638 71.265C178.468 72.0511 179.755 72.8331 181.608 72.8331C183.462 72.8331 184.752 72.051 185.587 71.2644C186.006 70.8695 186.308 70.4742 186.506 70.1789C186.604 70.0315 186.675 69.91 186.721 69.8271C186.744 69.7858 186.761 69.7541 186.771 69.7339C186.777 69.7237 186.78 69.7165 186.782 69.7122L186.784 69.709L186.784 69.7086C186.894 69.4768 187.17 69.3773 187.403 69.4865C187.635 69.5957 187.735 69.8724 187.626 70.1045L187.205 69.9067C187.626 70.1045 187.626 70.1047 187.625 70.1049L187.625 70.1067L187.623 70.1102L187.618 70.1207C187.614 70.1293 187.608 70.1411 187.6 70.1558C187.585 70.1852 187.564 70.2264 187.535 70.2777C187.478 70.3803 187.394 70.5237 187.28 70.6942C187.052 71.0347 186.706 71.4871 186.225 71.9399C185.261 72.8487 183.753 73.7621 181.608 73.7621C179.464 73.7621 177.959 72.8486 176.998 71.9393C176.519 71.4863 176.174 71.0337 175.948 70.6931C175.835 70.5225 175.751 70.3791 175.694 70.2765C175.666 70.2251 175.644 70.1839 175.63 70.1544C175.622 70.1397 175.616 70.1279 175.612 70.1193L175.607 70.1088L175.605 70.1053L175.605 70.104L175.604 70.1035C175.604 70.1033 175.604 70.1031 176.026 69.9067L175.604 70.1031C175.496 69.8706 175.596 69.5942 175.829 69.4858C176.062 69.3775 176.338 69.4777 176.447 69.7095Z" fill="#30242A"/>
<path d="M176.765 77.3271H186.453V78.3374C186.453 79.6204 185.943 80.8509 185.034 81.7582C184.126 82.6654 182.893 83.1751 181.608 83.1751C180.323 83.1751 179.091 82.6654 178.182 81.7582C177.274 80.8509 176.763 79.6204 176.763 78.3374V77.3271H176.765Z" fill="#FF7235"/>
<path fill-rule="evenodd" clip-rule="evenodd" d="M176.628 69.9927C176.462 69.9927 176.303 70.0585 176.186 70.1757C176.068 70.2928 176.003 70.4517 176.003 70.6174V78.4094C176.003 79.8944 176.593 81.3187 177.645 82.3688C178.697 83.4189 180.123 84.0089 181.611 84.0089C183.098 84.0089 184.524 83.4189 185.576 82.3688C186.628 81.3187 187.219 79.8944 187.219 78.4094V70.6174C187.219 70.5354 187.202 70.4541 187.171 70.3784C187.14 70.3026 187.093 70.2337 187.035 70.1757C186.977 70.1177 186.908 70.0716 186.832 70.0402C186.756 70.0088 186.675 69.9927 186.593 69.9927H176.628ZM176.626 69.0637C176.214 69.0643 175.819 69.2279 175.528 69.5188C175.236 69.8102 175.072 70.2054 175.072 70.6174V78.4094C175.072 80.1408 175.761 81.8014 176.987 83.0257C178.213 84.25 179.876 84.9379 181.611 84.9379C183.345 84.9379 185.008 84.25 186.234 83.0257C187.46 81.8014 188.149 80.1408 188.149 78.4094V70.6174C188.149 70.4134 188.109 70.2114 188.031 70.0228C187.952 69.8343 187.838 69.6631 187.693 69.5188C187.549 69.3745 187.377 69.26 187.188 69.182C187 69.1039 186.797 69.0637 186.593 69.0637L176.626 69.0637Z" fill="#30242A"/>
<path d="M181.608 94.6551L176.765 97.47H186.453L181.608 94.6551Z" fill="#30232A"/>
<path d="M266.792 189.698C271.584 189.698 275.47 185.819 275.47 181.033C275.47 176.247 271.584 172.368 266.792 172.368C261.999 172.368 258.113 176.247 258.113 181.033C258.113 185.819 261.999 189.698 266.792 189.698Z" fill="#FFB7D5"/>
<path fill-rule="evenodd" clip-rule="evenodd" d="M77.6645 82.5473C77.6764 82.8036 77.4781 83.021 77.2214 83.0329C75.03 83.1347 71.3876 83.3943 68.2876 83.6289C66.7388 83.7462 65.3273 83.857 64.303 83.9386C63.7909 83.9793 63.3756 84.0128 63.0883 84.036C62.9447 84.0477 62.8331 84.0567 62.7574 84.0629L62.6422 84.0723C62.6421 84.0723 62.6421 84.0723 62.604 83.6094C62.5659 83.1464 62.566 83.1464 62.5661 83.1464L62.6818 83.137C62.7576 83.1308 62.8694 83.1217 63.0132 83.1101C63.3008 83.0868 63.7165 83.0533 64.2291 83.0125C65.2542 82.9309 66.667 82.82 68.2173 82.7026C71.3156 82.4681 74.9711 82.2075 77.1782 82.1049C77.4348 82.093 77.6526 82.2911 77.6645 82.5473ZM62.1404 83.6474C62.1193 83.3917 62.31 83.1674 62.5661 83.1464L62.604 83.6094L62.6422 84.0723C62.3861 84.0933 62.1614 83.9031 62.1404 83.6474Z" fill="#A15842"/>
<path d="M50.4961 124.206L47.0071 110.578H67.3621C71.8964 110.578 76.3019 112.084 79.8845 114.859C83.467 117.634 86.023 121.521 87.1496 125.906L89.5128 135.138H64.6081C61.3742 135.139 58.2321 134.065 55.677 132.086C53.1219 130.106 51.2992 127.334 50.4961 124.206Z" fill="#3EC1F3"/>
<path d="M234.131 90.7557H194.5V94.8711H234.131V90.7557Z" fill="#F5EBDD"/>
<path d="M153.871 83.1751H145.844H137.816V90.3237H145.844H153.871H161.898V83.1751H153.871Z" fill="#EAA58B"/>
<path d="M153.871 90.3237H145.844H137.816V97.47H145.844H153.871H161.898V90.3237H153.871Z" fill="#EAA58B"/>
<path d="M153.871 76.0265H145.844H137.816V83.1751H145.844H153.871H161.898V76.0265H153.871Z" fill="#EAA58B"/>
<path d="M153.871 61.7316H145.844H137.816V68.8802H145.844H153.871H161.898V61.7316H153.871Z" fill="#EAA58B"/>
<path d="M153.871 47.4367H145.844H137.816V54.583H145.844H153.871H161.898V47.4367H153.871Z" fill="#EAA58B"/>
<path d="M153.87 68.8802H145.843V76.0288H153.87V68.8802Z" fill="#EAA58B"/>
<path d="M153.87 54.583H145.843V61.7316H153.87V54.583Z" fill="#EAA58B"/>
<path fill-rule="evenodd" clip-rule="evenodd" d="M154.337 83.1751V90.3237H153.406V83.1751H154.337Z" fill="#A15842"/>
<path fill-rule="evenodd" clip-rule="evenodd" d="M146.309 83.1751V90.3237H145.378V83.1751H146.309Z" fill="#A15842"/>
<path d="M153.871 39.9769H145.844H137.816V47.1255H145.844H153.871H161.898V39.9769H153.871Z" fill="#EAA58B"/>
<path fill-rule="evenodd" clip-rule="evenodd" d="M154.337 39.9769V47.1255H153.406V39.9769H154.337Z" fill="#A15842"/>
<path fill-rule="evenodd" clip-rule="evenodd" d="M146.309 39.9769V47.1255H145.378V39.9769H146.309Z" fill="#A15842"/>
<path fill-rule="evenodd" clip-rule="evenodd" d="M137.816 90.7882V89.8592H161.898V90.7882H137.816Z" fill="#A15842"/>
<path fill-rule="evenodd" clip-rule="evenodd" d="M137.816 83.6396V82.7106H161.898V83.6396H137.816Z" fill="#A15842"/>
<path fill-rule="evenodd" clip-rule="evenodd" d="M137.816 47.9012V46.9722H161.898V47.9012H137.816Z" fill="#A15842"/>
<path fill-rule="evenodd" clip-rule="evenodd" d="M145.843 76.059V75.13H153.87V76.059H145.843Z" fill="#A15842"/>
<path fill-rule="evenodd" clip-rule="evenodd" d="M145.843 69.7767V68.8477H153.87V69.7767H145.843Z" fill="#A15842"/>
<path fill-rule="evenodd" clip-rule="evenodd" d="M145.843 61.7641V60.8351H153.87V61.7641H145.843Z" fill="#A15842"/>
<path fill-rule="evenodd" clip-rule="evenodd" d="M145.843 55.4818V54.5528H153.87V55.4818H145.843Z" fill="#A15842"/>
<path d="M183.559 171.766H178.312C178.196 174.632 177.563 176.643 176.063 178.09C175.419 178.691 174.677 179.177 173.869 179.528C173.336 179.76 172.841 180.018 172.376 180.271C174.004 181.321 175.632 183.681 175.632 183.681C176.897 183.425 178.094 182.908 179.147 182.164C181.259 180.747 182.969 178.748 183.799 177.67C184.041 177.358 184.351 177.106 184.706 176.933C185.061 176.761 185.451 176.672 185.846 176.674H187.337C187.451 175.981 187.529 175.284 187.569 174.583C187.558 173.722 186.918 171.766 183.559 171.766Z" fill="#FF7235"/>
<path d="M187.335 176.678H185.844C185.449 176.676 185.059 176.765 184.704 176.938C184.349 177.111 184.039 177.363 183.797 177.675C182.962 178.752 181.253 180.752 179.145 182.169C178.092 182.913 176.895 183.43 175.631 183.685C175.631 183.685 174.002 181.326 172.374 180.276C172.202 180.366 172.037 180.459 171.874 180.552C168.35 182.582 166.855 184.879 166.408 187.15H197.153C197.651 185.513 198.06 183.85 198.379 182.169C198.679 180.624 198.97 178.822 199.214 176.746L187.335 176.678Z" fill="#30242A"/>
<path d="M166.299 189.696H196.204C196.582 188.868 196.898 188.015 197.151 187.141H166.41C166.252 187.983 166.214 188.843 166.299 189.696Z" fill="#FF7235"/>
<path fill-rule="evenodd" clip-rule="evenodd" d="M176.988 175.601C177.131 175.387 177.419 175.33 177.633 175.472L183.913 179.652C184.127 179.795 184.185 180.083 184.042 180.297C183.9 180.51 183.611 180.568 183.397 180.425L177.117 176.245C176.903 176.103 176.845 175.814 176.988 175.601Z" fill="#F5EBDD"/>
<path fill-rule="evenodd" clip-rule="evenodd" d="M174.713 178.093C174.89 177.907 175.185 177.9 175.371 178.077L180.255 182.722C180.441 182.899 180.449 183.193 180.271 183.378C180.094 183.564 179.8 183.571 179.614 183.394L174.729 178.749C174.543 178.573 174.536 178.279 174.713 178.093Z" fill="#F5EBDD"/>
<path d="M241.25 109.884C239.603 100.401 233.981 94.8711 233.981 94.8711H219.157C219.157 94.8711 196.318 101.119 185.239 107.877C172.446 115.676 173.732 121.868 175.91 146.217C176.686 154.9 177.661 161.433 178.098 166.359H199.893C199.893 166.332 199.893 166.304 199.893 166.276H203.915C203.915 166.276 205.98 156.735 203.696 148.232C201.3 139.319 199.123 137.798 197.818 131.71H222.819C234.407 131.701 243.229 121.282 241.25 109.884Z" fill="#30242A"/>
<path d="M178.313 171.766H183.563C186.91 171.766 187.561 173.715 187.561 174.581C187.521 175.281 187.443 175.979 187.329 176.671L199.205 176.732C199.552 173.822 199.808 170.375 199.887 166.343H178.092C178.278 168.145 178.352 169.956 178.313 171.766Z" fill="#A15842"/>
<path fill-rule="evenodd" clip-rule="evenodd" d="M191.885 132.068C191.885 131.811 192.093 131.604 192.35 131.604H197.611C197.868 131.604 198.077 131.811 198.077 132.068C198.077 132.325 197.868 132.532 197.611 132.532H192.35C192.093 132.532 191.885 132.325 191.885 132.068Z" fill="#081B33"/>
<path fill-rule="evenodd" clip-rule="evenodd" d="M137.818 166.64C138.036 166.503 138.323 166.568 138.46 166.786L142.414 173.056C142.551 173.273 142.486 173.56 142.268 173.697C142.051 173.833 141.764 173.768 141.627 173.551L137.673 167.28C137.536 167.063 137.601 166.777 137.818 166.64Z" fill="#F5EBDD"/>
<path fill-rule="evenodd" clip-rule="evenodd" d="M135.099 167.996C135.337 167.9 135.608 168.014 135.705 168.251L138.264 174.522C138.361 174.759 138.246 175.031 138.008 175.127C137.77 175.224 137.499 175.11 137.402 174.872L134.843 168.602C134.746 168.364 134.861 168.093 135.099 167.996Z" fill="#F5EBDD"/>
<path d="M251.694 124.206L255.183 110.578H234.835C230.301 110.577 225.895 112.083 222.312 114.859C218.73 117.634 216.174 121.521 215.048 125.906L212.682 135.138H237.58C240.814 135.139 243.956 134.065 246.512 132.086C249.067 130.107 250.89 127.334 251.694 124.206Z" fill="#FFB7D5"/>
<path d="M223.135 97.47H78.4403C76.8833 97.47 75.6211 98.7302 75.6211 100.285V100.287C75.6211 101.842 76.8833 103.102 78.4403 103.102H223.135C224.692 103.102 225.954 101.842 225.954 100.287V100.285C225.954 98.7302 224.692 97.47 223.135 97.47Z" fill="#A15842"/>
<path d="M96.013 84.4757C94.001 83.5629 88.8535 82.7431 83.8642 82.7431C82.9151 82.7431 81.894 82.7593 80.8264 82.7895V96.8313C83.2966 96.0648 85.3319 95.3402 86.6833 94.8711C86.6833 94.8711 96.6154 102.447 98.3855 98.9819C98.3855 98.9819 100.977 100.027 101.642 97.4699C101.642 97.4699 104.68 97.4699 103.596 95.3054C102.865 93.8283 99.6928 90.5397 99.6928 90.5397C99.6928 90.5397 103.461 92.8087 105.333 91.4059C107.076 90.1123 98.3972 85.5579 96.013 84.4757Z" fill="#EAA58B"/>
<path d="M61.9539 84.0414L47.8535 84.6917C46.5533 91.622 50.1796 98.7706 56.3133 99.8528C64.3823 101.274 74.1772 98.896 80.8273 96.8336V82.7896C72.6792 83.0264 61.9539 84.0414 61.9539 84.0414Z" fill="#FF7235"/>
<path fill-rule="evenodd" clip-rule="evenodd" d="M94.1133 85.7233C94.2608 85.5132 94.5509 85.4623 94.7613 85.6096C96.3473 86.72 98.691 88.5588 100.397 89.9189C100.598 90.0789 100.631 90.3712 100.47 90.5717C100.31 90.7722 100.017 90.8049 99.8167 90.6449C98.1082 89.2829 95.7859 87.4616 94.2271 86.3702C94.0168 86.223 93.9658 85.9333 94.1133 85.7233Z" fill="#A15842"/>
<path fill-rule="evenodd" clip-rule="evenodd" d="M91.5098 88.2932C91.6566 88.0827 91.9465 88.0308 92.1574 88.1774C96.4625 91.1697 100.325 95.11 102.154 97.085C102.328 97.2734 102.317 97.5672 102.128 97.7414C101.939 97.9155 101.645 97.904 101.47 97.7156C99.6565 95.7563 95.8479 91.8744 91.6258 88.9398C91.415 88.7933 91.363 88.5038 91.5098 88.2932Z" fill="#A15842"/>
<path fill-rule="evenodd" clip-rule="evenodd" d="M89.5112 91.3456C89.6628 91.1385 89.9538 91.0932 90.1613 91.2445C93.0592 93.3583 96.3634 96.5399 98.507 98.6965C98.688 98.8786 98.6869 99.1727 98.5045 99.3534C98.3222 99.5341 98.0276 99.533 97.8466 99.3509C95.7057 97.197 92.4459 94.0614 89.6125 91.9947C89.405 91.8434 89.3597 91.5528 89.5112 91.3456Z" fill="#A15842"/>
<path d="M179.096 88.5911C174.326 90.974 170.527 95.0941 167.166 99.4209C165.647 101.369 161.816 106.223 164.345 106.785C166.298 107.217 170.204 103.32 170.204 103.32C170.204 103.32 167.852 108.404 169.553 109.823C170.853 110.908 172.576 109.175 172.576 109.175C174.095 112.427 176.482 109.607 176.482 109.607C180.31 112.427 184.074 102.027 184.074 102.027C186.306 101.234 188.419 100.14 190.354 98.7752C190.354 98.7752 191.592 99.0957 193.592 99.4905L191.787 84.8821C187.067 85.753 182.371 86.9561 179.096 88.5911Z" fill="#A15842"/>
<path fill-rule="evenodd" clip-rule="evenodd" d="M172.713 96.517C172.94 96.6356 173.029 96.9162 172.91 97.1436C171.829 99.2137 170.607 102.298 169.909 104.133C169.817 104.373 169.549 104.494 169.309 104.403C169.068 104.311 168.948 104.043 169.039 103.803C169.736 101.969 170.975 98.8384 172.085 96.714C172.204 96.4866 172.485 96.3983 172.713 96.517Z" fill="#30242A"/>
<path fill-rule="evenodd" clip-rule="evenodd" d="M176.69 97.9149C176.923 98.0229 177.024 98.2991 176.916 98.5318C175.118 102.402 173.797 106.653 173.06 109.297C172.991 109.545 172.735 109.689 172.487 109.62C172.24 109.552 172.095 109.296 172.164 109.048C172.906 106.384 174.242 102.078 176.072 98.1407C176.18 97.908 176.457 97.8069 176.69 97.9149Z" fill="#30242A"/>
<path fill-rule="evenodd" clip-rule="evenodd" d="M180.801 99.2089C181.037 99.3116 181.144 99.5855 181.041 99.8205C179.68 102.93 178.291 107.152 177.414 109.973C177.338 110.218 177.078 110.355 176.832 110.278C176.587 110.202 176.45 109.942 176.526 109.697C177.403 106.874 178.805 102.609 180.189 99.4485C180.292 99.2134 180.566 99.1061 180.801 99.2089Z" fill="#30242A"/>
<path d="M220.966 97.47C228.486 91.2155 236.829 77.2388 237.669 61.7316C238.104 53.7167 231.812 49.6013 227.041 49.6013H225.299L209.899 82.7431C209.899 82.7431 200.769 83.2239 191.807 84.8775L193.612 99.4859C200.081 100.766 214.516 102.837 220.966 97.47Z" fill="#3EC1F3"/>
<path fill-rule="evenodd" clip-rule="evenodd" d="M216.679 68.1987C216.912 68.3067 217.013 68.5829 216.905 68.8156L210.557 82.4741C210.449 82.7068 210.172 82.8079 209.939 82.6999C209.706 82.592 209.605 82.3158 209.713 82.0831L216.061 68.4245C216.169 68.1918 216.446 68.0907 216.679 68.1987Z" fill="#4756DF"/>
<path fill-rule="evenodd" clip-rule="evenodd" d="M233.522 79.3802C233.758 79.4808 233.868 79.7536 233.767 79.9896C233.15 81.4346 232.482 82.8299 231.779 84.1686C230.592 86.4336 229.248 88.6127 227.755 90.6897C227.606 90.8981 227.315 90.9459 227.106 90.7963C226.898 90.6468 226.85 90.3566 227 90.1481C228.466 88.1065 229.788 85.9644 230.954 83.7378L230.955 83.7374C231.647 82.4192 232.305 81.0463 232.911 79.6253C233.012 79.3894 233.285 79.2796 233.522 79.3802Z" fill="#4756DF"/>
<path fill-rule="evenodd" clip-rule="evenodd" d="M214.81 81.5658C215.067 81.5579 215.282 81.7593 215.289 82.0157C215.297 82.2722 215.096 82.4864 214.839 82.4944L214.824 82.0301L214.81 81.5658ZM210.444 82.7252C209.881 82.772 209.265 82.8149 208.578 82.8626C205.835 83.0531 201.968 83.3218 195.942 84.2312C195.688 84.2696 195.45 84.095 195.412 83.8414C195.374 83.5877 195.548 83.351 195.803 83.3127C201.87 82.3971 205.779 82.1256 208.521 81.9352C209.203 81.8878 209.813 81.8455 210.366 81.7995L210.367 81.7994C211.306 81.7221 212.418 81.6637 213.292 81.6247C213.729 81.6052 214.109 81.5905 214.379 81.5806C214.514 81.5757 214.621 81.572 214.695 81.5696L214.78 81.5668L214.81 81.5658C214.81 81.5658 214.81 81.5658 214.824 82.0301L214.839 82.4944L214.81 82.4953L214.726 82.498C214.653 82.5005 214.547 82.5041 214.413 82.509C214.145 82.5188 213.768 82.5334 213.333 82.5528C212.463 82.5916 211.365 82.6493 210.444 82.7252Z" fill="#4756DF"/>
<path d="M198.947 97.038C199.966 97.038 200.791 96.2134 200.791 95.1963C200.791 94.1791 199.966 93.3545 198.947 93.3545C197.928 93.3545 197.102 94.1791 197.102 95.1963C197.102 96.2134 197.928 97.038 198.947 97.038Z" fill="#30242A"/>
<path fill-rule="evenodd" clip-rule="evenodd" d="M190.728 98.7833L190.731 98.784L190.74 98.7865C190.749 98.7888 190.762 98.7922 190.78 98.7967C190.816 98.8057 190.869 98.8192 190.939 98.8365C191.079 98.8712 191.287 98.9217 191.555 98.9842C192.091 99.1091 192.87 99.2822 193.834 99.4739C194.086 99.524 194.25 99.7685 194.2 100.02C194.149 100.272 193.905 100.435 193.653 100.385C192.677 100.191 191.889 100.016 191.344 99.8889C191.071 99.8254 190.859 99.7739 190.715 99.7382C190.711 99.7372 190.707 99.7361 190.703 99.7351C188.84 101.026 186.819 102.072 184.69 102.848C184.683 102.866 184.676 102.884 184.669 102.904C184.605 103.069 184.511 103.306 184.389 103.594C184.289 103.83 184.016 103.941 183.779 103.841C183.542 103.741 183.432 103.469 183.532 103.233C183.649 102.954 183.74 102.726 183.801 102.569C183.831 102.49 183.855 102.429 183.87 102.388C183.877 102.367 183.883 102.352 183.887 102.341L183.891 102.33L183.892 102.328L183.892 102.327C183.894 102.325 184.004 102.181 184.186 102.082L184.174 102.047C186.366 101.268 188.441 100.193 190.342 98.8533L190.519 98.7287" fill="#30242A"/>
<path fill-rule="evenodd" clip-rule="evenodd" d="M168.353 97.3594C168.551 97.5221 168.58 97.8148 168.417 98.0131C167.959 98.5703 167.51 99.1328 167.069 99.7008L167.067 99.7038L167.064 99.7068C166.178 100.81 165.351 101.96 164.585 103.151C164.447 103.367 164.159 103.429 163.943 103.291C163.726 103.152 163.664 102.865 163.802 102.649C164.584 101.432 165.43 100.257 166.336 99.1286C166.781 98.5549 167.235 97.9867 167.698 97.4239C167.861 97.2255 168.154 97.1967 168.353 97.3594Z" fill="#30242A"/>
</svg>
