<svg width="38" height="38" viewBox="0 0 38 38" fill="none" xmlns="http://www.w3.org/2000/svg">
<path d="M19 3.5625C19.6558 3.5625 20.1875 4.09416 20.1875 4.75V8.3125C20.1875 8.96834 19.6558 9.5 19 9.5C18.3442 9.5 17.8125 8.96834 17.8125 8.3125V4.75C17.8125 4.09416 18.3442 3.5625 19 3.5625Z" fill="#0F172A"/>
<path d="M11.875 19C11.875 15.065 15.065 11.875 19 11.875C22.935 11.875 26.125 15.065 26.125 19C26.125 22.935 22.935 26.125 19 26.125C15.065 26.125 11.875 22.935 11.875 19Z" fill="#0F172A"/>
<path d="M29.916 9.76337C30.3798 9.29962 30.3798 8.54774 29.916 8.08399C29.4523 7.62024 28.7004 7.62024 28.2367 8.08399L25.7176 10.6031C25.2538 11.0668 25.2538 11.8187 25.7176 12.2824C26.1813 12.7462 26.9332 12.7462 27.397 12.2824L29.916 9.76337Z" fill="#0F172A"/>
<path d="M34.4375 19C34.4375 19.6558 33.9058 20.1875 33.25 20.1875H29.6875C29.0317 20.1875 28.5 19.6558 28.5 19C28.5 18.3442 29.0317 17.8125 29.6875 17.8125H33.25C33.9058 17.8125 34.4375 18.3442 34.4375 19Z" fill="#0F172A"/>
<path d="M28.2365 29.9159C28.7002 30.3796 29.4521 30.3796 29.9159 29.9159C30.3796 29.4522 30.3796 28.7003 29.9159 28.2365L27.3968 25.7175C26.9331 25.2537 26.1812 25.2537 25.7174 25.7175C25.2537 26.1812 25.2537 26.9331 25.7174 27.3968L28.2365 29.9159Z" fill="#0F172A"/>
<path d="M19 28.5C19.6558 28.5 20.1875 29.0317 20.1875 29.6875V33.25C20.1875 33.9058 19.6558 34.4375 19 34.4375C18.3442 34.4375 17.8125 33.9058 17.8125 33.25V29.6875C17.8125 29.0317 18.3442 28.5 19 28.5Z" fill="#0F172A"/>
<path d="M12.2827 27.3968C12.7465 26.9331 12.7465 26.1812 12.2827 25.7175C11.819 25.2537 11.0671 25.2537 10.6033 25.7175L8.08427 28.2365C7.62052 28.7003 7.62052 29.4522 8.08427 29.9159C8.54801 30.3797 9.2999 30.3797 9.76364 29.9159L12.2827 27.3968Z" fill="#0F172A"/>
<path d="M9.5 19C9.5 19.6558 8.96834 20.1875 8.3125 20.1875H4.75C4.09416 20.1875 3.5625 19.6558 3.5625 19C3.5625 18.3442 4.09416 17.8125 4.75 17.8125H8.3125C8.96834 17.8125 9.5 18.3442 9.5 19Z" fill="#0F172A"/>
<path d="M10.6032 12.2824C11.0669 12.7462 11.8188 12.7462 12.2825 12.2824C12.7463 11.8187 12.7463 11.0668 12.2825 10.603L9.76347 8.08398C9.29972 7.62023 8.54784 7.62023 8.08409 8.08398C7.62034 8.54772 7.62034 9.29961 8.08409 9.76335L10.6032 12.2824Z" fill="#0F172A"/>
</svg>
