<svg width="23" height="20" viewBox="0 0 23 20" fill="none" xmlns="http://www.w3.org/2000/svg">
<path d="M9.76439 17.9007C10.2125 18.5992 10.4365 18.9484 10.7215 19.069C10.9706 19.1743 11.2516 19.1743 11.5007 19.069C11.7857 18.9484 12.0097 18.5992 12.4578 17.9007L19.153 7.46392C19.6679 6.66125 19.9254 6.25992 19.9015 5.92809C19.8806 5.6389 19.7353 5.373 19.5031 5.19931C19.2367 5 18.7599 5 17.8063 5L4.41593 5C3.4623 5 2.98549 5 2.7191 5.19931C2.48695 5.373 2.34162 5.6389 2.32077 5.92809C2.29685 6.25992 2.5543 6.66125 3.06921 7.46392L9.76439 17.9007Z" fill="#081B33"/>
</svg>
