<svg width="23" height="20" viewBox="0 0 23 20" fill="none" xmlns="http://www.w3.org/2000/svg">
<path d="M9.76439 2.09932C10.2125 1.40084 10.4365 1.05159 10.7215 0.93103C10.9706 0.825691 11.2516 0.825691 11.5007 0.93103C11.7857 1.05159 12.0097 1.40084 12.4578 2.09932L19.153 12.5361C19.6679 13.3387 19.9254 13.7401 19.9015 14.0719C19.8806 14.3611 19.7353 14.627 19.5031 14.8007C19.2367 15 18.7599 15 17.8063 15L4.41593 15C3.4623 15 2.98549 15 2.7191 14.8007C2.48695 14.627 2.34162 14.3611 2.32077 14.0719C2.29685 13.7401 2.5543 13.3387 3.06921 12.5361L9.76439 2.09932Z" fill="#081B33"/>
</svg>
