<svg width="42" height="42" viewBox="0 0 42 42" fill="none" xmlns="http://www.w3.org/2000/svg">
<rect x="0.5" y="0.5" width="41" height="41" rx="20.5" fill="#C5E1F2"/>
<g clip-path="url(#clip0_967_1978)">
<path d="M21.1348 18.2839C19.8128 18.2839 17.6001 18.2839 17.6001 20.9971C17.6001 23.1601 20.2758 25.1671 20.581 25.3882C20.7459 25.5081 20.9404 25.568 21.135 25.568C21.3296 25.568 21.5239 25.5081 21.689 25.3882C21.994 25.1667 24.6699 23.1601 24.6699 20.9971C24.6691 18.2839 22.4568 18.2839 21.1348 18.2839ZM21.1333 23.4384C20.3896 22.7791 19.474 21.757 19.474 20.9971C19.474 20.2725 19.474 20.1422 21.1342 20.1422C22.7944 20.1422 22.7944 20.2723 22.7944 20.9971C22.7946 21.7525 21.8781 22.7769 21.1333 23.4384Z" fill="#081B33"/>
<path d="M15.2774 17.2832C13.7665 17.2832 13.7665 19.6061 15.2774 19.6061C16.7882 19.6061 16.7882 17.2832 15.2774 17.2832Z" fill="#081B33"/>
<path d="M26.9927 17.2832C25.4818 17.2832 25.4818 19.6061 26.9927 19.6061C28.5036 19.6061 28.5036 17.2832 26.9927 17.2832Z" fill="#081B33"/>
<path d="M36.1304 21.8514C36.1304 19.4607 34.1683 17.5155 31.7569 17.5155C31.4242 17.5155 31.0985 17.5531 30.7811 17.6246C29.0732 13.3269 25.4512 9.69556 21.1346 9.69556C16.8229 9.69556 13.2041 13.3192 11.4945 17.6103C11.1998 17.5489 10.8985 17.5155 10.591 17.5155C8.17954 17.5155 6.21741 19.4607 6.21741 21.8514C6.21741 22.8558 6.55904 23.8059 7.18897 24.5747C7.16595 24.7527 7.15466 24.9292 7.15466 25.1034C7.15466 27.4941 9.11679 29.4393 11.5283 29.4393C11.9739 29.4393 12.4163 29.364 12.8395 29.2325C13.2707 29.6832 13.7556 30.0882 14.2899 30.446H13.8247C13.3073 30.446 12.8874 30.8622 12.8874 31.3751C12.8874 31.888 13.3073 32.3043 13.8247 32.3043H28.4449C28.9623 32.3043 29.3821 31.888 29.3821 31.3751C29.3821 30.8622 28.9623 30.446 28.4449 30.446H27.9796C28.5219 30.0832 29.0133 29.672 29.4493 29.2134C29.8903 29.3573 30.3528 29.4392 30.8195 29.4392C33.231 29.4392 35.1931 27.494 35.1931 25.1034C35.1931 24.9292 35.1818 24.7527 35.1588 24.5747C35.7883 23.8059 36.1304 22.8558 36.1304 21.8514L36.1304 21.8514ZM9.02845 25.1034C9.02845 24.9105 9.05335 24.7175 9.10398 24.5115C9.18327 24.1919 9.08578 23.8547 8.8477 23.6251C8.35984 23.1535 8.09144 22.5241 8.09144 21.8519C8.09144 20.4859 9.21279 19.3743 10.5906 19.3743C10.6964 19.3743 10.8006 19.3822 10.9035 19.3948C10.5987 20.5484 10.4351 21.7204 10.4351 22.8582C10.4351 24.6449 10.8433 26.2346 11.6002 27.5769C11.5759 27.5777 11.5519 27.581 11.5276 27.581C10.1498 27.581 9.02846 26.4694 9.02846 25.1035L9.02845 25.1034ZM21.1348 30.4457C16.8685 30.4457 12.3104 28.4522 12.3104 22.8581C12.3104 17.738 16.2467 11.5538 21.1348 11.5538C26.023 11.5538 29.9592 17.7382 29.9592 22.8581C29.9592 28.4526 25.4005 30.4457 21.1348 30.4457ZM33.4992 23.6242C33.2612 23.8538 33.1637 24.1911 33.243 24.5106C33.2936 24.7164 33.3185 24.9097 33.3185 25.1025C33.3185 26.4685 32.1971 27.5801 30.8194 27.5801C30.7691 27.5801 30.7204 27.5741 30.6708 27.5712C31.4262 26.2295 31.8334 24.6417 31.8334 22.8572C31.8334 21.7236 31.6708 20.5557 31.3681 19.4059C31.4955 19.386 31.6244 19.3729 31.7566 19.3729C33.1344 19.3729 34.2557 20.4846 34.2557 21.8505C34.2561 22.5231 33.9871 23.1532 33.4992 23.6242V23.6242Z" fill="#081B33"/>
</g>
<rect x="0.5" y="0.5" width="41" height="41" rx="20.5" stroke="#081B33"/>
<defs>
<clipPath id="clip0_967_1978">
<rect width="29.913" height="22.6087" fill="white" transform="translate(6.21741 9.69556)"/>
</clipPath>
</defs>
</svg>
