<svg width="38" height="38" viewBox="0 0 38 38" fill="none" xmlns="http://www.w3.org/2000/svg">
<g clip-path="url(#clip0_839_12160)">
<path d="M18.966 15.5975C17.8169 15.5975 15.8937 15.5975 15.8937 17.9976C15.8937 19.911 18.2194 21.6864 18.4847 21.882C18.6279 21.988 18.797 22.0411 18.9662 22.0411C19.1353 22.0411 19.3042 21.988 19.4477 21.882C19.7128 21.6861 22.0387 19.911 22.0387 17.9976C22.0379 15.5975 20.115 15.5975 18.966 15.5975V15.5975ZM18.9647 20.1572C18.3183 19.574 17.5224 18.6698 17.5224 17.9976C17.5224 17.3566 17.5224 17.2413 18.9655 17.2413C20.4085 17.2413 20.4085 17.3564 20.4085 17.9976C20.4087 18.6658 19.6121 19.572 18.9647 20.1572Z" fill="#081B33"/>
<path d="M13.8748 14.7122C12.5616 14.7122 12.5616 16.767 13.8748 16.767C15.188 16.767 15.188 14.7122 13.8748 14.7122Z" fill="#081B33"/>
<path d="M24.0576 14.7122C22.7444 14.7122 22.7444 16.767 24.0576 16.767C25.3708 16.767 25.3708 14.7122 24.0576 14.7122Z" fill="#081B33"/>
<path d="M32 18.7533C32 16.6384 30.2945 14.9177 28.1985 14.9177C27.9094 14.9177 27.6263 14.9509 27.3504 15.0142C25.8659 11.2124 22.7178 8 18.9658 8C15.2182 8 12.0727 11.2056 10.5868 15.0015C10.3306 14.9472 10.0688 14.9176 9.80147 14.9176C7.70546 14.9176 6 16.6384 6 18.7532C6 19.6418 6.29694 20.4822 6.84447 21.1624C6.82446 21.3198 6.81464 21.4759 6.81464 21.63C6.81464 23.7448 8.5201 25.4656 10.6161 25.4656C11.0034 25.4656 11.388 25.399 11.7558 25.2827C12.1306 25.6814 12.5521 26.0397 13.0165 26.3561H12.6121C12.1624 26.3561 11.7975 26.7243 11.7975 27.1781C11.7975 27.6318 12.1624 28 12.6121 28H25.3198C25.7695 28 26.1344 27.6318 26.1344 27.1781C26.1344 26.7243 25.7695 26.3561 25.3198 26.3561H24.9154C25.3867 26.0352 25.8139 25.6714 26.1928 25.2658C26.5761 25.3931 26.9781 25.4656 27.3838 25.4656C29.4798 25.4656 31.1853 23.7448 31.1853 21.63C31.1853 21.4759 31.1755 21.3197 31.1555 21.1623C31.7026 20.4822 31.9999 19.6417 31.9999 18.7532L32 18.7533ZM8.44332 21.63C8.44332 21.4594 8.46496 21.2886 8.50897 21.1064C8.57788 20.8237 8.49315 20.5254 8.28621 20.3223C7.86217 19.9051 7.62888 19.3483 7.62888 18.7537C7.62888 17.5453 8.60355 16.562 9.80109 16.562C9.89311 16.562 9.98366 16.5689 10.0731 16.5801C9.80819 17.6006 9.66599 18.6374 9.66599 19.6438C9.66599 21.2244 10.0208 22.6307 10.6786 23.8181C10.6576 23.8188 10.6366 23.8218 10.6155 23.8218C9.41795 23.8218 8.44333 22.8384 8.44333 21.6301L8.44332 21.63ZM18.966 26.3559C15.2578 26.3559 11.2959 24.5924 11.2959 19.6438C11.2959 15.1145 14.7173 9.64384 18.966 9.64384C23.2147 9.64384 26.636 15.1147 26.636 19.6438C26.636 24.5928 22.6736 26.3559 18.966 26.3559V26.3559ZM29.713 20.3215C29.5061 20.5246 29.4213 20.8229 29.4902 21.1056C29.5342 21.2876 29.5559 21.4586 29.5559 21.6292C29.5559 22.8376 28.5812 23.8209 27.3837 23.8209C27.34 23.8209 27.2977 23.8156 27.2546 23.8131C27.9112 22.6262 28.265 21.2216 28.265 19.643C28.265 18.6402 28.1237 17.6071 27.8606 16.5899C27.9714 16.5723 28.0834 16.5607 28.1983 16.5607C29.3959 16.5607 30.3705 17.5442 30.3705 18.7525C30.3709 19.3474 30.137 19.9048 29.713 20.3215V20.3215Z" fill="#081B33"/>
</g>
<rect x="1.5" y="1.5" width="35" height="35" rx="17.5" stroke="#081B33" stroke-width="3"/>
<defs>
<clipPath id="clip0_839_12160">
<rect width="26" height="20" fill="white" transform="translate(6 8)"/>
</clipPath>
</defs>
</svg>
